<?xml version="1.0" encoding="utf-8"?>
<!-- Generator: Adobe Illustrator 28.1.0, SVG Export Plug-In . SVG Version: 6.00 Build 0)  -->
<svg version="1.1" id="Calque_1" xmlns="http://www.w3.org/2000/svg" xmlns:xlink="http://www.w3.org/1999/xlink" x="0px" y="0px"
	 viewBox="0 0 1024 1024" style="enable-background:new 0 0 1024 1024;" xml:space="preserve">
<style type="text/css">
	.st0{fill:#032641;}
	.st1{fill:#FFFFF1;}
	.st2{fill:#FF7B01;}
	.st3{fill:#FFEF00;}
	.st4{fill:#D81F3E;}
	.st5{fill:#FB2D41;}
	.st6{fill:#FFE300;}
	.st7{fill:#FD6F01;}
	.st8{fill:#3B9130;}
	.st9{fill:#FFD600;}
	.st10{fill:#53A81C;}
	.st11{fill:#ABD500;}
	.st12{fill:#FFBB01;}
	.st13{fill:#EFC9AC;}
</style>
<path class="st0" d="M711.8,880.7c1.8,7.3-0.5,12.6-6.9,15.8c-1.2,0.6-2.5,0.9-3.8,0.8c-5.7-0.4-11.8-0.4-18.2-0.1
	c-2.2,0.1-4.3-0.4-6.5-0.2c-1.3,0.1-2.6,0.2-3.9,0.2c-36.5,0.2-73,0.3-109.5,0.5c-3.2,0-6.3,0-9.5,0c-37.3,0.2-75.2,0.1-113.7-0.3
	c-15.3-0.1-52.9-0.2-112.7-0.2c-4.1,0-7.2-0.5-9.3-1.4c-5.7-2.6-7.7-7.7-6-15.2c1-1.9,2.5-3.4,4.7-4.6c3.1-1.8,5.9-2.6,9.7-2.5
	c4.3,0.1,8.7,0.2,13.1,0.2c28,0.1,54.8,0.1,80.2,0c9.5-0.1,19.3,0.2,29.1,0.1c0.3,0,0.6,0.1,0.9,0.3c0.2,0.1,0.3,0.1,0.5,0
	c0.2-0.2,0.2-0.5,0.1-0.7c-4.5-7.5-6.7-14.6-6.6-21.5c0-0.5-0.2-0.7-0.6-0.8c-22.4-4.1-44-13.4-62.3-27.1
	c-14.5-10.9-27.4-23.5-38.8-37.7c-9.4-11.8-17.9-25.2-25.4-40.1c-6.3-12.6-12.2-25.5-16.4-39.1c-3.8-12.1-6.7-24.2-8.7-36.2
	c-2.9-16.9-5.7-33-8.3-48.4c-1.8-10.5-4.9-23-8-31.8c-4-11.4-9.3-20.7-16.1-27.9c-7.7-8.2-18-12.4-30.9-12.7c-1.5,0-3.7,0.4-6.6,1.2
	c-4.1,1.2-7.6,2.8-11.5,4.4c-2,0.8-3.8,1.2-5.5,1.2c-11.4-0.2-13.1-13-11.2-21.4c1.7-7.6,4.5-15.4,8.3-23.5
	c11-22.9,26.4-41.7,46.1-56.2c20.4-15,45.1-21.6,70.3-20.8c0.7,0,1.2-0.5,1.3-1.1c0.2-3.1,0.6-5.9,1.1-8.7
	c4.8-26.2,11-51.5,18.6-76.1c2.4-7.8,4.3-13.8,5.6-18c4.2-13.4,9.4-27.3,15.4-41.9c14.5-34.9,34.9-67.9,59.1-97.9
	c11.3-14.1,23.6-26,36.7-35.9c15.1-11.3,31.6-19,49.5-23.3c6.6-1.6,13.7-2.4,21.5-2.4c20.8-0.1,40.3,4.7,58.6,14.6
	c11.1,6,20.6,12.6,28.7,20c12.4,11.3,23.1,23.8,32.1,37.4c11.7,17.7,21.6,35.9,29.7,54.7c7,16.1,13.3,34,19.1,53.8
	c7.8,26.7,13.5,52.8,17,78.4c1.9,13.8,3.7,29,5.4,45.4c0,0.4,0.3,0.7,0.7,0.7c6.4,0.3,12.9,0.9,19.1,2.5c25,6.4,46.2,20.3,63.4,41.8
	c14.3,17.8,23.5,37.2,27.7,58.1c0.4,1.9,0.4,4.2,0.4,6.2c-0.1,8.1-6.3,15.9-15,13.4c-3-0.9-6-2-9.2-3.3c-3-1.3-6.7-2.3-11.2-3.1
	c-3.3-0.6-6.3-0.7-9.2-0.4c-33,3.4-44.6,37.7-49.9,65.4c-2.5,13-4.5,25-6.2,36.1c-2.2,15-5.4,30.2-9.5,45.6
	c-1.8,6.6-3.8,12.9-6.1,19c-11.1,29.1-26.5,55.4-46,78.8c-22.9,27.5-53.7,47-87.8,56.1c-0.5,0.1-0.7,0.4-0.7,0.9
	c0,7.8-2.3,15-7.1,21.7c-0.2,0.3-0.1,0.5,0.2,0.5c1.2,0,2.4,0,3.5,0c62,0,102.9-0.1,122.8-0.3C703.7,873.5,708.6,875.9,711.8,880.7z
	 M438.4,214.7c-1.1,8.4,0.7,16.4,5.4,24c-4.8-2.2-9.6-4.8-15-3.9c-7.8,1.3-13.2,5.4-17.6,11.6c-5.2,7.4-10,15.4-14.3,23.9
	c-7.9,15.6-14.8,29.4-18.2,45.2c-0.8,3.9-1,8-0.6,12.4c0,8.4,3.4,15.9,10.2,22.5c-7.6-1.8-14-0.3-19,4.5
	c-6.9,6.7-9.3,14.5-12.1,24.3c-5.2,17.9-9.2,35.7-11.9,53.5c-2,12.6-3.5,25.9-2.8,38.7c0.2,3.3,0.7,6.4,1.6,9.2
	c1.6,8.2,5.8,14.4,12.5,18.7c0.2,0.2,0.4,0.3,0.5,0.6c0.3,0.6,0.3,0.8-0.1,0.9c-6.7-2.5-13,0.6-17.6,5.3c-0.2,0.2-0.2,0.5,0,0.7
	c0,0,0.1,0.1,0.1,0.1l11.9,6.5c13.1,8.4,25,18.3,35.6,29.7c3.7,4.2,7.6,8.3,11,12.5c10.6,13.1,18.5,23.6,23.6,31.3
	c8.8,13.1,14.5,21.9,17.2,26.4c2.9,4.8,4.7,7.9,5.6,9.2l14.8,26.7c4.5,8.4,8.3,16.7,11.4,25.1c0.1,0.4,0.6,0.6,1,0.5
	c0.2-0.1,0.3-0.2,0.4-0.3l14.5-24.9l13.8-21.8c8-12.4,16.8-24.6,26.3-36.7c2.9-3.7,10-12.3,21-25.7c11.5-12.9,19.5-21.6,24.1-26
	c6.3-6.1,11.4-10.5,15.2-13.1c3.9-2.7,6.5-4.7,7.9-5.8c1.3-0.6,2.5-1.3,3.3-2c10.4-8.2,23.7-15.6,35.4-21.3
	c9.1-3.7,17.5-6.6,25.3-8.6c3.3-0.8,8.3-2,15.1-3.4c4.9-1,9.6-1.4,14.6-1.7c0.4,0,0.8-0.3,0.8-0.7c0.9-4.9,1.3-9.7,1.5-14.6
	c0.4-15.8-0.8-31-2-46.6c-0.7-9.3-2.2-18.8-3.4-28.3c-0.3-2.9-1.2-8.2-2.4-16c-2.1-12.9-8.7-26.3-23.9-25.2l-0.7,0.1
	c-0.3,0-0.6-0.2-0.7-0.5c0-0.2,0.1-0.4,0.2-0.5c6.3-6,10.1-12.4,10.4-21.4c0.3-9.1-1.5-17.6-4-26.1c-0.9-3.2-2.1-6.1-3.1-9.3
	c-4.5-15.5-10.6-29.9-18.1-43c-5-8.7-12.9-13.9-23.2-12.4c-1.1,0.2-2.3,0.3-3.7,0.4c2.6-4.2,4.1-8.4,4.5-12.5
	c0.6-5.5-0.1-10.7-1.9-15.8c-2.2-6.2-6.5-12.2-12.8-18c-10.4-11.3-21.5-18.8-33.8-25.3c-9.5-5-19.8-8.6-30.8-10.6
	c-2.3-0.4-5-0.6-8-0.5c-3.4-0.4-6.4-0.5-9-0.3c-27.7,1.9-53.4,17.7-73,37.1C445.2,198.9,440.3,205.9,438.4,214.7z M717.1,474.8
	l0,9.2c0,0.2,0.1,0.3,0.3,0.4l20.7,2.7c2,0.9,4.3,1.6,6.8,2.1c15.3,2.7,29.3,8.3,42,16.6c0.6,0.4,0.7,0.3,0.3-0.3
	c-8.1-11.8-18.5-22.7-30.4-31.1c-5.2-3.7-10.5-6.5-16-8.4c-7.6-2.7-15.3-4.5-23-5.5c-0.5-0.1-0.8,0.2-0.8,0.7L717.1,474.8z
	 M269.4,492.4c11.6-1.6,23.1-1.4,34.2,0.4c3.5,0.6,6.8,1.4,9.9,2.6c0.2,0.1,0.5,0,0.6-0.2c0,0,0-0.1,0-0.2l0.4-12.7l1.1-17.2
	c0.4-1.3,0.4-2.5,0.3-3.3c-0.1-0.3-0.3-0.5-0.6-0.5c-15.1-0.4-29.2,2.9-42.3,9.9c-6.8,3.6-12.1,7.1-16.1,10.6
	c-7.7,6.7-14.9,14.5-21.8,23.5c-0.4,0.5-0.3,0.6,0.2,0.2c6.4-4.4,13.4-7.8,21-10.2c1.9-0.6,4-1.1,6.5-1.6
	C265.1,493.4,267.3,493,269.4,492.4z M469.9,834c-0.4,3.7-0.8,7.5-1.1,11.2c-0.5,6.5,0.9,12.2,4.1,17.1c4.8,7.3,12.9,10,21.1,10.9
	c7.1,0.8,13.6,1,19.4,0.6c15.7,0.5,33.7-2,38.5-19.9c1.7-6.2,1.4-13-0.7-20.4c-0.5-1.6,0.4-2.5,2.6-2.8c5.1-0.8,11-2.3,17.6-4.5
	c7.8-2.6,13.3-4.6,16.5-6c29.4-12.4,54.6-34.3,72-60.5c12.1-18.1,22.4-36.9,29.2-56.8c2.5-7.4,4.2-12.8,5-16.1
	c2-8.6,4.2-19.2,6.6-31.6c0.8-4.1,1.9-10.6,3.3-19.7c2.1-13.3,4.7-26.5,7.7-39.7c3.6-17.7,11.5-33.9,23.8-48.6
	c5.9-7,11.8-12.2,17.6-15.5c5.4-3.1,11.8-4.9,17.8-6.3c0.9-0.2,0.9-0.5,0-0.8l-8.3-2.7c-10.8-4.3-21.5-7.3-32-9
	c-1.4-0.3-2.7-0.9-4.1-1.2c-38.6-8-78.8,2.6-110.7,25.4c-11.9,8.5-22.4,17.5-31.5,26.8c-6.6,6.8-14.1,15.1-22.5,24.7
	c-4.7,5.4-8.9,10.5-12.8,15.5c-25.9,33.3-48.3,68.3-67.4,104.9c-10.2,19.6-19.2,39.9-25,61.3c-5.3,19.6-5.8,42.6,7.7,59
	C465.9,831,467.6,832.5,469.9,834z M264.8,520.8c-1,0.2-2.2,0.5-3.6,0.8c-3.9,0.8-7.7,2.5-11.5,4c-0.6,0.2-0.6,0.4,0,0.6
	c1.3,0.3,2.6,0.5,3.8,0.9c18.4,7.2,31.5,21.3,40.1,39c5.7,11.8,9.9,23.8,12.3,36c3.2,15.5,6.2,32.4,8.9,50.7
	c1.3,8.4,2.7,16.1,4.1,23c7.1,33.4,20.9,63.7,41.4,90.9l0.9,0.9c11.6,17.2,26.2,31,43.8,41.5c8,4.8,16.8,8.3,25.3,12
	c0.6,0.3,0.8,0.1,0.5-0.5c-2.1-5.1-3.5-10.5-4.1-16.2c-0.7-6.4-0.6-13.8,0.4-22.1c2-12.4,4.5-22.3,7.4-29.7
	c3.1-7.8,6.2-15.5,9.3-23.2c2.8-7,6.1-13.5,9.8-19.7c0.6-1,0.6-2,0.3-3.1c-2-6.4-4.6-12.9-7.7-19.7c-4.8-11-9.9-22-15.5-33.1
	c-6.8-13.7-14.8-26.3-23.1-39.4c-13.7-21.4-29.1-40.9-46.3-58.6c-1.3-1.4-4-3.9-8.1-7.6c-8.2-7.5-17.7-14-28.6-19.8
	c-13.5-7.1-27.7-10.6-42.5-10.4c-4.8,0.1-7.8,0.2-8.9,0.3C270.4,518.6,267.5,519.4,264.8,520.8z"/>
<path class="st1" d="M533.5,156c2.8,1.9,5.8,3.5,9.2,4.5c-0.3,0.8-0.8,1.2-1.7,1.3c-7.1,0.6-14.2,2.1-21.3,4.5
	c-18,6.1-33.3,15.7-46,28.7c-4.9,5.1-7.9,9.8-9,14.2c-0.3,1.1-0.2,3.7,0.2,7.9c-2.6,2.8-6.6,4.7-10.2,5.8c-2.5,0.8-4.8,1.1-7,0.9
	c-5.7-0.5-8.8-3.5-9.3-9.1c1.9-8.8,6.8-15.8,13-22c19.6-19.3,45.4-35.1,73-37.1C527.1,155.5,530.1,155.6,533.5,156z"/>
<path class="st2" d="M533.5,156c3-0.1,5.7,0.1,8,0.5c11.1,2,21.3,5.6,30.8,10.6c12.2,6.5,23.3,14,33.8,25.3c-0.6,1.5-0.5,3,0.2,4.7
	c0.7,1.7,1.1,2.9,1.2,3.7c0.5,4.1,0.2,7.5-0.7,10.3c-2.6,8-7.8,12.8-15.8,14.4c-4.7,0.9-8.3,1.1-11,0.6c-3.8-0.7-7.1-3-9.9-6.9
	c0.4-1.4,0.9-3,1.4-4.8c3.6-13.1-0.9-28.1-9.1-38.4c-5.3-6.7-11.9-11.8-19.7-15.5C539.3,159.5,536.3,157.9,533.5,156z"/>
<path class="st3" d="M542.7,160.5c7.8,3.7,14.4,8.8,19.7,15.5c8.2,10.3,12.7,25.3,9.1,38.4c-0.5,1.8-1,3.4-1.4,4.8
	c-0.8,2.5-1.7,4.2-2.6,5.1c-3.7,2.8-7.2,4.7-10.5,5.7c-4.5,1.4-9.8,2.1-16,2.3c-13.8,0.4-26.9-0.3-40.5-1
	c-5.6-0.3-11.5-1.1-17.7-2.4c-6.9-1.4-14.2-4.6-17.3-10.9c-0.1-0.2-0.1-0.5-0.1-0.7c0-0.2,0-0.2-0.2-0.2l-0.3,0
	c-0.4-4.2-0.4-6.8-0.2-7.9c1.1-4.4,4.1-9.1,9-14.2c12.6-13,28-22.5,46-28.7c7.1-2.4,14.2-3.9,21.3-4.5
	C541.8,161.7,542.4,161.3,542.7,160.5z"/>
<path class="st4" d="M606.1,192.4c6.3,5.8,10.5,11.8,12.8,18c1.8,5.1,2.4,10.4,1.9,15.8c-0.4,4.1-1.9,8.3-4.5,12.5l-7.4,4.8
	c-3,0.9-5.8,2.5-8.5,3.2c-7.2,2-15.1,3.8-23.8,5.1c-4.7,0.8-7.9,3.4-9.5,7.9c-2.4-2.7-4.8-4.5-7.1-5.6c-3.3-1.5-7.8-2-13.3-1.6
	c4.9-3.6,7.9-6,9-7.2c5.5-5.7,9.6-12.2,12.3-19.6c0.1-0.3,0.1-0.6-0.1-0.8c-0.2-0.2-0.3-0.5-0.3-0.9c0.9-0.9,1.8-2.6,2.6-5.1
	c2.8,3.9,6.1,6.2,9.9,6.9c2.6,0.5,6.3,0.3,11-0.6c8-1.6,13.2-6.4,15.8-14.4c0.9-2.8,1.1-6.2,0.7-10.3c-0.1-0.8-0.5-2-1.2-3.7
	C605.5,195.4,605.5,193.9,606.1,192.4z"/>
<path class="st2" d="M438.4,214.7c0.5,5.6,3.5,8.6,9.3,9.1c2.2,0.2,4.6-0.1,7-0.9c3.6-1.2,7.6-3,10.2-5.8l0.3,0
	c0.2,0,0.2,0.1,0.2,0.2c0,0.2,0,0.5,0.1,0.7c3.1,6.3,10.4,9.5,17.3,10.9c6.2,1.3,12.1,2.1,17.7,2.4c13.5,0.7,26.7,1.4,40.5,1
	c6.2-0.2,11.5-1,16-2.3c3.4-1,6.9-2.9,10.5-5.7c0.1,0.4,0.2,0.6,0.3,0.9c0.2,0.3,0.2,0.6,0.1,0.8c-2.7,7.4-6.9,13.9-12.3,19.6
	c-1.1,1.1-4.1,3.5-9,7.2l-36.2,0.4c-3.7-0.8-7.1-1.1-10.1-0.8c-11.3-1.1-23.7-2.9-37.3-5.4c-4.7-0.8-8.4-1.9-11.1-3.1
	c-3.4-1.4-6.1-3.1-8.1-5.2C439.1,231.1,437.3,223.1,438.4,214.7z"/>
<path class="st1" d="M443.8,238.7c2,2.1,4.7,3.8,8.1,5.2c-1.7,0.6-3.5,0.8-5.4,0.7c-2.1-0.1-3.7,0-4.7,0.2
	c-9.4,2.3-17.7,11.2-23.2,19.4c-7.3,10.9-12.9,22.9-17,36.2c-2.2,7.1-2.3,16.5,0.6,23.7c-3.1,3.5-6.9,5.9-11.4,7.4
	c-5,1.7-9.2,0.4-12.7-3.7c-0.4-4.3-0.2-8.5,0.6-12.4c3.3-15.7,10.3-29.6,18.2-45.2c4.3-8.5,9.1-16.5,14.3-23.9
	c4.4-6.2,9.8-10.3,17.6-11.6C434.1,233.9,439,236.5,443.8,238.7z"/>
<path class="st5" d="M664.3,303.1c0.6,2.5,0.3,4.9-0.9,7.2c-0.2,0.3-0.2,0.7-0.2,1c0.1,3.4-0.9,6.6-3.1,9.5
	c-5.8,7.7-13,10.7-21.6,13.9c-3,1.1-6,1.6-9.1,2.4c-1.5,0.4-3.1,0.8-4.8,1c-1.6,0.2-3.2,0.4-4.8,0.6c2-4.7,3.3-9.3,3.9-13.8
	c1-8.5,1.6-17.7,1.5-27.4c0-11.3-1.7-23.3-4.2-34.1c-1.1-4.5-2.4-8.4-4-11.8c-1.6-3.4-4.3-6.1-8.2-8.1l7.4-4.8
	c1.4-0.1,2.6-0.3,3.7-0.4c10.3-1.6,18.2,3.6,23.2,12.4c7.6,13.1,13.6,27.5,18.1,43C662.1,296.9,663.4,299.9,664.3,303.1z"/>
<path class="st3" d="M451.9,243.9c2.7,1.2,6.4,2.2,11.1,3.1c13.6,2.5,26,4.3,37.3,5.4c-2.3,2.6-4.3,5.1-6.1,7.7
	c-1,1.5-1.4,2.7-1.2,3.8c0.3,1.6,1.3,2.8,2.9,3.6c5.5,2.5,11.1-4.5,13.7-8.5c1.2-1.8,1.4-3.7,0.7-5.7l36.2-0.4
	c5.5-0.4,10,0.1,13.3,1.6c2.3,1,4.7,2.9,7.1,5.6c2.8,3.1,4.4,6.8,5,11c1.8,13,0.4,25.6-2.4,38.8c-3.3,15.8-11,28-27.5,32.4
	c-4.4,1.2-9.9,1.9-16.3,2.1c-20.9,0.7-40.2,0.2-58-1.7c-10.1-1.1-16.8-1.8-20-2.2c-11.4-1.4-22.4-3.8-33.2-7.2
	c-5.1-1.6-9.2-4.7-12.5-9.1c-2.9-7.2-2.8-16.6-0.6-23.7c4-13.2,9.7-25.3,17-36.2c5.5-8.2,13.8-17.1,23.2-19.4c1-0.2,2.6-0.3,4.7-0.2
	C448.4,244.8,450.2,244.5,451.9,243.9z"/>
<path class="st2" d="M608.8,243.6c3.8,2,6.6,4.8,8.2,8.1c1.6,3.4,2.9,7.3,4,11.8c2.6,10.8,4.2,22.7,4.2,34.1
	c0,9.7-0.5,18.9-1.5,27.4c-0.5,4.5-1.8,9-3.9,13.8c-2.7,0.8-4.5,1.2-5.2,1.4c-5.8,1.2-15.5,2.3-29.3,3.3c-7.2,0.6-14.3-1.4-17.3-8.5
	c-0.2-0.4-0.4-0.4-0.7-0.2c-0.3,0.2-0.5,0.6-0.5,0.9c-0.9,5.6-3.1,10.6-6.5,15c-2.4,3.1-4.5,6.5-7.5,9.1c-2.2,2-4.5,3.8-6.8,5.4
	c-0.4,0.3-0.5,0.8-0.2,1.1c0.1,0.1,0.1,0.2,0.2,0.2c0,0,0.2,0.1,0.5,0.4c-1.3,0.8-2.6,0.1-3.7,0.1c-14.2,0.1-28.4,0.1-42.6,0.3
	l-8.3-0.2c-8-0.6-16-1.1-24-1.6c-5.7-0.3-12.2-1-19.3-2c-7.3-1-14.4-1.7-21.3-2.3l-8.7-2.2l-18-3.3l-12.3-5.2
	c-6.8-6.6-10.2-14.1-10.2-22.5c3.5,4.1,7.7,5.4,12.7,3.7c4.5-1.5,8.3-4,11.4-7.4c3.3,4.4,7.5,7.4,12.5,9.1
	c10.7,3.5,21.8,5.9,33.2,7.2c3.2,0.4,9.8,1.1,20,2.2c17.8,1.9,37.1,2.4,58,1.7c6.4-0.2,11.8-0.9,16.3-2.1
	c16.5-4.4,24.2-16.6,27.5-32.4c2.7-13.2,4.2-25.8,2.4-38.8c-0.6-4.3-2.3-7.9-5-11c1.6-4.5,4.7-7.2,9.5-7.9
	c8.7-1.4,16.7-3.1,23.8-5.1C603,246.1,605.8,244.5,608.8,243.6z"/>
<path class="st1" d="M510.4,253.2c0.7,2,0.4,3.9-0.7,5.7c-2.6,4-8.2,11-13.7,8.5c-1.6-0.7-2.6-1.9-2.9-3.6c-0.2-1.1,0.2-2.3,1.2-3.8
	c1.7-2.5,3.8-5.1,6.1-7.7C503.3,252.1,506.7,252.3,510.4,253.2z"/>
<path class="st4" d="M664.3,303.1c2.4,8.5,4.2,17,4,26.1c-0.3,9.1-4,15.5-10.4,21.4c-0.2,0.2-0.3,0.6,0,0.8c0.1,0.1,0.3,0.2,0.5,0.2
	l0.7-0.1c-4.3,1.2-8,2.7-11.1,4.6c-14.7,3.8-29.6,6.4-44.5,7.9c-5.7,0.6-11.3,1.2-17,1.8c-4.4,0.5-8,1.4-10.8,2.6
	c-2.8,1.2-5.7,3.4-8.6,6.6c-5.8-6.2-12.7-9-20.6-8.3c-0.3-0.2-0.5-0.3-0.5-0.4c-0.4-0.2-0.5-0.7-0.2-1.1c0.1-0.1,0.1-0.2,0.2-0.2
	c2.3-1.6,4.6-3.4,6.8-5.4c2.9-2.5,5-6,7.5-9.1c3.4-4.4,5.6-9.4,6.5-15c0.1-0.4,0.2-0.7,0.5-0.9c0.3-0.2,0.5-0.2,0.7,0.2
	c3,7.1,10.1,9,17.3,8.5c13.8-1.1,23.5-2.2,29.3-3.3c0.7-0.1,2.5-0.6,5.2-1.4c1.6-0.2,3.2-0.4,4.8-0.6c1.6-0.2,3.2-0.5,4.8-1
	c3.1-0.9,6.1-1.3,9.1-2.4c8.7-3.2,15.8-6.3,21.6-13.9c2.2-2.9,3.2-6.1,3.1-9.5c0-0.4,0.1-0.7,0.2-1
	C664.6,307.9,664.9,305.5,664.3,303.1z"/>
<path class="st1" d="M267,331.6c1.8,4.4,4.3,7.1,7.4,8.3c0.4,0.1,0.6,0.5,0.4,0.9c-0.1,0.2-0.2,0.3-0.4,0.4
	c-3.8,1.8-6.6,4.9-8.3,9.3c-0.3,0.7-0.5,0.7-0.8,0c-1.5-4.1-4.2-7.2-7.9-9.1c-0.4-0.2-0.6-0.7-0.3-1.1c0.1-0.2,0.2-0.3,0.4-0.4
	c4.5-1.8,5.7-4.4,8.1-8.3C266.2,330.7,266.7,330.7,267,331.6z"/>
<path class="st1" d="M388.3,350.3l12.3,5.2c-5.9,1.5-10.7,3.9-14.5,7.4c-4.9,4.5-9.2,13.3-11.6,19.8c-7.6,20.4-12.2,42.4-14,66
	c-0.3,4.4-0.2,8.2,0.3,11.4c0.6,3.8,1.6,7.5,2.8,11.2c0.3,0.9,1.1,2.1,1.2,3.4c-1.8,3.6-3.8,4.3-6.8,6c-4.9,2.9-9.2,3-14.1-0.4
	c-0.9-2.8-1.4-5.9-1.6-9.2c-0.7-12.8,0.8-26.1,2.8-38.7c2.8-17.7,6.8-35.5,11.9-53.5c2.8-9.8,5.2-17.6,12.1-24.3
	C374.3,350,380.6,348.5,388.3,350.3z"/>
<path class="st5" d="M659.1,351.5c15.2-1.1,21.8,12.3,23.9,25.2c1.3,7.8,2.1,13.1,2.4,16c1.2,9.6,2.6,19,3.4,28.3
	c1.2,15.6,2.4,30.9,2,46.6c-0.1,4.9-0.6,9.7-1.5,14.6c-0.1,0.4-0.4,0.7-0.8,0.7c-4.9,0.3-9.7,0.7-14.6,1.7
	c-6.8,1.4-11.9,2.6-15.1,3.4c-7.8,2-16.2,4.9-25.3,8.6c-0.6-1.6-0.8-3-0.7-4.1c0-0.1,0-0.2-0.1-0.2c-0.2-0.1-0.3-0.1-0.5,0.1
	c0,0,0,0-0.1,0c0,0,0,0,0,0l0.2-0.7c2.4-0.4,4.1-1.4,5.1-2.8c4.1-5.6,7.4-12.8,10-21.7c2.3-8,3.9-15,4.9-20.9
	c1.1-7.3,2.1-16.1,2.9-26.3c1.1-14.2,0.9-27.9-0.5-41.3c-0.3-2.5-0.8-5.8-1.6-9.9c-0.9-4.9-2.7-9.1-5.2-12.7
	C651.1,354.2,654.8,352.7,659.1,351.5z"/>
<path class="st6" d="M400.6,355.5l18,3.3c-2.8,0.4-4.8,1.8-5.9,4.2c-1.9,3.9,3,6.3,5.8,5.6c4.2-1.1,7.2-3.6,8.8-7.5
	c6.9,0.5,14,1.3,21.3,2.3c7.2,1,13.6,1.6,19.3,2c7.9,0.5,15.9,1,24,1.6c-3.4,3.2-6.5,6.4-6.2,11.2c0.3,4.1,4.3,6.1,7.6,3.6
	c3.2-2.4,5.8-5.4,7.6-9.2c0.7-1.4,0.4-3.2-0.9-5.4c14.2-0.1,28.4-0.2,42.6-0.3c1.1,0,2.4,0.7,3.7-0.1c7.9-0.7,14.8,2.1,20.6,8.3
	c1.3,1.7,2.3,3.1,3,4.3c3.7,6.1,3.5,14.2,3.1,21.2c-7.9,10.2-8.2,24.7,1.1,34.1c-0.7,12.3-1.6,21.8-5.3,33.1
	c-4.1,12.6-12.4,23.4-25.3,27.4c-11.1,3.4-22.1,3.5-34.5,3.4c-17-0.1-33.1-0.6-48.2-1.6c-9.3-0.6-22.4-2-39.2-4.2
	c-9.2-1.2-18.2-3.3-27.2-5.2c-5.1-1.1-10.4-2.5-15.9-4.2c-5.2-1.6-9.7-4.5-13.3-8.5c-0.3-0.3-0.4-0.3-0.6,0
	c-0.1-1.3-0.9-2.5-1.2-3.4c-1.3-3.7-2.2-7.4-2.8-11.2c-0.5-3.2-0.6-7.1-0.3-11.4c1.8-23.6,6.4-45.7,14-66
	c2.4-6.5,6.7-15.3,11.6-19.8C389.9,359.4,394.8,357,400.6,355.5z M431.9,441.9c13.3-0.1,24-11.4,23.9-25.2c0,0,0,0,0,0
	c-0.1-13.8-11-25-24.3-24.9c-13.3,0.1-24,11.4-23.9,25.2l0,0C407.7,430.9,418.6,442,431.9,441.9L431.9,441.9z M542.4,476.2
	c7.6-7.3,12.3-19.8,11.5-29.7c-0.9-11-12-16.1-20.1-7.4c-4.5,4.8-8.3,10.1-15.6,10.6c-5.4,0.4-10.6,0.4-15.7,0
	c-5.6-0.4-9.9-2.6-13.1-6.8c-1.9-2.6-3.8-4.6-5.6-6.1c-3.8-3.3-9.8-3-13.6,0.4c-5.6,5-6.2,13.3-4.3,20.6
	c4.6,17.5,20.3,29.9,38.2,31.4C519.2,490.5,532,486.2,542.4,476.2z"/>
<path class="st7" d="M648,356.1c2.5,3.5,4.2,7.7,5.2,12.7c0.8,4.1,1.3,7.4,1.6,9.9c1.4,13.4,1.5,27.1,0.5,41.3
	c-0.8,10.2-1.7,19-2.9,26.3c-0.9,5.9-2.6,12.9-4.9,20.9c-2.6,8.8-5.9,16.1-10,21.7c-1.1,1.5-2.8,2.4-5.1,2.8
	c-15.6,3.4-31.5,5.4-47.5,6c-4.3,0.1-7.4-0.2-9.3-1.2c-3.1-1.5-5.5-3.9-7.2-7.1c-0.9-1.6-1.5-1.5-1.9,0.3
	c-1.8,8.8-6.1,14.7-12.1,21.5c-1.8,2-3.8,3.7-6.1,5c-2,1.1-3.3,2.9-5.1,4.3c-0.6,0.5-0.5,0.7,0.2,0.8c10.1,0.9,17.6,5.6,22.8,14
	c0.2,0.3,0.4,0.4,0.7,0.4c0.4,0,0.6-0.2,0.5-0.6c-2.8-9.9,12.8-13.4,19.3-13.7c1.3-0.1,2.7-0.3,4.2-0.6c1.2-0.3,2.5-0.6,3.8-0.8
	c-1.3,1.1-4,3-7.9,5.8c-3.8,2.6-8.8,7-15.2,13.1c-4.5,4.4-12.6,13-24.1,26c1.5-7.2,2-14.1,1.3-20.6c-0.9-9.2-4.4-15.9-12.2-20.5
	c-2.2-1.3-4.9-2-8-2c-11,0-21.3,0.1-30.8,0.3c-1.5,0-3,0.2-4.4,0.5l-6.4-0.4c-8.5-0.4-17-0.8-25.4-1.2c-8.1-0.4-16.6-1.3-24.9-1.9
	c-2.1-0.2-4.4-0.4-7-0.9c-2.4-0.4-4.7-0.7-7-0.9c-3.2-1.3-6.5-1.9-9.8-1.9L398,513l-6.5-1.1l-20.4-5.5l-14.1-5.9
	c0.3,0,0.3-0.3,0.1-0.9c-0.1-0.2-0.3-0.4-0.5-0.6c-6.8-4.3-11-10.6-12.5-18.7c4.9,3.4,9.2,3.3,14.1,0.4c2.9-1.7,5-2.4,6.8-6
	c0.1-0.3,0.3-0.3,0.6,0c3.6,4,8.1,6.9,13.3,8.5c5.5,1.7,10.8,3.1,15.9,4.2c9.1,1.9,18.1,4,27.2,5.2c16.8,2.2,29.9,3.6,39.2,4.2
	c15.1,1,31.2,1.5,48.2,1.6c12.4,0.1,23.4,0,34.5-3.4c12.9-3.9,21.2-14.8,25.3-27.4c3.7-11.2,4.6-20.8,5.3-33.1
	c3.9,3.2,7,5.2,9.2,5.8c7.6,2.2,14.2,1.6,19.8-1.9c5.4-3.3,9-7.9,10.9-13.6c2.9-8.8,1.6-17-4.1-24.8c-4.8-6.6-14.5-9.2-22-8.3
	c-5.8,0.7-10.8,4.5-14.9,8.7c0.4-7,0.6-15.2-3.1-21.2c-0.7-1.2-1.7-2.6-3-4.3c2.9-3.2,5.8-5.4,8.6-6.6c2.8-1.2,6.4-2.1,10.8-2.6
	c5.7-0.6,11.3-1.3,17-1.8C618.4,362.6,633.2,359.9,648,356.1z"/>
<path class="st1" d="M418.6,358.9l8.7,2.2c-1.7,4-4.6,6.5-8.8,7.5c-2.8,0.7-7.7-1.7-5.8-5.6C413.9,360.6,415.9,359.3,418.6,358.9z"
	/>
<path class="st1" d="M492,366.9l8.3,0.2c1.3,2.2,1.5,4,0.9,5.4c-1.9,3.8-4.4,6.9-7.6,9.2c-3.3,2.5-7.4,0.5-7.6-3.6
	C485.5,373.3,488.5,370.1,492,366.9z"/>
<path class="st0" d="M574.4,434.7c-9.3-9.4-9.1-23.9-1.1-34.1c4.1-4.1,9.1-8,14.9-8.7c7.5-0.9,17.2,1.7,22,8.3
	c5.7,7.8,7.1,16.1,4.1,24.8c-1.9,5.7-5.6,10.3-10.9,13.6c-5.6,3.5-12.2,4.1-19.8,1.9C581.4,439.9,578.3,437.9,574.4,434.7z"/>
<ellipse transform="matrix(1 -6.981287e-03 6.981287e-03 1 -2.8998 3.0241)" class="st0" cx="431.7" cy="416.9" rx="24.1" ry="25"/>
<path class="st0" d="M553.9,446.5c0.8,9.9-3.9,22.5-11.5,29.7c-10.4,10-23.2,14.3-38.3,13c-17.9-1.5-33.6-13.9-38.2-31.4
	c-1.9-7.2-1.4-15.5,4.3-20.6c3.8-3.4,9.8-3.7,13.6-0.4c1.8,1.5,3.6,3.5,5.6,6.1c3.2,4.2,7.5,6.4,13.1,6.8c5.1,0.3,10.4,0.3,15.7,0
	c7.3-0.5,11.1-5.8,15.6-10.6C541.9,430.3,553,435.5,553.9,446.5z"/>
<path class="st8" d="M738.1,487c-5.5-5.9-12.5-9.9-21-12.2l0-13.8c0-0.5,0.3-0.8,0.8-0.7c7.7,0.9,15.4,2.8,23,5.5
	c5.4,1.9,10.7,4.7,16,8.4c11.9,8.4,22.3,19.3,30.4,31.1c0.4,0.6,0.3,0.7-0.3,0.3c-12.7-8.3-26.7-13.8-42-16.6
	C742.4,488.5,740.1,487.9,738.1,487z"/>
<path class="st1" d="M315.6,465.2c-7.7,1.3-14.9,4-21.7,8c-4.3,2.5-7.8,4.7-10.5,6.5c-2.8,1.9-5.5,4.5-8.1,7.7l-6.1,5
	c-2.1,0.5-4.3,1-6.6,1.4c-2.5,0.5-4.7,1-6.5,1.6c-7.6,2.3-14.6,5.7-21,10.2c-0.6,0.4-0.6,0.3-0.2-0.2c6.9-9,14.1-16.8,21.8-23.5
	c4-3.5,9.4-7,16.1-10.6c13.1-7,27.2-10.3,42.3-9.9c0.4,0,0.6,0.2,0.6,0.5C316.1,462.8,316,463.9,315.6,465.2z"/>
<path class="st6" d="M315.6,465.2l-1.1,17.2c-3.6-0.1-7,0-10.4,0.3c-4.6,0.4-9.1,1-13.6,1.8c-0.8,0.1-3.3,0.8-7.3,1.9
	c-2.5,0.7-5.1,1.1-7.8,1.1c2.6-3.2,5.3-5.8,8.1-7.7c2.7-1.8,6.2-4,10.5-6.5C300.8,469.2,308,466.6,315.6,465.2z"/>
<path class="st8" d="M717.1,474.8c8.5,2.3,15.5,6.3,21,12.2l-20.7-2.7c-0.2,0-0.3-0.2-0.3-0.4L717.1,474.8z"/>
<path class="st2" d="M314.6,482.4l-0.4,12.7c0,0.2-0.2,0.4-0.4,0.4c-0.1,0-0.1,0-0.2,0c-3.1-1.2-6.4-2.1-9.9-2.6
	c-11.2-1.8-22.6-2-34.2-0.4l6.1-5c2.7,0,5.3-0.4,7.8-1.1c4-1.1,6.5-1.8,7.3-1.9c4.5-0.8,9-1.3,13.6-1.8
	C307.5,482.4,311,482.3,314.6,482.4z"/>
<path class="st4" d="M632.3,491.8l-0.2,0.7c0,0,0,0,0,0c0,0,0,0,0,0c0.1-0.1,0.3-0.2,0.5-0.1c0.1,0.1,0.1,0.1,0.1,0.2
	c-0.1,1.2,0.1,2.6,0.7,4.1c-11.7,5.6-25,13.1-35.4,21.3c-0.9,0.7-2,1.4-3.3,2c-1.3,0.2-2.6,0.5-3.8,0.8c-1.4,0.4-2.8,0.6-4.2,0.6
	c-6.5,0.3-22.2,3.8-19.3,13.7c0.1,0.4,0,0.6-0.5,0.6c-0.3,0-0.6-0.2-0.7-0.4c-5.1-8.5-12.7-13.2-22.8-14c-0.8-0.1-0.8-0.3-0.2-0.8
	c1.8-1.4,3.1-3.1,5.1-4.3c2.3-1.3,4.3-3,6.1-5c6-6.8,10.3-12.6,12.1-21.5c0.4-1.8,1-1.9,1.9-0.3c1.8,3.2,4.2,5.6,7.2,7.1
	c1.9,0.9,5,1.3,9.3,1.2C600.8,497.2,616.6,495.2,632.3,491.8z"/>
<path class="st1" d="M357,500.5l14.1,5.9c0.2,0.6-0.2,1.1-1.1,1.5c-0.4,0.2-1,0.2-1.7,0.2c-4.2,0-7.1,0.2-8.6,0.6
	c-2,0.5-4.8,2-8.3,4.4l-11.9-6.5c-0.2-0.1-0.3-0.4-0.2-0.6c0,0,0-0.1,0.1-0.1C344.1,501.1,350.4,498,357,500.5z"/>
<path class="st9" d="M371.2,506.4l20.4,5.5c-1.5-0.1-2.7,0.2-3.5,0.9c-2.1,1.9-4.3,4.7-2.5,7.6c1.9,3.1,4.5,3.9,7.8,2.4
	c4-1.8,4.8-3.9,6.2-8.3c0.1-0.3,0-0.6-0.3-0.8L398,513l14.9,2.5c-1.5-0.3-2.9,0.6-3.1,2.1c-0.1,1.3-0.4,2.5-0.9,3.6
	c-0.3,0.7-0.3,1.4,0,2.2c0.4,1,1,1.6,1.8,1.7c4.9,0.7,8.9-1.9,12-7.7c2.3,0.2,4.7,0.5,7,0.9c2.6,0.4,5,0.7,7,0.9
	c8.3,0.6,16.9,1.5,24.9,1.9c8.4,0.4,16.9,0.8,25.4,1.2c-0.6,0.9-1.5,2-2.7,3.4c-2.5,2.9-6,9.3-0.9,12c1.6,0.8,3,0.6,4.3-0.6
	c1.9-1.9,4-4.4,6.3-7.5c1.5-2.2,1.5-5-0.5-6.9c1.4-0.3,2.9-0.4,4.4-0.5c9.5-0.3,19.7-0.4,30.8-0.3c3.1,0,5.8,0.7,8,2
	c7.8,4.5,11.2,11.2,12.2,20.5c0.7,6.6,0.2,13.4-1.3,20.6c-11.1,13.4-18.1,21.9-21,25.7c-9.5,12.1-18.3,24.3-26.3,36.7
	c-7.1-0.4-14.1-0.6-20.9-0.5c-0.6,0-1.2-0.1-1.8-0.4c-0.8-0.3-1.3-0.6-1.7-0.8c-6.9-5.7-13.5-11.2-19.8-17.5
	c-9.7-9.9-19.5-20-29.6-29.8c-8.5-8.2-17-16.4-25.6-24.6c-1.6-1.5-3.2-3-4.8-4.3c-1.7-1.5-3.3-2.9-4.7-4.5c-0.2-0.2-0.5-0.4-0.8-0.5
	c-0.6-0.2-1.2-0.5-1.7-0.8c-0.7-0.5-1.3-0.7-1.9-0.6c-10.6-11.5-22.5-21.4-35.6-29.7c3.5-2.4,6.3-3.9,8.3-4.4
	c1.6-0.4,4.4-0.6,8.6-0.6c0.7,0,1.2-0.1,1.7-0.2C371,507.5,371.3,507,371.2,506.4z"/>
<path class="st1" d="M730.8,513c0,0.2,0.1,0.3,0.3,0.3c0.2,0.1,0.3,0.2,0.1,0.4c-0.1,0.2-0.3,0.2-0.6,0.3c-4.1,0.2-7.3,0.5-9.7,0.9
	c-12.6,0.7-22.9,2.3-30.9,4.6c-13.5,4-28.2,10.5-44.2,19.6c-5.8,3.3-11.4,7-16.9,11c-7.3,5.4-13.6,10.3-18.7,14.7
	c-12.1,10.4-24.5,22.8-37.1,37.3c-7.8,9-15,18.5-22.2,27.9c-12.9,16.9-24.5,34.7-36.2,54c-8,13.1-16.5,29.6-25.7,49.5
	c-7.5,16.2-13.1,32.2-16.9,47.8c-4.2,17-4.9,34.6-2.1,52.8c-2.3-1.5-4.1-3.1-5.4-4.6c-13.5-16.4-12.9-39.4-7.7-59
	c5.7-21.3,14.8-41.6,25-61.3c19-36.7,41.5-71.7,67.4-104.9c3.9-5,8.1-10.1,12.8-15.5c8.4-9.6,15.9-17.9,22.5-24.7
	c9-9.3,19.5-18.2,31.5-26.8c31.9-22.8,72.1-33.4,110.7-25.4C728.1,512.1,729.4,512.7,730.8,513z"/>
<path class="st1" d="M391.6,511.9l6.5,1.1l1.3,0.9c0.3,0.2,0.4,0.5,0.3,0.8c-1.5,4.4-2.2,6.5-6.2,8.3c-3.3,1.4-5.9,0.6-7.8-2.4
	c-1.8-2.9,0.4-5.8,2.5-7.6C388.9,512.1,390.1,511.8,391.6,511.9z"/>
<path class="st10" d="M730.8,513c10.5,1.7,21.2,4.8,32,9c-3.8,1.4-7.9,2.5-12.5,3.5c-1.2,0.2-2.2,0.8-3.2,1.8
	c-0.3,0.3-0.6,0.4-0.9,0.5c-1.3,0.2-2.6,0.7-3.8,1.4c-1.3,0.7-2.6,0.7-3.8,1.4c-2.8,1.6-5.6,3.2-8.3,4.7c-2.9,1.7-5.6,3.4-7.9,5.2
	c-13.3,10.3-25.1,22.2-35.3,35.6c-5.3,7-9.8,15-14.5,22.6c-3.7,6.1-7.1,12.4-10.2,19c-4.3,9.1-8.3,18.2-12,27.2l-2.3,1.7
	c-0.3,0.2-0.5,0.5-0.6,0.8l-0.6,2.1c-0.1,0.2-0.2,0.4-0.4,0.6c-0.5,0.4-0.8,0.9-0.9,1.5c-0.1,0.4-0.3,0.7-0.6,0.9
	c-0.2,0.1-0.3,0.3-0.3,0.6c0,0.4-0.1,0.7-0.4,1l-1,1c-0.2,0.2-0.3,0.5-0.3,0.8c0,0.4-0.1,0.8-0.5,1.1c-0.2,0.2-0.3,0.4-0.3,0.7
	c0.1,1.9-0.7,3.4-2.3,4.6c-0.3,0.2-0.4,0.4-0.4,0.7c0,0,0,0.1,0,0.1c0.3,0.4,0.1,0.7-0.4,0.8c-0.7,0.1-1.1,0.6-1.1,1.3
	c0,0.3-0.1,0.6-0.3,0.8c-0.8,0.9-1.6,1.8-2.2,2.8c-0.9,1.6-1.6,2.6-1.9,3c-1.1,1.5-2.3,3.1-3.5,4.7c-0.7,0.9-1.4,1.6-2.3,2.2
	c-0.9,0.6-1.7,1.2-2.5,1.8c-1.2,0.9-2.5,1.8-4.1,2.5c-2,1-3.9,2-5.8,3c-0.3,0.2-0.6,0.3-0.9,0.3c-0.8,0.1-1.4,0.5-1.9,1.2
	c-0.1,0.1-0.2,0.2-0.3,0.2c-0.1,0-0.2,0-0.4,0c-0.4-0.1-0.6,0.1-0.5,0.5c0.1,0.3,0,0.5-0.3,0.7c-0.7,0.4-1.6,0.5-2.2,0.2
	c-0.4-0.2-0.7-0.1-1,0.2c-0.9,1.1-1.7,1.7-2.2,3.1c-0.1,0.3-0.3,0.6-0.6,0.8c-0.6,0.5-0.9,1.2-0.8,2c0,0.3-0.1,0.7-0.2,0.9
	c-0.8,1.3-1.4,2.6-1.7,4.1c-0.4,1.7-1.4,3-1.7,4.8c-0.1,0.8-0.5,1.6-1.1,2.2c-0.3,0.3-0.4,0.6-0.4,1c0,0.6-0.2,1-0.7,1.2
	c-0.3,0.2-0.5,0.4-0.6,0.8c-0.7,3.7-1.8,7.1-3.4,10.1c-0.8,1.6-1.3,3.2-1.6,4.9c-0.3,1.9-0.9,3.5-2,4.9c-1.3,1.8-2.1,4-3,6
	c-0.7,1.5-1.2,3.1-1.6,4.6c-0.4,1.6-1.2,3.1-2.4,4.5c-0.5,0.6-0.8,1.1-0.8,1.4c-0.1,0.7-0.3,1.4-0.7,2.1c-1.4,2.4-2.5,4.6-3.5,6.6
	c-0.2,0.3-0.4,0.6-0.8,0.7c-0.4,0.2-0.6,0.3-0.7,0.6c-1.6,2.9-3.8,5.3-6.5,7.2c7.9-14.1,14.5-28.1,20-41.9
	c5.4-13.7,9.7-24.5,12.9-32.4c2.5-6.3,4.9-12.5,7.3-18.6c9.4-24.5,19.3-47.4,29.7-68.5c9.5-19.4,20.5-36.4,32.9-51.1
	c7.7-9.1,16.5-17.3,26.5-24.8c2.7-2,6.1-4.1,10.1-6.2c3.4-1.8,6.9-3.6,10.4-5.4c2.4-0.4,5.7-0.7,9.7-0.9c0.3,0,0.5-0.1,0.6-0.3
	c0.1-0.2,0.1-0.3-0.1-0.4C730.9,513.2,730.8,513.1,730.8,513z"/>
<path class="st11" d="M720.9,514.9c-3.5,1.8-7,3.6-10.4,5.4c-4,2.1-7.3,4.1-10.1,6.2c-10,7.5-18.9,15.7-26.5,24.8
	C661.5,566,650.5,583,641,602.4c-10.4,21.2-20.3,44-29.7,68.5c-2.4,6.1-4.8,12.3-7.3,18.6c-3.2,7.9-7.5,18.7-12.9,32.4
	c-5.4,13.8-12.1,27.7-20,41.9c-9.7,16.9-21.7,31.9-35.9,45.2c-10.6,9.9-21.6,17.1-34.4,23.4c-0.4,0.2-0.5,0.6-0.3,1
	c0.1,0.1,0.1,0.2,0.2,0.3c2.3,1.6,4.5,3.4,6.7,5.4c7.7,6.8,10.8,16.2,8.9,26.4c-0.3,1.6-1.3,4.5-2.9,8.5c-5.8,0.4-12.3,0.2-19.4-0.6
	c-8.2-0.9-16.4-3.7-21.1-10.9c-3.2-4.9-4.6-10.7-4.1-17.1c0.3-3.8,0.7-7.5,1.1-11.2c-2.8-18.2-2.1-35.8,2.1-52.8
	c3.8-15.6,9.5-31.6,16.9-47.8c9.2-20,17.7-36.5,25.7-49.5c11.8-19.3,23.3-37.1,36.2-54c7.2-9.5,14.4-19,22.2-27.9
	c12.6-14.4,25-26.9,37.1-37.3c5.1-4.4,11.4-9.3,18.7-14.7c5.5-4,11.1-7.7,16.9-11c15.9-9.1,30.6-15.6,44.2-19.6
	C698,517.1,708.3,515.6,720.9,514.9z"/>
<path class="st1" d="M412.9,515.5c3.3,0,6.6,0.6,9.8,1.9c-3.1,5.8-7.1,8.4-12,7.7c-0.8-0.1-1.3-0.7-1.8-1.7c-0.3-0.7-0.3-1.5,0-2.2
	c0.5-1.1,0.8-2.3,0.9-3.6C410,516.1,411.4,515.2,412.9,515.5z"/>
<path class="st11" d="M353.4,548.2c0.1,0.7,0.4,1.4,1.1,2c0.3,0.2,0.4,0.5,0.5,0.9l0.3,1.5c0,0.2,0.2,0.4,0.4,0.4
	c0.1,0,0.2,0.1,0.3,0.2c3.1,4.8,5.6,9.3,7.7,13.5c10.3,21.4,20,43.3,27.3,63.2c7.9,21.4,15.9,43.9,23.9,67.7
	c3.7,10.8,7.8,21.4,12.4,31.8c-5.8,8.8-12.3,16.8-19.6,24c0-0.2,0-0.3,0-0.4c0,0-0.1-0.1-0.2-0.3c-1.5-1.7-2.9-3.7-4.1-6.1
	c-4.3-8.1-7.8-15.8-10.5-23c-2.8-7.4-5.5-14.6-8.1-21.6c-3.4-9.2-6.4-18.9-9.4-28.3c-1.3-4-2.1-8-3.7-11.8c-1.4-3.2-2.5-6.1-3.4-8.6
	c-2.5-7.4-5.2-15-7.9-22.9c-3.8-11-8.3-21-12.7-31.5c-1.4-3.4-3.3-6.5-4.9-9.8c-1.2-2.5-2.4-4.9-3.8-7.2c-5.6-9.6-11.7-18-18.2-25.3
	c-6.3-7-11.8-12.3-16.5-15.8c-3.2-2.4-6.3-4.8-9.5-7.3c-1.9-1.5-5.2-3.2-9.8-4.9c-1.3-0.6-3-1.7-5.4-3.2c-1.7-1.1-3.6-2-5.7-2.7
	c-0.7-0.2-2.2-0.5-4.5-0.7c-1.4-0.1-2.9-0.5-4.5-1c2.7-1.4,5.6-2.2,8.6-2.5c1.1-0.1,4.1-0.2,8.9-0.3c14.8-0.2,29,3.3,42.5,10.4
	C335.6,534.1,345.1,540.7,353.4,548.2z"/>
<path class="st1" d="M264.8,520.8c1.6,0.5,3.1,0.9,4.5,1c2.3,0.2,3.8,0.4,4.5,0.7c2.1,0.7,4.1,1.6,5.7,2.7c2.3,1.5,4.1,2.6,5.4,3.2
	c0.8,1.3,2.3,3.1,4.5,5.4c1.8,1.9,4.1,5.2,6.7,10c5.3,9.5,10.4,18.9,14.4,29.4c3.9,10.2,7.1,21.3,9.7,33.2
	c3.6,16.3,6.4,31.5,8.5,45.5c1.5,9.8,3.4,19.3,5.1,29c1.1,6.5,2.3,12.5,3.6,18c1.5,6.4,2.9,12.4,4.4,17.8
	c2.3,8.7,5.8,19.1,10.5,31.2c2.4,6.2,5.3,12,8.7,17.6c0.2,0.3,0.2,0.7,0.1,1c-0.1,0.2-0.3,0.3-0.7,0.3
	c-20.5-27.2-34.3-57.5-41.4-90.9c-1.5-6.9-2.9-14.6-4.1-23c-2.8-18.3-5.8-35.2-8.9-50.7c-2.5-12.1-6.6-24.1-12.3-36
	c-8.6-17.7-21.7-31.8-40.1-39c-1.2-0.5-2.5-0.6-3.8-0.9c-0.6-0.2-0.7-0.4,0-0.6c3.7-1.5,7.6-3.2,11.5-4
	C262.6,521.3,263.8,521,264.8,520.8z"/>
<path class="st8" d="M762.8,522l8.3,2.7c0.9,0.3,0.9,0.6,0,0.8c-6,1.4-12.3,3.3-17.8,6.3c-5.8,3.3-11.7,8.5-17.6,15.5
	c-12.3,14.7-20.2,30.9-23.8,48.6c-3.5,2.7-5.9,6.3-7.3,10.7c-0.4,1.3-0.8,2.3-1.1,3.1c-1.1,2.6-2.1,4.9-2.8,7.7
	c-1,4-2.5,8.1-2.9,12.2c-0.1,1.2-0.4,2.3-0.7,3.4c-0.8,2.4-1.4,4.8-1.9,7.2c-0.5,2.4-2,5.2-2.3,7.2c-1.3,8.6-3.5,16.9-6.4,25
	c-2,5.3-2.7,10.8-4.5,16.3c-2.6,8.2-6,15.9-10.1,23.2c-1.4,2.5-3.2,4.9-5.4,7.3c-2.2,2.3-3.7,5-5.9,7.1
	c-7.7,7.2-16.1,12.3-25.1,15.4c-3,1-5.8,1.6-8.6,1.8c-2.9,0.2-5.7,0.5-8.5,0.9c-1,0.1-2,0.2-3.1,0.2c-1,0-2,0-3,0.1
	c2.9-6.8,4.9-11.7,6-14.6c8.3-22.4,16.7-44.8,25.2-67.2c2.2-5.8,4.6-11.8,7.2-18c3.7-9,7.7-18,12-27.2c3.1-6.6,6.5-12.9,10.2-19
	c4.6-7.6,9.2-15.6,14.5-22.6c10.2-13.4,22-25.3,35.3-35.6c2.4-1.8,5-3.6,7.9-5.2c2.7-1.5,5.4-3.1,8.3-4.7c1.3-0.7,2.6-0.7,3.8-1.4
	c1.2-0.7,2.5-1.1,3.8-1.4c0.4-0.1,0.7-0.2,0.9-0.5c0.9-1,2-1.5,3.2-1.8C754.8,524.5,759,523.4,762.8,522z"/>
<path class="st1" d="M487.1,522.2l6.4,0.4c2,1.9,2.1,4.8,0.5,6.9c-2.3,3.2-4.4,5.7-6.3,7.5c-1.3,1.2-2.7,1.4-4.3,0.6
	c-5.1-2.7-1.6-9.2,0.9-12C485.6,524.3,486.5,523.1,487.1,522.2z"/>
<path class="st12" d="M285,528.4c4.6,1.7,7.8,3.4,9.8,4.9c3.1,2.5,6.3,5,9.5,7.3c4.7,3.5,10.2,8.8,16.5,15.8
	c6.5,7.2,12.6,15.7,18.2,25.3c1.4,2.4,2.7,4.8,3.8,7.2c1.6,3.3,3.4,6.4,4.9,9.8c4.5,10.5,8.9,20.5,12.7,31.5
	c2.7,7.8,5.4,15.5,7.9,22.9c0.9,2.5,2,5.4,3.4,8.6c1.6,3.8,2.4,7.9,3.7,11.8c3,9.5,6,19.1,9.4,28.3c2.6,7,5.3,14.2,8.1,21.6
	c2.7,7.2,6.2,14.9,10.5,23c1.2,2.4,2.6,4.4,4.1,6.1c0.1,0.2,0.2,0.3,0.2,0.3c0,0.1,0,0.2,0,0.4c-0.4-0.5-0.5-0.4-0.3,0.1
	c-8.8,8.8-19.3,13.8-31.5,15c-4.5,0.5-8.9-0.5-13.2-1.5c-0.3-0.1-0.6,0-0.8,0.2l-0.4,0.3l-0.9-0.9c0.4,0,0.6-0.1,0.7-0.3
	c0.1-0.3,0.1-0.7-0.1-1c-3.5-5.6-6.4-11.5-8.7-17.6c-4.7-12.1-8.2-22.5-10.5-31.2c-1.5-5.4-2.9-11.4-4.4-17.8
	c-1.3-5.5-2.4-11.5-3.6-18c-1.7-9.6-3.6-19.2-5.1-29c-2.1-14.1-5-29.3-8.5-45.5c-2.6-11.9-5.8-22.9-9.7-33.2
	c-3.9-10.5-9.1-19.9-14.4-29.4c-2.7-4.7-4.9-8.1-6.7-10C287.3,531.5,285.8,529.7,285,528.4z"/>
<path class="st2" d="M387,542.8c0.6-0.1,1.2,0.1,1.9,0.6c0.5,0.4,1.1,0.7,1.7,0.8c0.3,0.1,0.6,0.3,0.8,0.5c1.4,1.5,3,3,4.7,4.5
	c1.6,1.4,3.3,2.8,4.8,4.3c8.6,8.2,17.1,16.5,25.6,24.6c10.1,9.8,19.9,20,29.6,29.8c6.3,6.4,12.9,11.8,19.8,17.5
	c-1.8,0.8-4.5,0.9-8.2,0.3c-7.5-1.2-15.3-2.4-23.3-3.7c-0.9-1.3-2.8-4.4-5.6-9.2c-2.7-4.5-8.4-13.3-17.2-26.4
	c-5.2-7.7-13-18.1-23.6-31.3C394.7,551.2,390.7,547,387,542.8z"/>
<path class="st10" d="M353.4,548.2c4.1,3.7,6.8,6.2,8.1,7.6c17.2,17.7,32.7,37.2,46.3,58.6c8.4,13.1,16.3,25.7,23.1,39.4
	c5.5,11.1,10.7,22.1,15.5,33.1c-1.4,3.5-2.7,7-3.8,10.5c-0.6,1.9-1.2,3.9-2,5.8c-0.7,2-1.4,3.9-2.2,5.7c-1.7,4.1-4.1,8.9-7.4,14.5
	c-0.5,0.9-1.1,1.9-1.6,2.9c-0.6,1.1-1.4,2.1-2.3,3.1c-4.6-10.3-8.7-20.9-12.4-31.8c-8-23.8-16-46.3-23.9-67.7
	c-7.4-19.9-17.1-41.8-27.3-63.2c-2-4.2-4.6-8.7-7.7-13.5c-0.1-0.1-0.1-0.2-0.3-0.2c-0.2,0-0.4-0.1-0.4-0.4l-0.3-1.5
	c-0.1-0.3-0.2-0.6-0.5-0.9C353.8,549.6,353.4,548.9,353.4,548.2z"/>
<path class="st8" d="M711.8,596c-3,13.2-5.6,26.4-7.7,39.7c-1.5,9.1-2.6,15.7-3.3,19.7c-2.3,12.5-4.5,23-6.6,31.6
	c-0.8,3.3-2.4,8.6-5,16.1c-6.8,19.9-17,38.7-29.2,56.8c-17.5,26.2-42.6,48.1-72,60.5c-3.2,1.3-8.7,3.3-16.5,6
	c-6.6,2.2-12.5,3.8-17.6,4.5c1.9-1.7,3.7-3.4,5.6-4.9c2.2-1.8,4.1-3.5,5.4-5c6.6-7.1,12.8-14.6,18.6-22.4
	c5.1-6.8,8.2-12.8,12.5-20.8c5.8-10.8,10.8-22,15.9-33.1c1.1-0.1,2.1-0.1,3-0.1c1.1,0,2.1,0,3.1-0.2c2.8-0.4,5.6-0.7,8.5-0.9
	c2.8-0.2,5.6-0.8,8.6-1.8c9.1-3.1,17.5-8.2,25.1-15.4c2.3-2.1,3.8-4.8,5.9-7.1c2.3-2.4,4.1-4.8,5.4-7.3c4.1-7.3,7.5-15,10.1-23.2
	c1.8-5.5,2.5-11,4.5-16.3c3-8.1,5.1-16.5,6.4-25c0.3-2,1.8-4.7,2.3-7.2c0.5-2.5,1.2-4.9,1.9-7.2c0.3-1.1,0.6-2.2,0.7-3.4
	c0.5-4.1,1.9-8.2,2.9-12.2c0.7-2.8,1.7-5.1,2.8-7.7c0.3-0.7,0.7-1.8,1.1-3.1C705.8,602.2,708.3,598.7,711.8,596z"/>
<path class="st5" d="M476,625.6c0.4,0.2,0.9,0.5,1.7,0.8c0.6,0.2,1.1,0.4,1.8,0.4c6.8-0.1,13.7,0.1,20.9,0.5l-13.8,21.8l-27.3-0.3
	l-14.8-26.7c8,1.3,15.8,2.5,23.3,3.7C471.4,626.4,474.2,626.3,476,625.6z"/>
<path class="st8" d="M650.4,644.9c-2.5,6.1-4.9,12.1-7.2,18c-8.5,22.4-16.9,44.7-25.2,67.2c-1.1,2.9-3.1,7.8-6,14.6
	c-5.1,11.1-10.1,22.4-15.9,33.1c-4.3,8.1-7.4,14.1-12.5,20.8c-5.9,7.8-12.1,15.2-18.6,22.4c-1.4,1.5-3.2,3.2-5.4,5
	c-1.8,1.5-3.7,3.2-5.6,4.9c-2.2,0.3-3.1,1.2-2.6,2.8c2.2,7.4,2.4,14.2,0.7,20.4c-4.8,17.9-22.8,20.4-38.5,19.9
	c1.6-4.1,2.6-6.9,2.9-8.5c1.9-10.3-1.2-19.6-8.9-26.4c-2.2-1.9-4.4-3.7-6.7-5.4c-0.3-0.2-0.4-0.7-0.2-1c0.1-0.1,0.2-0.2,0.3-0.2
	c12.8-6.3,23.8-13.5,34.4-23.4c14.2-13.3,26.1-28.3,35.9-45.2c2.8-1.8,5-4.2,6.5-7.2c0.1-0.2,0.4-0.4,0.7-0.6
	c0.3-0.2,0.6-0.4,0.8-0.7c0.9-2,2.1-4.2,3.5-6.6c0.4-0.7,0.6-1.4,0.7-2.1c0-0.4,0.3-0.8,0.8-1.4c1.2-1.4,2-2.9,2.4-4.5
	c0.4-1.6,0.9-3.1,1.6-4.6c0.9-2,1.6-4.2,3-6c1-1.4,1.7-3,2-4.9c0.3-1.7,0.8-3.3,1.6-4.9c1.5-3,2.7-6.4,3.4-10.1
	c0.1-0.4,0.3-0.6,0.6-0.8c0.5-0.3,0.7-0.7,0.7-1.2c0-0.4,0.1-0.7,0.4-1c0.6-0.7,1-1.4,1.1-2.2c0.3-1.8,1.3-3.1,1.7-4.8
	c0.3-1.5,0.9-2.9,1.7-4.1c0.2-0.3,0.3-0.6,0.2-0.9c-0.1-0.8,0.2-1.5,0.8-2c0.3-0.2,0.4-0.5,0.6-0.8c0.5-1.4,1.3-2,2.2-3.1
	c0.3-0.3,0.6-0.4,1-0.2c0.7,0.3,1.5,0.2,2.2-0.2c0.3-0.2,0.4-0.4,0.3-0.7c-0.1-0.4,0-0.6,0.5-0.5c0.1,0,0.2,0,0.4,0
	c0.1,0,0.2-0.1,0.3-0.2c0.5-0.7,1.1-1,1.9-1.2c0.3,0,0.6-0.1,0.9-0.3c1.8-1.1,3.7-2.1,5.8-3c1.6-0.8,3-1.6,4.1-2.5
	c0.8-0.6,1.6-1.2,2.5-1.8c0.8-0.6,1.6-1.3,2.3-2.2c1.2-1.6,2.4-3.1,3.5-4.7c0.3-0.4,0.9-1.4,1.9-3c0.6-1,1.3-2,2.2-2.8
	c0.2-0.2,0.3-0.5,0.3-0.8c0-0.7,0.3-1.1,1.1-1.3c0.5-0.1,0.7-0.3,0.4-0.8c0,0,0-0.1,0-0.1c0-0.3,0.1-0.5,0.4-0.7
	c1.6-1.1,2.4-2.6,2.3-4.6c0-0.3,0.1-0.5,0.3-0.7c0.3-0.3,0.5-0.6,0.5-1.1c0-0.3,0.1-0.6,0.3-0.8l1-1c0.3-0.3,0.4-0.6,0.4-1
	c0-0.3,0.1-0.5,0.3-0.6c0.3-0.2,0.6-0.6,0.6-0.9c0.1-0.6,0.4-1.1,0.9-1.5c0.2-0.2,0.3-0.4,0.4-0.6l0.6-2.1c0.1-0.3,0.3-0.6,0.6-0.8
	L650.4,644.9z"/>
<path class="st7" d="M486.5,649.1L472,674c-0.2,0.4-0.7,0.5-1,0.3c-0.2-0.1-0.3-0.2-0.3-0.4c-3.1-8.4-6.9-16.7-11.4-25.1
	L486.5,649.1z"/>
<path class="st8" d="M446.4,686.8c3.1,6.7,5.7,13.3,7.7,19.7c0.3,1.1,0.3,2.1-0.3,3.1c-3.7,6.2-6.9,12.7-9.8,19.7
	c-3.1,7.6-6.2,15.4-9.3,23.2c-2.9,7.4-5.4,17.2-7.4,29.7c-3.2-4.2-6.2-8.1-9-11.9c-3.9-5.1-7.3-10.5-10.3-16.1
	c-0.1-0.1-0.2-0.3-0.3-0.4c-0.1-0.1-0.3-0.2-0.4-0.3c-0.2-0.5-0.1-0.6,0.3-0.1c7.3-7.2,13.8-15.2,19.6-24c0.9-1,1.7-2,2.3-3.1
	c0.5-1,1.1-1.9,1.6-2.9c3.3-5.6,5.8-10.4,7.4-14.5c0.7-1.8,1.5-3.7,2.2-5.7c0.7-1.9,1.4-3.9,2-5.8
	C443.7,693.8,445,690.3,446.4,686.8z"/>
<path class="st7" d="M407.3,753.4c0.1,0.1,0.2,0.2,0.4,0.3c0.1,0.1,0.2,0.2,0.3,0.4c3,5.7,6.4,11,10.3,16.1c2.9,3.8,5.9,7.7,9,11.9
	c-1,8.3-1.1,15.7-0.4,22.1c0.6,5.7,2,11,4.1,16.2c0.2,0.6,0.1,0.8-0.5,0.5c-8.5-3.6-17.3-7.2-25.3-12
	c-17.6-10.5-32.1-24.3-43.8-41.5l0.4-0.3c0.2-0.2,0.5-0.3,0.8-0.2c4.4,1,8.8,1.9,13.2,1.5C388,767.2,398.5,762.1,407.3,753.4z"/>
<path class="st13" d="M311.7,880.5c-1.7,7.6,0.3,12.7,6,15.2c2.1,1,5.2,1.4,9.3,1.4c59.9,0,97.4,0.1,112.7,0.2
	c38.5,0.3,76.4,0.4,113.7,0.3c3.2,0,6.3,0,9.5,0c36.5-0.2,73-0.3,109.5-0.5c1.3,0,2.6-0.1,3.9-0.2c2.2-0.2,4.3,0.3,6.5,0.2
	c6.4-0.4,12.5-0.3,18.2,0.1c1.3,0.1,2.6-0.2,3.8-0.8c6.4-3.2,8.7-8.5,6.9-15.8c5.5-0.6,12.1-0.9,19.9-0.9c8.5,0,13.6,6.5,11.8,14.7
	c-1,4.5-3.3,7.5-7,9.1c-2.6,1.2-5.9,2.1-9.9,2.7c-8.1,1.4-15.4,2.2-21.9,2.5c-2.4,0.1-4.6,0.3-6.7,0.5c-2.2,0.3-4.4,0.4-6.6,0.5
	c-7.5,0.4-15.1,0.8-22.7,1.5c-1.6,0.1-3.3,0.2-5,0.1c-2.2-0.1-4.4,0.4-6.7,0.4c-4.9,0.1-9.8,0.3-14.9,0.6c-10,0.5-20.5,0.3-30.5,0.9
	c-4.7,0.3-9.3,0.1-13.9,0.3c-3.2,0.1-6.4,0.1-9.7,0.1c-4.3,0-8.7,0.4-12.9,0.4c-15.4,0.2-30.7,0.2-45.8,0.3c-4.1,0-8.3,0.2-12.4,0.1
	c-3.9-0.1-7.8-0.1-11.7,0c-10.7,0.2-26.8,0.1-48.2-0.4c-5.8-0.1-11.6,0.3-17.2-0.2c-1.8-0.2-3.5-0.2-5.2,0c-4,0.4-7.9-0.6-11.8,0
	c-2.5,0.4-5.2-0.4-7.9-0.4c-4.1,0.1-8.4,0-12.7-0.3c-3.3-0.2-6.5,0.3-9.7,0c-8.2-0.9-16.3-0.7-24.4-1.3c-5-0.4-10.2-0.4-15.3-0.8
	c-5.7-0.4-12.7-0.8-21.2-1.2c-5.9-0.3-12.2-0.8-18.6-1.4c-5.8-0.6-11.1-0.4-16.7-2.2c-1.3-0.4-2.8-0.7-4.3-0.8
	c-2.8-0.2-5.3-1.2-7.5-2.8c-5.8-4.2-7.3-9.5-4.5-16c1.6-3.8,4.6-6,9.1-6.8C295.5,878.7,303,879,311.7,880.5z"/>
</svg>
