<?xml version="1.0" encoding="utf-8"?>
<!-- Generator: Adobe Illustrator 28.1.0, SVG Export Plug-In . SVG Version: 6.00 Build 0)  -->
<svg version="1.1" id="Calque_1" xmlns="http://www.w3.org/2000/svg" xmlns:xlink="http://www.w3.org/1999/xlink" x="0px" y="0px"
	 viewBox="0 0 1024 1024" style="enable-background:new 0 0 1024 1024;" xml:space="preserve">
<style type="text/css">
	.st0{fill:#4B3930;}
	.st1{fill:#683D2A;}
	.st2{fill:#A95A35;}
	.st3{fill:#FFFFFF;}
	.st4{fill:#FFFEFB;}
</style>
<path class="st0" d="M410.8,539.8c-0.3,0.1-0.5,0.3-0.7,0.6c-7.9,9-16,18.1-24.3,27.3c-7.1,7.8-15.3,12.5-25.9,13.6
	c-14.4,1.5-26-3.5-34.7-14.9c-4.3-5.6-6.7-12-7.2-19.2c-0.8-12.2,2.5-22.6,10-31.4c17.6-20.6,35.4-41.3,53.3-61.9
	c3.6-4.1,7-8.7,10.5-12.7c10-11.6,19.7-22.8,29.2-33.6c0.4-0.5,0.4-0.9,0-1.3c-11-11.3-19.8-23.5-26.3-36.5
	c-6.5-12.9-11.2-26.6-14.2-41.2c-1.3-6.3-2-12.9-2.2-19.9c-0.5-20,1.5-39.4,7.3-58c7.3-23.6,20.3-44.7,38.8-60.6
	c23.8-20.5,52.3-33.2,83.1-35.8c17.9-1.5,34.3,0.9,51.7,4.9c10.8,2.4,20.5,4.5,29,6.1c5.3,1,10.9,1.9,16.8,2.6
	c10,1.2,20.2,0.5,30.5-2.1c2.9-0.7,6-1.8,9.2-3.3c1-0.5,3.9-0.9,5-0.5c5.9,2,7.7,7.6,7.2,13.5c-0.8,8.7-2.5,16.9-5.2,24.6
	c-3.2,9.4-8.7,17-15,24.5c-0.9,1.1-2,2.1-3.3,2.9c-0.6,0.4-0.8,1.3-0.4,1.9c10.3,16.7,18.1,34.2,20.7,53.1
	c2.1,14.9,2.1,29.8,0.2,44.6c-1.8,14-5.8,27.3-11.9,40c-4.4,9-10.2,18.3-17.6,27.8c-3.7,4.8-8.1,9.1-12.4,13.4
	c-0.2,0.2-0.2,0.4,0,0.6c22.3,28,45.9,57,70.7,87c4.2,5.1,8.5,10.4,12.9,16.1c4.4,5.6,7.5,10.4,9.2,14.4c6.3,14.9,3.7,33.7-8,45.3
	c-7.3,7.1-16.4,10.5-27.3,10.2c-13.2-0.5-23.1-6.4-31.2-16.2c-5.6-6.9-11.1-14-16.4-21.5c-0.6-0.8-0.8-0.7-0.8,0.3l14.1,183
	c0,0.4,0.4,0.7,0.8,0.7c19.2,0,39.8,0.1,61.5,0.2c6.8,0.1,10.9,3.2,12.2,9.5c1.9,8.9-4.5,16.1-13.6,16c-86.8-0.1-184.1-0.1-292.1,0
	c-2.1,0-3.9-0.6-5.6-1.8c-6.2-4.4-8.8-10.5-7.9-18.3c1-8.7,2.1-17.5,2.9-26.4c1.3-14.5,3-29.6,5.1-45.2c0.9-7.1,1.7-13.7,2.3-19.9
	c1.7-17.9,3-29.8,3.8-35.8c2.9-22.1,5.3-44.1,7.2-66C411.5,539.7,411.3,539.5,410.8,539.8z M611,212c3.4-1.6,5.7-3.2,6.9-4.6
	c3.3-4,6.1-8.5,8.3-13.7c0.1-0.2,0-0.5-0.3-0.6c-0.1,0-0.2,0-0.3,0c-10.5,1.7-22.4,1.1-32.6-0.2c-4.2-0.5-10.2-1.8-18.1-3.6
	c-14.3-3.4-28-6.7-41.2-9.7c-0.5-0.1-1.2-0.1-1.9,0.1c-0.5-0.2-1.1-0.3-1.7-0.3c-10.3-1.2-20.7-1-31.2,0.9c-3.1,0.5-10.8,1.9-12.7,4
	c-0.2,0.3-0.2,0.7,0.1,0.9c0.1,0.1,0.1,0.1,0.2,0.1c9.7,3.2,19.1,7.7,28.4,13.5c11.9,7.4,24.3,13.4,37.8,18.3
	c7.3,2.7,13.7,4.3,19.2,4.8c12.1,1.1,24.1-0.8,36-5.6C609.2,215.7,610.2,214.3,611,212z M433.6,313.4c-9,4.5-17.2,7.9-27.3,8.8
	c-0.7,0.1-1.3,0.7-1.2,1.5c0,0.1,0,0.1,0,0.2c5.5,26.6,18,48.8,37.7,66.6c10.1,9.1,22.4,15.8,34.8,20.9c7.8,3.3,16.3,5.4,25.6,6.4
	c6,0.6,13.5,0.8,22.2,0.5c0.9,0,2.2-0.2,3.9-0.4c12.4-0.9,24-3.9,35.1-9.1c5.8-2.7,11.4-5.6,16.6-9.3c16.9-12.1,30.2-27.9,38.6-47
	c12.1-27.7,14.6-61.2,2.1-88.9c-2.9-6.3-7.2-13.3-13-21c-0.2-0.3-0.5-0.3-0.8-0.2c-3.7,1.4-7.5,2.4-11.5,3c-20,3-39.3,0.8-57.9-6.8
	c-3.2-1.3-6.1-2.5-8.6-3.4c-8.4-4.1-16.4-8.3-24-12.8c-8.6-5-15.3-8.6-23.3-12c-5.5-2.3-12.7-4.3-21.8-6.1c-2.3-0.5-4.9-0.7-7.8-0.8
	c-0.3,0-0.5,0.1-0.7,0.3c-0.2,0.2-0.2,0.6,0,0.9c2.4,2.5,4.6,5.4,6.6,8.6c9.6,15.3,12.8,32.1,9.7,50.2c-3,17.4-11.1,31.8-24.2,42.9
	C441.7,308.6,438,311,433.6,313.4z M413.9,245.5c-1.8,4.6-3.5,9.2-5.1,13.7c-0.6,1.7-1.1,3.4-1.4,5.2c-0.9,4.3-1.8,8.5-2.2,12.9
	c-0.5,6.2-0.9,12.3-1,18.1c0,0.6,0.4,1,1,1.1c3.3,0.2,6.3-0.3,9-1.5c3.4-1.5,7.1-3.4,11.1-5.6c3.1-1.7,6.8-5.3,11.2-10.9
	c7.8-13.7,9.2-27.9,4.3-42.6c-1.8-5.4-4.8-10.8-7.9-15.6c-0.5-0.7-1.4-0.9-2.2-0.5c-0.1,0.1-0.2,0.1-0.3,0.2
	c-2.8,2.9-5.3,6.1-7.6,9.6C420.6,232.8,417.7,238.1,413.9,245.5z M442,728l19.7,0.1c0.6,0,1.2-0.5,1.2-1.1
	c1.4-13.2,3.5-26.1,5.1-39.2c0.7-5.8,1.5-11.6,2.5-17.4c0.6-4.1,0.9-8.2,1.4-12.3c1.8-14.2,3.6-28.7,5.5-43.5c0.4-3.3,1-6.1,1.7-8.4
	c0.9-2.9,2.3-5.5,4-7.6c5.4-6.5,12.4-9.8,21.1-9.7c6.7,0.1,13.4,0.1,19.9,0.2c8.1-0.4,14.9,1.7,20.4,6.5c3.2,3,5.4,6.4,6.4,10.3
	c1.1,4,1.7,6.5,1.8,7.8c1,8.4,1.8,16.8,2.4,25.2c2.1,29.9,4.6,59.6,6.9,88.6c0,0.4,0.3,0.6,0.7,0.6c7.2,0.1,14.6,0.1,22.2,0.1
	c0.9,0,1.4-0.4,2-0.8c0.4,0.3,0.9,0.5,1.8,0.5c6.1-0.1,12.4,0,18.7,0.1c0.3,0,0.5-0.2,0.5-0.5c0,0,0,0,0,0
	c-1-21.2-2.3-42.1-3.9-62.9c-0.5-6.4-1-13.1-1.5-20c-2.4-34.8-5-69-7.9-102.5c-0.9-10.7-1.4-21.1-2.1-31.8c-0.1-1.7-0.2-3.4-0.2-5
	c0-8.6,7.3-14.8,15.7-13.9c5.5,0.6,8.9,3.8,12.1,8c13.8,17.6,27.4,35,40.8,52c2.9,3.7,6.7,6,11.5,4.1c6.5-2.6,9.5-7.5,8.9-14.6
	c-0.3-3.6-4-8.3-6-10.8c-10.3-13-20.7-25.7-31.1-38.2c-4-4.8-8.2-10-12.5-15.4c-12.3-15.6-26.3-32.9-42-52c-0.4-0.4-1-0.5-1.5-0.2
	c-3.7,2.7-7.8,5.1-12,7.1c-2.8,1.3-5.7,2.5-8.7,3.5c-13,5.3-26.5,8.5-40.5,9.4c-17.7,1.6-35-0.4-51.9-6.2
	c-10.5-3.4-20.4-8.1-29.9-14c-1.5-1-2.7-1.3-4,0.1c-3.2,3.3-6.2,6.4-9.1,9.9c-5.8,7.1-11.6,14.2-17.4,21.3c-6.4,7.8-14.1,16-21,24.1
	c-4.3,5.1-8.7,10.2-13.1,15.1c-5.2,5.8-9.9,11.4-14,16.6c-6.4,8.1-13.2,15.9-19.3,23.9c-3.4,4.5-4.1,9.1-2.2,13.9
	c3,7.3,10.9,9,17.3,4.7c2.3-1.5,3.9-2.9,4.8-4.1c6-7.5,12.2-14.5,18.2-21.8c3.9-4.8,8.3-9.8,13.1-15.2c5.6-6.3,10.5-13.5,17.2-18.6
	c3-2.3,6.8-3.5,11.2-3.5c4.5,0,8.3,1.6,11.4,5c3.8,4.2,3.5,9.1,3,14.2c-0.8,7.2-1.7,14.8-2.7,22.8c-0.1,0.5-1.1,10.3-3.1,29.5
	c-0.3,2.6-0.6,5.5-0.9,8.5c-1.1,10.8-3.5,32.6-7.2,65.5c-0.7,6.1-1.5,12.7-2.4,19.8c-2,15.5-3.7,31-5.1,46.5
	c-0.7,8.2-2.3,16.3-3,24.5c-0.1,0.9,0.6,1.7,1.5,1.8c0,0,0.1,0,0.1,0c4.3,0,8.8,0,13.5,0.2C436.9,728.7,440.3,728.5,442,728z
	 M497.7,665c-1.4,9.9-2.6,18.7-3.4,26.4c-0.2,1.4-0.4,2.8-0.6,4.1c-0.6,3.4-0.8,6.9-1.3,10.4c-1,6.7-1.8,13.7-2.6,21.1
	c0,0.4,0.3,0.7,0.6,0.8c0,0,0,0,0.1,0l44.5,0.1c0.4,0,0.8-0.3,0.8-0.8c0,0,0-0.1,0-0.1c-3.3-37.8-6.2-72.6-8.5-110.8
	c0-0.4-0.2-0.6-0.6-0.6l-21.4,0c-1.2,0-1.8,0.6-1.8,1.7c-0.1,4.1-0.4,7.8-0.9,11.3C500.8,642.6,499.1,654.7,497.7,665z"/>
<path class="st1" d="M531.9,179.6l-1.5,13.3c-0.2,1.4,0.4,2.4,1.7,3c5.9,2.7,11.8,5.2,17.7,7.5c16.4,6.5,33.4,9.8,50.9,9.6
	c1.9,0,5.3-0.4,10.2-1c-0.8,2.3-1.8,3.7-3.1,4.2c-11.9,4.8-23.9,6.7-36,5.6c-5.4-0.5-11.8-2.1-19.2-4.8c-13.4-5-25.9-10.9-37.8-18.3
	c-9.3-5.8-18.8-10.3-28.4-13.5c-0.3-0.1-0.5-0.5-0.4-0.8c0-0.1,0.1-0.2,0.1-0.2c1.9-2.2,9.6-3.5,12.7-4c10.5-1.8,20.9-2.1,31.2-0.9
	C530.8,179.3,531.4,179.4,531.9,179.6z"/>
<path class="st2" d="M531.9,179.6c0.7-0.2,1.3-0.2,1.9-0.1c13.2,3,27,6.2,41.2,9.7c7.9,1.9,13.9,3.1,18.1,3.6
	c10.2,1.3,22.1,1.9,32.6,0.2c0.3,0,0.5,0.1,0.6,0.4c0,0.1,0,0.2,0,0.3c-2.2,5.2-5,9.7-8.3,13.7c-1.2,1.4-3.5,3-6.9,4.6
	c-4.9,0.7-8.3,1-10.2,1c-17.5,0.1-34.5-3.1-50.9-9.6c-5.9-2.3-11.8-4.8-17.7-7.5c-1.3-0.6-1.9-1.6-1.7-3L531.9,179.6z"/>
<path class="st3" d="M530,234.9c0.7,14.3,0.7,28.9-0.1,43.7c-4.8-3.8-10.2-4.8-16.2-3c-4.3,1.3-7.6,3.8-9.7,7.4
	c-4.6,7.8-3.5,19.7,4.2,25.1c7.1,4.9,14.8,3.8,22.1-0.7l-0.2,32.8c-0.7,0.5-2.2,1.2-4.7,2.2c-4.2,1.6-5.8,6.6-5.4,11
	c0.6,5.8,3.7,10.4,9.3,13.8c0.4,3.3,0.6,6.7,0.5,10c-0.2,8.9-0.2,17.1,0,24.6c-4.7-1.8-9.7-3.5-15-4.9c-4.7-1.3-8.5-2.5-12.4-4.4
	c-24.4-11.7-43.1-29.2-56.1-52.6c-2.4-4.2-4.8-8.7-6.7-13.1c-1.9-4.4-3.9-8.9-6-13.4c4.4-2.3,8-4.8,11-7.2
	c13.2-11.2,21.2-25.5,24.2-42.9c3.1-18.1-0.1-34.9-9.7-50.2c-2-3.2-4.2-6-6.6-8.6c-0.2-0.3-0.2-0.6,0-0.9c0.2-0.2,0.4-0.3,0.7-0.3
	c2.9,0,5.5,0.3,7.8,0.8c9,1.8,16.3,3.8,21.8,6.1c8,3.4,14.7,7,23.3,12C513.7,226.6,521.7,230.8,530,234.9z"/>
<path class="st2" d="M436.5,278.4c-1.3-0.8-2.5-1.8-3.6-3c-5-5.3-9.3-10.8-12.9-16.6c-2.4-3.9-4.4-8.3-6.1-13.3
	c3.8-7.4,6.8-12.7,8.9-15.9c2.3-3.5,4.9-6.6,7.6-9.6c0.6-0.6,1.6-0.6,2.2,0c0.1,0.1,0.2,0.2,0.2,0.3c3.1,4.8,6.1,10.2,7.9,15.6
	C445.7,250.5,444.3,264.7,436.5,278.4z"/>
<path class="st4" d="M530,234.9c2.5,1,5.3,2.1,8.6,3.4c18.6,7.6,37.9,9.8,57.9,6.8c4-0.6,7.8-1.6,11.5-3c0.3-0.1,0.6-0.1,0.8,0.2
	c5.8,7.7,10.1,14.7,13,21c12.5,27.7,10,61.2-2.1,88.9c-8.4,19.1-21.7,34.9-38.6,47c-5.3,3.8-10.8,6.6-16.6,9.3
	c-11,5.1-22.7,8.2-35.1,9.1l0.4-15.9c-0.2-7.5-0.1-15.7,0-24.6c0.1-3.4-0.1-6.7-0.5-10c5.8,3.6,12.1,5.7,18.8,6.3
	c9.9,0.8,20.6-1,28.5-7.1c8-6.1,11.9-17.5,2-24.2c-0.9-0.6-2-1.1-3.3-1.5c-2.8-0.8-5.3,1.6-7.5,3c-6.5,4.4-14,5.6-22.4,3.7
	c-1.4-0.3-3.4-1.3-6-2.8c-3-1.8-6.1-3.3-9.4-4.4l0.2-32.8c5.8-6.3,7.3-13.3,4.3-21.1c-1.1-2.8-2.6-5.4-4.7-7.7
	C530.7,263.8,530.8,249.2,530,234.9z M584.2,311.5c9.8,1.1,18.7-6.3,19.8-16.4c1.1-10.1-6-19.1-15.9-20.2s-18.7,6.3-19.8,16.4
	C567.3,301.4,574.4,310.4,584.2,311.5C584.2,311.5,584.2,311.5,584.2,311.5z"/>
<path class="st1" d="M413.9,245.5c1.7,5,3.7,9.4,6.1,13.3c3.6,5.8,7.9,11.3,12.9,16.6c1.1,1.2,2.3,2.2,3.6,3
	c-4.4,5.6-8.1,9.2-11.2,10.9c-4,2.2-7.7,4.1-11.1,5.6c-2.7,1.2-5.8,1.7-9,1.5c-0.6,0-1-0.5-1-1.1c0.1-5.8,0.5-11.9,1-18.1
	c0.4-4.4,1.3-8.6,2.2-12.9c0.4-1.7,0.8-3.5,1.4-5.2C410.4,254.7,412,250.1,413.9,245.5z"/>
<path class="st0" d="M530,278.6c2.1,2.3,3.6,4.9,4.7,7.7c3,7.8,1.5,14.8-4.3,21.1c-7.3,4.5-15,5.6-22.1,0.7
	c-7.7-5.4-8.9-17.3-4.2-25.1c2.2-3.6,5.4-6.1,9.7-7.4C519.8,273.8,525.1,274.8,530,278.6z"/>
<ellipse transform="matrix(0.1063 -0.9943 0.9943 0.1063 232.3582 844.9332)" class="st0" cx="586.2" cy="293.2" rx="18.4" ry="17.9"/>
<path class="st3" d="M433.6,313.4c2.1,4.5,4.1,8.9,6,13.4c1.9,4.5,4.3,8.9,6.7,13.1c13.1,23.4,31.8,40.9,56.1,52.6
	c3.9,1.9,7.7,3.2,12.4,4.4c5.3,1.4,10.3,3,15,4.9l-0.4,15.9c-1.7,0.2-3,0.4-3.9,0.4c-8.8,0.3-16.2,0.2-22.2-0.5
	c-9.3-1-17.9-3.1-25.6-6.4c-12.4-5.2-24.7-11.8-34.8-20.9c-19.7-17.8-32.2-40-37.7-66.6c-0.2-0.7,0.3-1.5,1.1-1.6c0.1,0,0.1,0,0.2,0
	C416.4,321.3,424.7,317.9,433.6,313.4z"/>
<path class="st0" d="M530.2,340.3c3.3,1.2,6.4,2.6,9.4,4.4c2.6,1.6,4.6,2.5,6,2.8c8.4,1.9,15.9,0.6,22.4-3.7c2.1-1.4,4.7-3.8,7.5-3
	c1.2,0.3,2.3,0.8,3.3,1.5c9.9,6.7,6,18.1-2,24.2c-7.9,6-18.6,7.9-28.5,7.1c-6.7-0.5-13-2.6-18.8-6.3c-5.6-3.4-8.7-8-9.3-13.8
	c-0.4-4.4,1.2-9.4,5.4-11C528,341.5,529.5,340.8,530.2,340.3z"/>
<path class="st1" d="M475.1,437.8L442,728c-1.8,0.5-5.1,0.7-10,0.6c-4.7-0.1-9.3-0.2-13.5-0.2c-0.9,0-1.7-0.7-1.7-1.7
	c0,0,0-0.1,0-0.1c0.7-8.2,2.2-16.3,3-24.5c1.4-15.5,3.1-31,5.1-46.5c0.9-7.1,1.7-13.7,2.4-19.8c3.7-32.9,6.1-54.8,7.2-65.5
	c0.3-3,0.6-5.9,0.9-8.5c2-19.1,3-28.9,3.1-29.5c1-8,1.9-15.6,2.7-22.8c0.6-5.2,0.8-10-3-14.2c-3-3.4-6.8-5-11.4-5
	c-4.5,0-8.2,1.2-11.2,3.5c-6.7,5.1-11.6,12.4-17.2,18.6c-4.8,5.4-9.1,10.4-13.1,15.2c-6,7.3-12.2,14.2-18.2,21.8
	c-0.9,1.2-2.5,2.5-4.8,4.1c-6.4,4.3-14.3,2.6-17.3-4.7c-2-4.8-1.2-9.4,2.2-13.9c6-8,12.9-15.8,19.3-23.9c4.1-5.3,8.8-10.8,14-16.6
	c4.4-4.9,8.8-10,13.1-15.1c6.9-8.2,14.6-16.4,21-24.1c5.8-7.1,11.7-14.2,17.4-21.3c2.9-3.5,5.9-6.6,9.1-9.9c1.3-1.4,2.5-1,4-0.1
	C454.6,429.7,464.6,434.4,475.1,437.8z"/>
<path class="st4" d="M587,727.3l-8.7-125.6c-0.9-13.3-2-26.6-3.1-40c-0.6-7.2-1.1-13.9-1.5-19.9c-1.8-30.6-3.2-56.5-4.2-77.8
	c-0.5-11.3-1.2-21.1-1.9-29.5c3-1,5.9-2.2,8.7-3.5c4.3-2,8.3-4.4,12-7.1c0.5-0.3,1.1-0.3,1.5,0.2c15.6,19.1,29.6,36.4,42,52
	c4.3,5.5,8.5,10.6,12.5,15.4c10.4,12.5,20.8,25.2,31.1,38.2c2,2.5,5.8,7.3,6,10.8c0.6,7.1-2.4,12-8.9,14.6
	c-4.8,1.9-8.6-0.4-11.5-4.1c-13.3-17-26.9-34.4-40.8-52c-3.3-4.1-6.7-7.4-12.1-8c-8.5-0.9-15.7,5.3-15.7,13.9c0,1.6,0,3.3,0.2,5
	c0.6,10.7,1.1,21.1,2.1,31.8c2.9,33.5,5.5,67.7,7.9,102.5c0.5,6.9,1,13.5,1.5,20c1.6,20.7,2.9,41.7,3.9,62.9c0,0.3-0.2,0.5-0.4,0.5
	c0,0,0,0,0,0c-6.3-0.1-12.6-0.1-18.7-0.1C587.9,727.8,587.4,727.6,587,727.3z"/>
<path class="st3" d="M567.5,434.5c0.8,8.4,1.4,18.2,1.9,29.5c1,21.2,2.4,47.2,4.2,77.8c0.4,6.1,0.8,12.7,1.5,19.9
	c1.2,13.3,2.2,26.7,3.1,40c-2.7,0.4-6.1,0.1-10.3-0.8c-7.3-1.5-13.2-3.2-17.8-4.9c-1.8-0.7-3.7-0.6-5.7-0.5
	c-5.5-4.8-12.3-7-20.4-6.5c-0.3-1.9-0.4-3.8-0.4-5.7c1.1-46.3,2.1-92.8,3.2-139.3C541,443,554.5,439.8,567.5,434.5z"/>
<path class="st3" d="M475.1,437.8c16.9,5.7,34.2,7.8,51.9,6.2c-1,46.6-2.1,93-3.2,139.3c0,1.9,0.1,3.8,0.4,5.7
	c-6.6,0-13.2-0.1-19.9-0.2c-8.6-0.1-15.7,3.1-21.1,9.7c-1.8,2.2-3.1,4.7-4,7.6c-0.7,2.3-1.3,5.1-1.7,8.4
	c-1.9,14.8-3.7,29.3-5.5,43.5c-0.5,4.1-0.8,8.2-1.4,12.3c-0.9,5.9-1.8,11.7-2.5,17.4c-1.6,13.1-3.8,26.1-5.1,39.2
	c-0.1,0.6-0.6,1.1-1.2,1.1L442,728L475.1,437.8z"/>
<path class="st3" d="M544.6,595.5c1.9,0,3.8-0.1,5.7,0.5c4.6,1.7,10.5,3.3,17.8,4.9c4.1,0.9,7.6,1.1,10.3,0.8l8.7,125.6
	c-0.7,0.5-1.2,0.8-2,0.8c-7.5,0-14.9-0.1-22.2-0.1c-0.4,0-0.6-0.3-0.7-0.6c-2.3-29-4.8-58.8-6.9-88.6c-0.6-8.4-1.4-16.8-2.4-25.2
	c-0.1-1.2-0.7-3.8-1.8-7.8C550,601.9,547.8,598.5,544.6,595.5z"/>
<path class="st4" d="M497.7,665c1.5-10.4,3.1-22.4,4.9-36.3c0.4-3.4,0.7-7.2,0.9-11.3c0-1.2,0.6-1.7,1.8-1.7l21.4,0
	c0.4,0,0.6,0.2,0.6,0.6c2.3,38.2,5.2,73,8.5,110.8c0,0.4-0.3,0.8-0.7,0.8c0,0-0.1,0-0.1,0l-44.5-0.1c-0.4,0-0.7-0.3-0.7-0.7
	c0,0,0,0,0-0.1c0.7-7.4,1.6-14.4,2.6-21.1c0.5-3.5,0.7-7,1.3-10.4c0.2-1.3,0.4-2.7,0.6-4.1C495.1,683.8,496.3,675,497.7,665z"/>
<path class="st0" d="M327.8,727.9l31-0.1c6.8,0,12.3,5.5,12.4,12.3l0,1.2c0,6.8-5.5,12.3-12.3,12.4l-31,0.1
	c-6.8,0-12.3-5.5-12.4-12.3l0-1.2C315.5,733.5,321,727.9,327.8,727.9z"/>
</svg>
