<?xml version="1.0" encoding="utf-8"?>
<!-- Generator: Adobe Illustrator 28.1.0, SVG Export Plug-In . SVG Version: 6.00 Build 0)  -->
<svg version="1.1" id="Calque_1" xmlns="http://www.w3.org/2000/svg" xmlns:xlink="http://www.w3.org/1999/xlink" x="0px" y="0px"
	 viewBox="0 0 1024 1024" style="enable-background:new 0 0 1024 1024;" xml:space="preserve">
<style type="text/css">
	.st0{fill:#421B18;}
	.st1{fill:#FBD6AD;}
	.st2{fill:#F1B27D;}
	.st3{fill:#D57746;}
	.st4{fill:#BB5D3A;}
	.st5{fill:#86372E;}
	.st6{fill:#632628;}
	.st7{fill:#6C291D;}
	.st8{fill:#A84E34;}
	.st9{fill:#591E19;}
	.st10{fill:#E68D5E;}
	.st11{fill:#FFE5B9;}
	.st12{fill:#E1A88A;}
	.st13{fill:#FFF3C7;}
	.st14{fill:#724E52;}
	.st15{fill:#B5BCAA;}
	.st16{fill:#9F8781;}
</style>
<path class="st0" d="M748.8,627.8c-6,3.4-12.4,6.3-19.3,8.7c-5.4,1.7-9.4,2.9-11.8,3.8c-21.2,7.3-42.9,14.8-65.3,22.5
	c-11,3.8-27.2,9.5-48.6,17c-17.1,6-38.2,13.3-63.6,21.9c-8.6,2.9-17.1,6-25.4,9.1c-7,2.7-14.3,4.7-21.3,7.1
	c-9.8,3.3-19.8,6.4-30.1,9.2c-4.1,1.1-8.5,1.9-12.7,2.2c-6.4,0.5-12.8,1.1-19.1,1.8c-7.9-0.8-15.8-1.9-23.6-3.4
	c-5-1-11.3-2.6-18.8-5c-6.3-2-12.5-3.9-18.7-5.7c-7.1-4.9-14.2-9.5-21.2-13.9c-4.3-2.7-9.8-7.2-16.6-13.5l-16.6-18.1
	c-23.6-30.2-36.4-63.8-38.5-100.8c-0.5-9.5,0.1-21.2,1.9-35.3c3.5-27.8,15.1-54,32.4-75.7c15.2-19.1,34.5-32.9,58-41.5
	c13.7-5,27.4-9.1,41.2-13.8c36.8-12.5,80.8-26.6,121-40.4c4.7-1.6,9.7-3.2,14.9-4.8c0.4-0.1,0.7-0.5,0.8-0.9
	c2.3-10.2,4.2-20,5.8-29.4c1-5.7,2.3-9.9,3.8-12.6c4-6.9,10.3-11.1,19-12.6c11.8-2.1,22.8,0,32.9,6.2c7.9,4.9,16.1,13,15.5,22.6
	c0,0.4,0.3,0.8,0.7,0.8c0.1,0,0.1,0,0.2,0c21.9-3.5,44.4-1.9,65.5,5.8c26.4,9.6,48.7,24.8,67,45.7c21.1,24.1,34.6,52.3,42.3,83.7
	c6.4,26.4,6.4,53.4-0.3,81c-2.9,11.9-6.9,22.7-12.1,32.6c-1.8,3.4-3.6,6.6-5.4,9.7C774.2,606.2,762.9,618.2,748.8,627.8z
	 M571.3,330.1c2.3,5,6.1,8.5,11.5,10.5c8.9,3.4,17,3.1,24.4-1c2.6-6.7,0.8-12-5.2-15.8c-6.8-4.3-14.4-5.6-22.8-3.8
	c-2.8,0.6-5.2,2.3-6.8,4.6C571.5,326,571.2,327.8,571.3,330.1z M563.1,362.1l-1.6,11.8l-5.6,21.8l-12.3-5.6
	c-0.4-3.9-0.1-7.4,0.8-10.6c0.1-0.3-0.1-0.6-0.4-0.7c-0.1,0-0.2,0-0.3,0c-9.5,3-19,6-28.6,9.2c-1.7,0.6-2.4,1.8-1.9,3.6
	c0.3,0.6,0.4,1.1,0.1,1.7c-0.1,0.3-0.4,0.5-0.7,0.4c-2.3-0.4-4.1-0.4-5.4,0c-1.5,0.5-2.8,0.6-3.9,0.4c-2.3-0.1-4.9,0.3-7.7,1.2
	c-20.9,6.2-41.5,12.9-62,20.3c-0.1,0-0.2,0.2-0.2,0.3c0,0.4,0.1,0.4,0.3,0.3c-0.3,0.3-0.2,0.6,0.2,1c0.9,0.7,1.8,1.3,2.8,1.8
	c1,0.5,1.2,0.9,2,1.7c0.4,0.4,0.3,0.6-0.2,0.7c-0.4,0.1-0.6,0.3-0.8,0.7c-0.6,1.4-1.6,2.1-2.9,2.1c-1.4,0-2.8,0.2-4.1,0.6
	c-0.3,0.1-0.5,0-0.7-0.2l-0.2-0.2c-0.2-0.2-0.4-0.3-0.6-0.3c-5.3-0.5-10.6-0.3-15.9,0.7c-0.1,0-0.3,0.1-0.4,0.2
	c-0.1,0.1-0.2,0.3-0.1,0.4c0.2,0.3,0.1,0.6,0,0.9c-0.5,0.8-1.7,1.2-3.6,1.2c-10.5,0.3-21.3,2.4-32.2,6.2
	c-17.8,6.2-33,15.9-45.4,29.1l-4.3,4.8c-2.6,2.4-4.8,5.3-6.5,8.5c-0.1,0.1-0.2,0.2-0.4,0.3c-0.1,0-0.2,0.1-0.2,0.1
	c-0.1,0.1-0.2,0.2-0.3,0.4c-0.3,1-0.9,2-2,3c-0.9,0.8-1.6,2-1.9,3.4c-5.4,7.8-9.6,16.1-12.6,24.8c-3.5,9.7-5.9,17.9-7.1,24.8
	c-2.7,15.3-3,31.7-1,49c1.9,15.6,6.1,30.7,12.7,45.3c4.5,9.9,7.7,16.1,9.5,18.7c3.9,5.4,7.4,11.2,11.5,16.2c2.7,3.3,5.5,6.6,8.1,9.9
	c0.8,1,3.2,3.3,7.1,6.9c0.2,0.4,0.4,0.8,0.7,1.1c0.2,0.2,0.5,0.3,0.9,0.2c0.2-0.1,0.5-0.1,0.7-0.1c0.4,0,0.7,0.1,1,0.3
	c1.2,0.9,2.1,1.9,2.8,3.1c0.7,1.1,1.4,2.1,2.3,3c2.5,2.6,5.4,4.4,8.5,5.6c14.5,10,29.5,16.2,45.2,18.6c12.4,2,22.9,2.7,31.5,2.3
	c10-0.5,20.2-2.2,30.5-5.1c4.8-1.3,9-2.9,12.8-4.8c2.6-0.4,5-2,7.5-4.7c0.6-0.7,1.4-0.8,2.4-0.5c0.9,0,1.5-0.2,2-0.6
	c6-4.2,11.6-8.9,16.7-14.1c2.7-2.9,5.8-6.6,9.2-11.2c3.9-5.4,6.6-9.4,8.1-12c2.6-4.7,5.9-12,9.7-22.1c2.5-7.6,4.2-13.8,5-18.7
	c1-5.8,1.7-9.6,2.1-11.4c0.5-1.5,0.6-3,0.4-4.6c0-0.3-0.2-0.6-0.5-0.8c-0.4-0.3-0.6-0.7-0.7-1.2c-0.2-1-0.3-1.8-0.3-2.6
	c0-0.8,0.1-1.8,0.5-3c0.5-1.7,0.7-3.4,0.6-5.2c0.1-8,0.1-13.1-0.1-15.5c-1.1-12.6-3.1-25-6.2-37.3c-4.5-14.9-10.8-28.9-18.9-42.2
	c0-1.4-0.1-2.7-0.5-4.1c-0.3-1.1-0.8-2-1.5-2.7c-0.7-0.6-1.3-1.4-1.8-2.2c-0.2-0.3-0.5-0.6-0.9-0.7l-1.3-0.5
	c-0.3-0.1-0.4-0.3-0.4-0.7c0.1-0.5-0.2-0.9-0.7-1c-0.2-0.1-0.3-0.2-0.1-0.4c0.1-0.2,0.1-0.3,0.1-0.5c0-0.1-0.1-0.2-0.2-0.2
	c-0.1-0.1-0.2-0.1-0.3-0.1c-0.3,0-0.5-0.3-0.5-0.5c-0.1-2.3-0.6-4.4-1.6-6.3c-0.2-0.3-0.1-0.6,0.1-0.9c0.1-0.2,0.2-0.3,0.2-0.6
	c0-0.2-0.1-0.4-0.3-0.4c-0.3-0.1-0.3-0.2-0.1-0.4c0.6-0.6,0.5-1.2-0.1-1.7c-0.3-0.2-0.3-0.6-0.1-0.9c0,0,0,0,0,0
	c0.6-0.7,0.7-1.4,0.5-2.2c-0.1-0.4,0-0.7,0.3-1c0.6-0.6,1.3-1,2.1-1.3c0.3-0.1,0.4,0,0.2,0.3c0,0,0,0.1,0,0.1
	c0.3,0.6,0.4,0.6,0.5-0.1c0-0.3,0-0.7,0-1c0-0.5,0.1-0.5,0.3-0.1c0.2,0.3,0.3,0.6,0.2,0.9c0,0.1,0,0.2,0.1,0.2c0.1,0,0.2,0,0.3-0.1
	c0.2-0.2,0.4-0.1,0.5,0.1c0.1,0.2,0.1,0.4,0.1,0.6c0,0.2,0,0.4,0.1,0.6c0.1,0.1,0.2,0.2,0.2,0.1c0.2-0.2,0.4-0.2,0.6,0
	c0.5,0.7,1.1,1.3,1.8,1.9c0.6,0.5,1.1,1.2,1.5,1.9c0.6,1.1,1.4,2.1,2.3,3c0.2,0.2,0.4,0.5,0.5,0.7c1.3,2.1,3,3.5,5.1,4.1
	c0.4,0.1,0.7,0.1,1,0c1.3-0.4,2.6-0.2,3.8,0.5c0.2,0.1,0.2,0.2,0,0.2c-0.1,0-0.1,0.1-0.1,0.2c0,0.2,0.1,0.4,0.3,0.5
	c1.1,0.6,1.7,1.3,1.8,2.3c0.1,0.4-0.1,0.7-0.4,0.9c-1.9,1-2.7,2.6-2.5,4.6c0,0.3,0.2,0.6,0.5,0.8c0.4,0.2,0.8,0.2,1.1,0l4,5.9
	c3,4.2,5.3,8.8,7.1,13.5c2.8,3.9,4.4,8.2,4.6,12.8c0,0.5,0.4,1,1.1,1.3l1.5,3.9l3,10.9c0.1,1.6,0.5,3,1.2,4.3c0.3,0.6,0.4,2,0.5,4.1
	c0,1,0.1,1.9,0.2,2.7c0.1,1.2,0.4,2.1,1,2.5c1,0.8,2,0.9,3.1,0.4c1.2-0.6,2.2-0.4,3.5-0.4c0.3,0,0.6-0.1,0.9-0.3
	c0.7-0.5,1.3-0.3,1.7,0.5c0.1,0.2,0.2,0.2,0.3,0c0.1-0.1,0.2-0.1,0.3-0.1c0.3-0.1,0.7,0,0.9,0.2c0.4,0.4,0.9,0.5,1.5,0.4
	c0.5-0.1,0.9,0.1,1.1,0.6c0.3,0.6,0.7,1.1,1.3,1.5c1.3,0.8,1.2,1.5-0.2,2.1c-0.4,0.1-0.7,0.4-0.9,0.7c-1.3,1.8-5.8,3.3-7.6,3.6
	c-1.2,0.2-2.4,0.8-3.5,1.8c-1.3,1.1-1.2,2.9-0.4,4.3l0.4,3.9l0.5,6.3l0.2,19.8c-0.6,9.5-1.7,19-3.3,28.4c-0.6,3.6-2.2,7.2-3,11
	c-0.1,0.5,0.2,1,0.7,1.1c0.2,0,0.4,0,0.6-0.1c6.6-3.2,13.9-6.2,22.1-9c7.6-2.6,15.3-5.1,22.9-7.6c4-1.3,8.3-3.2,11.5-4.2
	c9.2-2.9,18.6-6.1,28-9.6c4.6-1.7,9.3-2.8,14-4.5c10.1-3.7,20.4-6.9,30.7-10.6c4.6-1.7,9.3-2.9,14.1-4.7c7.2-2.7,14.2-5,21.1-7.1
	c2-0.6,4.5-2.1,6.8-2.9c12.8-4.3,25.6-8.6,38.5-12.8c5.1-1.7,10.1-3.4,15.1-5c0.6-0.2,1.1-0.7,1.3-1.3c1-2.8,2.5-5.3,3.1-8.2
	c0.5-2.5,1.1-4.9,1.7-7.3c0.2-0.6-0.1-1.1-0.3-1.7c0-1.2,0-1.9,0.1-2.3c1.4-4.8,2.3-8.4,2.6-11c0.8-4.4,1.1-8.8,1-13.2
	c-0.1-5.7-0.3-11.3-0.5-17c-0.1-1.4-0.2-2.7-0.5-4.1c0.2-1.6-0.4-2.8-1.5-3.7c-0.5-0.4-1.1-0.5-1.6-0.5c-0.6,0.1-1.3,0.1-1.9,0
	c-0.3,0-0.7,0-1,0.2c-0.4,0.2-0.8,0.2-1.2,0c-0.3-0.1-0.6-0.2-1-0.1c-1.3,0.3-2.6,0.6-3.9,1c-0.4,0.1-1.1,0-2.2-0.2
	c-0.3-0.1-0.5,0-0.8,0c-0.6,0.2-1.1,0.1-1.6-0.2c-0.6-0.4-1.4-0.4-2.1-0.6c-0.3-0.1-0.5-0.3-0.5-0.6V487c0-0.3-0.1-0.4-0.4-0.4h-0.3
	c-0.2,0-0.4,0.2-0.4,0.4c0,0,0,0.1,0,0.1c0.1,0.5,0.1,1,0,1.5c-0.2,0.6-0.3,0.6-0.4,0c-0.2-0.8-0.5-1.5-1-1.9
	c-0.6-0.6-0.6-1.1,0.2-1.5c0.2-0.1,0.2-0.3,0.1-0.5c-0.4-0.5-0.3-0.8,0.2-1.1c0.7-0.4,0.9-0.8,0.6-1.3c0.4-0.2,0.7-0.3,1-0.3
	c4.1-1.5,8.2-2.6,12.4-3.2c0.7-0.1,1.9-0.6,3.6-1.4c0.3-0.1,0.5-0.4,0.6-0.7c0.2-0.9,0.3-1.7,0.1-2.6c-0.7-4.7-1.8-9.2-3.4-13.7
	l-3-9.4l-2-3.6c-0.4-0.4-0.5-0.7-0.4-0.9c-2.1-2.9-3.4-6.5-3.9-10.6c-0.1-1.2-0.7-2.3-1.8-3.4l-5.7-10.2l-4-5.9
	c-0.6-1.1-1.3-1.7-2-2c-0.4-2.3-1.8-4.1-4.2-5.5c-0.3-0.2-0.5-0.5-0.6-0.8l-0.5-3c-0.1-0.3-0.2-0.7-0.4-0.9c-1.1-1.3-1.8-2.2-2-2.7
	c-0.4-1.1-1.1-1.6-1.9-1.5c-3.8-5.2-8.1-9.8-12.9-14c-5.3-5.3-11-10-17-14l-10.9-6.5l-1.1-0.4c-0.3-0.3-0.8-0.5-1.5-0.7
	c-0.3,0-0.5-0.2-0.6-0.5c-0.1-0.6-0.6-1.1-1.3-1.3c-3.9-1.4-7.6-3.1-11.2-5.2l-19.1-5.9c-10.8-3-20.6-3.8-29.4-2.4
	c-7,1.1-14.2,2.8-21.5,5.2c-0.6,0.2-1,0.7-1.2,1.3l-2.1,10.2l-1.2,4.4c-1.1,3.4-2,7.1-2.6,11.3c-0.2,1.1,0,1.9,0.5,2.4
	c0.5,0.5,0.5,1.3,0.2,1.9l-5.3,8.3l-35.4,10.7c-2.5-0.2-4.7-1.2-6.8-2.9c-0.7-0.6-0.8-1.7-0.2-2.4c0,0,0.1-0.1,0.1-0.1l1.3-1.4
	l11.4-4l18.8-5.2c0.7-0.2,1.1-0.8,1.2-1.5c0.2-2.8,0.6-5.6,1.2-8.6c0.6-2.7,1.1-5.5,1.5-8.5c0.7-4.8,1.3-9.3,1.9-13.6
	c0-0.4-0.2-0.7-0.6-0.7c-0.1,0-0.2,0-0.3,0c-3.6,1.1-7.4,1.5-11.4,1.1c-2.2-0.2-4.3-0.4-6.4-0.6c-2.7-0.4-5.2-1.3-7.5-2.6
	c-2.3-1.3-4.4-2.5-6.2-3.5l-5.5-4.5c-0.2-0.2-0.6-0.2-0.8,0.1c-0.1,0.1-0.1,0.2-0.1,0.2L563.1,362.1z M730.9,586.9
	c-2.2,1.3-4.2,2-6,1.9l-129.7,44.7c-0.5,0.2-0.9,0.7-0.9,1.2c0,1.8,0,3.7-0.1,5.6c-0.1,1.7-0.3,3.6-0.7,5.6
	c-0.5,2.8-0.9,5.7-1.2,8.7c-0.3,3.2-1.6,6-1.4,9.2c0,0.4-0.2,0.8-0.6,0.9c-1,0.4-2,0.9-3.1,1.7c0,0,0,0,0,0.1l0.1,0.2
	c0.1,0.2,0.4,0.4,0.7,0.3c5.2-1.9,10.5-3.7,15.6-5.5c5.4-1.8,10.6-4.2,16.1-5.8c4-1.1,7.7-2.4,11.2-3.7c11-4.2,22.1-7.2,33.1-11.5
	c5-1.9,10.4-3.5,15.5-5.4c12-4.6,24.6-9,37.7-13.4c1.3-0.4,2.8-1.1,4.7-2l5.8-2c8.3-3.1,15.2-6.9,20.6-11.5c6.4-5.4,13-11,17.1-17.7
	c3.1-5.1,6.2-10.5,9.1-16.2c0.2-0.4,0-0.8-0.3-1c0,0-0.1,0-0.1,0c-0.6-0.2-1.2-0.1-1.9,0.2c-3.9,2-8.1,2.6-12,4.5
	c-3.6,1.7-7.3,3.2-11.1,4.3c-3.8,1.1-7,2.8-11,3.9C735.5,585,733.1,585.9,730.9,586.9z M589.2,643.5c0.3-2.1,0.5-4.2,0.7-6.3
	c0.2-1.9-0.6-2.5-2.3-1.8c-6.7,2.6-13.6,4.5-20,7c-6,2.4-12,4.7-18.1,6.9c-0.6,0.2-1,0.5-1.4,0.7c-0.5,0.4-0.9,0.8-1,1.2
	c-4.5,13.2-11.4,25-20.7,35.4c-1.3,1.5-1.1,2,0.9,1.4c2.6-0.8,5-2.1,7.7-2.8c4-1.1,7.9-2.4,11.7-3.9c2.7-1.1,5.6-1.6,8.3-2.8
	c2-0.9,4-1.7,6.1-2.4c7.8-2.7,15.7-5.4,23.6-8c0.3-0.1,0.5-0.3,0.6-0.7c0.5-2.6,0.8-5.4,1.1-8.3c0.2-1.8,0.6-3.6,1.2-5.2
	c0.7-1.8,1.1-3.7,1.2-5.7C588.8,646.8,589,645.2,589.2,643.5z"/>
<path class="st1" d="M607.2,339.7c-1.1-0.2-1.7-1.5-1.8-3.9c-0.2-6-2.8-9.9-7.8-11.9c-1.9-0.8-3.7-2-5.8-2.2
	c-3.7-0.4-7.4-0.4-11,0.1c-3.7,0.5-6.1,2.5-7.2,6c-0.3,0.9-1.1,1.7-2.3,2.4c-0.1-2.4,0.2-4.2,1.1-5.4c1.6-2.3,3.9-4,6.8-4.6
	c8.4-1.8,16-0.5,22.8,3.8C608,327.7,609.8,332.9,607.2,339.7z"/>
<path class="st2" d="M607.2,339.7c-7.4,4.1-15.5,4.4-24.4,1c-5.3-2.1-9.2-5.6-11.5-10.5c1.2-0.7,2-1.5,2.3-2.4
	c1.2-3.5,3.6-5.5,7.2-6c3.6-0.5,7.2-0.6,11-0.1c2.1,0.2,3.9,1.5,5.8,2.2c5,2,7.6,5.9,7.8,11.9C605.5,338.2,606.1,339.5,607.2,339.7z
	 M598.1,331.4c0.3-2.3-2.9-4.6-7-5.1c0,0,0,0,0,0c-4.1-0.5-7.7,1-8,3.4c-0.3,2.3,2.9,4.6,7,5.1c0,0,0,0,0,0
	C594.3,335.3,597.9,333.8,598.1,331.4z"/>
<ellipse transform="matrix(0.1132 -0.9936 0.9936 0.1132 195.305 879.9807)" class="st3" cx="590.6" cy="330.6" rx="4.3" ry="7.6"/>
<path class="st4" d="M572.9,350.1c-0.3,2.2-0.7,4.5-1,6.8c-0.2,1.4-0.6,2.9-1.2,4.6c-0.5,1.5-1,3.1-1.3,4.6c-0.4,1-0.9,1.8-1.5,2.5
	c-0.4,0.4-0.6,0.3-0.8-0.2c-0.3-0.7-0.3-1.4-0.1-2c0.4-1.4,0.4-2.7-0.1-3.9c-0.1-0.3-0.4-0.5-0.7-0.5c-0.6,0-1,0.2-1.4,0.6
	c-0.2,0.2-0.5,0.3-0.9,0.2c-0.3-0.1-0.5-0.3-0.8-0.7l3.4-16.3c0.1-0.3,0.4-0.5,0.7-0.4c0.1,0,0.2,0.1,0.2,0.1L572.9,350.1z"/>
<path class="st2" d="M672.9,351.5c-0.8,0.4-2.8,1-5.9,1.8c-13.3,3.1-29.1,7.7-47.5,14c-0.3,0.1-0.6,0-0.8-0.3
	c-0.2-0.3-0.2-0.6-0.1-1.1l2.1-10.2c0.1-0.7,0.5-1.1,1.2-1.3c7.3-2.4,14.5-4.1,21.5-5.2C652.3,347.7,662.1,348.5,672.9,351.5z"/>
<path class="st5" d="M572.9,350.1c1.8,1,3.9,2.2,6.2,3.5c2.3,1.3,4.8,2.2,7.5,2.6c-0.1,1.8-0.2,3.5-0.3,5.2
	c-0.1,1.7-0.4,3.4-0.9,5.1c-0.7,2.3-0.4,4.6-1,7c-1.7,6.8-3,13.6-3.8,20.4l-11.4,4l-3.4,0.7l0.3-0.3c0.2-0.3,0.2-0.4-0.2-0.5l-10-2
	l5.6-21.8c0,1.9,0.6,2.8,1.9,2.7c0.7-0.1,1.4-0.5,2.1-1.4c2-2.6,3.4-5.7,4-9.2c0.3-1.5,0.8-3.1,1.3-4.6c0.6-1.7,1-3.2,1.2-4.6
	C572.2,354.6,572.5,352.3,572.9,350.1z"/>
<path class="st4" d="M672.9,351.5l19.1,5.9c0.5,0.4,1.2,0.7,2,1c0.2,0.1,0.3,0.1,0.3,0.2c0.1,0.1,0.1,0.3,0.1,0.4
	c0,0.4-0.2,0.6-0.6,0.7c-10,1.9-17,3.7-21.1,5.2c-4.9,1.8-9.9,3.4-15.2,4.8c-1.2,0.3-2.3,0.6-3.4,1c-1.1,0.4-2.2,0.7-3.5,1
	c-1.7,0.4-3.5,0.9-5.2,1.5c-5,1.6-10.1,3.1-15.2,4.5c-0.4,0.1-0.8,0-1.2-0.2l-4.9-3.9c-0.1,0-0.1-0.1-0.2-0.1
	c-2.7-0.8-4.8-1.9-6.4-3.3l1.2-4.4c-0.1,0.5-0.1,0.9,0.1,1.1c0.2,0.3,0.4,0.4,0.8,0.3c18.4-6.3,34.2-10.9,47.5-14
	C670.1,352.5,672.1,351.9,672.9,351.5z"/>
<path class="st6" d="M580.6,393.9c0.8-6.8,2.1-13.6,3.8-20.4c0.6-2.4,0.3-4.7,1-7c0.5-1.6,0.8-3.3,0.9-5.1c0.1-1.7,0.2-3.4,0.3-5.2
	c2.1,0.2,4.2,0.4,6.4,0.6c4,0.4,7.8,0,11.4-1.1c0.3-0.1,0.7,0.1,0.8,0.4c0,0.1,0,0.2,0,0.3c-0.5,4.3-1.2,8.8-1.9,13.6
	c-0.4,3-0.9,5.9-1.5,8.5c-0.6,2.9-1,5.8-1.2,8.6c0,0.7-0.5,1.3-1.2,1.5L580.6,393.9z"/>
<path class="st7" d="M692,357.4c3.6,2,7.3,3.8,11.2,5.2c0.7,0.3,1.2,0.7,1.3,1.3c0.1,0.3,0.3,0.5,0.6,0.5c0.7,0.1,1.2,0.3,1.5,0.7
	c-0.5,0-1.1,0.1-1.9,0.3c-5.7,1.8-13,3.9-22,6.2c-3.2,0.8-5.8,2.1-7.8,3.7c-0.4,0.1-0.6,0.9-0.6,2.3l0-1c0-0.5-0.2-0.6-0.4-0.1
	c-0.3,0.5-0.4,1.1-0.4,1.6c0.3,3.8,0.9,7.8,1.7,11.8c0.1,0.7-0.1,1.2-0.6,1.6c-0.6,0.5-1.6,0.7-2.9,0.6c-2.5-3.6-4.8-6.2-6.9-7.8
	c-2-1.6-4.9-2.7-8.7-3.5c-4-0.9-9.3,1.3-13.3,2.7c-9.2,3.1-18.2,6-26.9,8.7c-1.9,0.6-3.9,1.2-5.9,1.7l5.3-8.3
	c0.4-0.6,0.3-1.4-0.2-1.9c-0.5-0.5-0.7-1.3-0.5-2.4c0.6-4.2,1.5-8,2.6-11.3c1.6,1.4,3.8,2.5,6.4,3.3c0.1,0,0.1,0.1,0.2,0.1l4.9,3.9
	c0.4,0.3,0.8,0.4,1.2,0.2c5.2-1.4,10.2-2.9,15.2-4.5c1.7-0.6,3.5-1,5.2-1.5c1.2-0.3,2.4-0.6,3.5-1c1.1-0.4,2.3-0.7,3.4-1
	c5.3-1.4,10.3-2.9,15.2-4.8c4.1-1.5,11.2-3.3,21.1-5.2c0.4-0.1,0.6-0.3,0.6-0.7c0-0.1,0-0.3-0.1-0.4c-0.1-0.1-0.2-0.2-0.3-0.2
	C693.2,358.1,692.5,357.8,692,357.4z"/>
<path class="st8" d="M569.4,366.1c-0.6,3.5-2,6.6-4,9.2c-0.6,0.8-1.3,1.3-2.1,1.4c-1.3,0.1-1.9-0.8-1.9-2.7l1.6-11.8
	c0.2,0.3,0.5,0.6,0.8,0.7c0.3,0.1,0.6,0,0.9-0.2c0.4-0.4,0.9-0.5,1.4-0.6c0.4,0,0.6,0.2,0.7,0.5c0.4,1.2,0.5,2.5,0.1,3.9
	c-0.2,0.7-0.1,1.3,0.1,2c0.2,0.5,0.5,0.5,0.8,0.2C568.5,368,569,367.1,569.4,366.1z"/>
<path class="st1" d="M706.6,365.1l1.1,0.4c1.3,1.4,0.7,2.1-1.8,2.1c-0.3,0-0.7,0.1-1,0.2c-3.5,1.8-6.3,2.8-8.4,3.1
	c-4.1,0.6-8,1.3-11.6,2c-0.6,0.1-2.3,0.7-4.9,1.6c-1.7,0.6-3.5,0.9-5.2,0.8c2-1.6,4.6-2.9,7.8-3.7c9-2.4,16.3-4.4,22-6.2
	C705.5,365.2,706.1,365.1,706.6,365.1z"/>
<path class="st2" d="M707.8,365.5l10.9,6.5c-10.5,2.8-20.5,5.7-30.1,8.8c-2.2,0.7-4.1,1.6-5.7,2.7c-0.7,0.5-0.9,1.4-0.5,2.1
	c1.6,3.2,3.7,5.6,6.2,7.4c3.3,2.3,7.1,2.7,11.5,1.4c0.5-0.1,0.9,0.1,1.1,0.6c0.1,0.2,0,0.4-0.1,0.6c-0.9,1.7-2.2,2.6-4.1,2.7
	c-8.6,0.6-15.1-5.7-17.7-13.4c-0.7-1.1-1.9-2.6-3.7-4.4c-0.7-0.7-1.1-1.7-1.3-2.9c0-1.4,0.2-2.2,0.6-2.3c1.7,0.1,3.4-0.2,5.2-0.8
	c2.7-0.9,4.3-1.4,4.9-1.6c3.7-0.8,7.5-1.4,11.6-2c2.1-0.3,4.9-1.4,8.4-3.1c0.3-0.2,0.6-0.2,1-0.2
	C708.5,367.6,709.1,366.9,707.8,365.5z"/>
<path class="st4" d="M718.6,372c6,4,11.6,8.6,17,14c0.1,0.6,0,1-0.3,1.3c-0.3,0.3-0.7,0.4-1.1,0.4c-0.6-0.1-1.2-0.1-1.9,0
	c-5.6,0.8-11.4,2.4-17.2,5c-0.8,0.3-1.7,0-2-0.8c-0.1-0.2-0.1-0.4-0.1-0.6c0-0.8-0.1-1.5,0.3-2.3c1-2.3,1.1-4.5,0.5-6.5
	c-0.5-1.7-1.6-2.3-3.2-1.8c-2.9,0.9-5.6,1.8-8.1,2.9c-3,1.2-6.5,2-9.6,1.2c-1.8-0.5-3.7-0.6-5.7-0.4c-0.4,0-0.6,0.2-0.7,0.6
	c-0.4,1.7-0.4,2.9,0,3.7c0.8,1.4,1.5,2.8,2.2,4.3c-2.6-1.8-4.6-4.3-6.2-7.4c-0.4-0.7-0.1-1.7,0.5-2.1c1.6-1.1,3.4-2,5.7-2.7
	C698.1,377.7,708.2,374.8,718.6,372z"/>
<path class="st5" d="M674.3,377.8c0.1,1.2,0.6,2.2,1.3,2.9c1.8,1.8,3,3.2,3.7,4.4c0.2,4.1,1.4,7.1,3.6,9.1c1.8,1.6,5,3.4,9.7,5.2
	c0.3,0.1,0.6,0.4,0.7,0.7l1.3,3.2c0.3,0.7,0,1.5-0.7,1.8c-0.2,0.1-0.4,0.1-0.6,0.1c-4.1-0.2-7.7-1-10.6-2.3
	c-1.2-0.5-2.4-1.3-3.5-2.3c-0.9-0.8-1.8-1.5-2.7-2.3l-2.5-2.8l-2.1-3.2c1.3,0.2,2.3,0,2.9-0.6c0.5-0.4,0.7-1,0.6-1.6
	c-0.8-4.1-1.4-8-1.7-11.8c0-0.6,0.1-1.1,0.4-1.6c0.3-0.5,0.4-0.4,0.4,0.1L674.3,377.8z"/>
<path class="st2" d="M543.6,390.1c-4,1.5-9.9,3.5-17.7,6c-2.5,0.8-4.3,0.7-5.5-0.2c-2.8-1.2-5.2-2.6-7.2-4.4c-0.5-1.8,0.1-3,1.9-3.6
	c9.6-3.2,19.1-6.2,28.6-9.2c0.3-0.1,0.6,0.1,0.7,0.4c0,0.1,0,0.2,0,0.3C543.5,382.7,543.2,386.2,543.6,390.1z"/>
<path class="st8" d="M735.6,386c4.8,4.2,9.1,8.9,12.9,14l1.1,1.8c-7.1,2.2-14.1,4.3-21.1,6.5c-6.5,2-12.9,4-19.1,5.8
	c-5.5,1.6-12.1,3.6-19.6,5.9c-6.8,2.1-15,4.6-24.7,7.5c-2.8,0.8-6,2.2-8.4,2.8c-7.1,2-14.2,4.1-21.2,6.5c-2.3,0.8-3.8,0-4.4-2.2
	c-1-3.5-0.9-6.9,0.4-10.2c0.1-0.3,0.3-0.7,0.5-0.9l0,0.6c0,0.3,0.2,0.6,0.5,0.7c2.4,1,4.9-0.9,7.1-1.7c4.4-1.8,8.9-3.6,13.3-5.4
	c3.3-1.3,7.1-2.5,11.4-3.6c3.9-1,7.8-2.1,11.6-3.2c1.7-0.5,3-1.3,4.5-2.1c2.4-1.3,5.5-1.5,8.1-2.2c0.4-0.1,0.5-0.4,0.2-0.7
	c-0.4-0.6-1.1-1.1-1.8-1.2c-4.2-0.8-7.6-2.8-10.4-6.2c0.9,0.7,1.9,1.5,2.7,2.3c1.1,1,2.3,1.7,3.5,2.3c2.9,1.3,6.4,2.1,10.6,2.3
	c0.8,0,1.4-0.5,1.5-1.3c0-0.2,0-0.4-0.1-0.6l-1.3-3.2c-0.1-0.3-0.4-0.6-0.7-0.7c-4.7-1.8-7.9-3.6-9.7-5.2c-2.2-2-3.4-5.1-3.6-9.1
	c2.5,7.7,9.1,14,17.7,13.4c1.9-0.1,3.3-1,4.1-2.7c0.2-0.4,0.1-0.9-0.4-1.2c-0.2-0.1-0.4-0.1-0.6-0.1c-4.4,1.3-8.3,0.9-11.5-1.4
	c-0.7-1.5-1.4-3-2.2-4.3c-0.4-0.8-0.5-2,0-3.7c0.1-0.4,0.3-0.6,0.7-0.6c2-0.2,3.9-0.1,5.7,0.4c3.1,0.8,6.7,0,9.6-1.2
	c2.5-1.1,5.2-2,8.1-2.9c1.6-0.5,2.7,0.1,3.2,1.8c0.6,2,0.4,4.2-0.5,6.5c-0.3,0.8-0.3,1.5-0.3,2.3c0,0.9,0.7,1.5,1.5,1.5
	c0.2,0,0.4,0,0.6-0.1c5.8-2.6,11.6-4.2,17.2-5c0.6-0.1,1.2-0.1,1.9,0c0.4,0.1,0.8-0.1,1.1-0.4C735.6,387,735.7,386.5,735.6,386z"/>
<path class="st1" d="M671.8,392.3l2.1,3.2l0.7,1.5c0.1,0.2,0,0.3-0.1,0.4c-0.1,0-0.2,0-0.3-0.1c-1.9-2.6-4.2-5.4-7-8.6
	c-0.5-0.4-1.1-1.1-2-1.9c-0.7-0.7-1.4-1.2-2.2-1.5c-2.6-1.1-5.3-1.8-8.2-2.1c-2.1-0.2-4.6,0.2-7.8,1.2c-7.8,2.6-15.7,5.2-23.8,7.9
	c-6.1,2-12.1,3.4-18,5.2c-9.8,2.9-19.1,5.6-28.1,8.1c-1,0.3-1.9,0.9-2.9,1.1c-7.2,2.1-14.2,4.4-20.7,6.9c-5.7,2.1-11.7,3.4-17.3,5.3
	c-16.9,5.6-34.4,11-52.6,16c-2.2,0.6-3.2,0.3-3.1-0.8c19.6-5.9,39.2-11.9,58.7-18c10.3-3.2,23.5-8,35.4-11.6l35.4-10.7
	c2.1-0.6,4.1-1.1,5.9-1.7c8.7-2.7,17.7-5.6,26.9-8.7c4-1.3,9.3-3.5,13.3-2.7c3.8,0.8,6.7,2,8.7,3.5
	C667.1,386.1,669.4,388.7,671.8,392.3z"/>
<path class="st2" d="M667.2,388.7c-4.9,0-10.1,1-15.6,2.8c-9.3,3.1-18.1,6-26.4,8.6c-17.1,5.4-34.3,10.8-51.5,16.1
	c-8.9,2.7-18.6,5.8-29,9.3c-3.2,1.1-6.4,1.8-9.8,2.3c-0.3,0-0.6,0.2-0.9,0.4c-0.6,0.4-1.2,0.7-1.9,0.9c-6.8,2.2-13.9,4.5-21.4,6.9
	c-1.1,0.4-2.3,0.8-3.3,1.2c-1,0.4-2.1,0.8-3.2,1.1c-2.7,0.7-5.4,1.6-8.1,2.7c-2.3,0.9-4.7,1-7.2,1.2c-2.6-1.6-5-2.3-7-2
	c-2.8,0.4-8.5,5.6-4.8,9c5.8,5.1,11.5,10.2,17.2,15.6c2.4,2.3,5,5.1,7.8,8.6c0.4,1.1,0.4,2.1,0,3.1c-0.9,0.3-1.3-0.4-1.3-2.2
	c0-0.3-0.1-0.6-0.3-0.9c-2.3-3.1-5-5.9-8.1-8.4c-2.8-2.2-5.4-4.4-7.8-6.6c-4.1-3.6-8.4-7.1-13-10.4c-1.4-1-2.7-0.4-4.1-0.1
	c-2.1,0.5-4,0-5.9-1.5c-0.9-0.7-1.9-0.9-2.6-1.9c-0.2-0.3-0.4-0.5-0.7-0.6c-0.8-0.4-1.5-0.9-2.2-1.4c-0.8-0.7-1.8-1.2-2.9-1.6
	c-0.7-0.2-1.4-0.6-2-1c-0.6-0.4-1.2-0.7-1.9-1c-3.5-1.5-7.1-3.1-10.8-4.8c2.5,0.6,5,1.1,7.2,1.5c0.8,0.2,1.5,0.4,2.2,0.7
	c0.7,0.3,1.4,0.7,2,1.1c0.9,0.6,1.7,0.3,2.6,0.3c0.5,0,0.7-0.2,0.4-0.6l-0.6-1c2.8,1.1,5.2,2.5,7.2,4.3c0.5,0.4,1.1,0.5,1.6,0.2
	c3.7-2.1,8-3.7,12.8-4.8l6.5-1.5c-0.1,1.1,0.9,1.4,3.1,0.8c18.1-5,35.6-10.4,52.6-16c5.6-1.9,11.7-3.2,17.3-5.3
	c6.6-2.5,13.5-4.8,20.7-6.9c1-0.3,1.9-0.9,2.9-1.1c8.9-2.5,18.3-5.1,28.1-8.1c6-1.8,12-3.2,18-5.2c8.1-2.7,16-5.3,23.8-7.9
	c3.1-1,5.7-1.4,7.8-1.2c2.8,0.3,5.5,1,8.2,2.1c0.8,0.3,1.5,0.8,2.2,1.5C666,387.7,666.7,388.3,667.2,388.7z"/>
<path class="st4" d="M667.2,388.7c2.8,3.1,5.2,6,7,8.6c0.1,0.1,0.2,0.1,0.3,0.1c0.2-0.1,0.2-0.2,0.1-0.4l-0.7-1.5l2.5,2.8
	c2.7,3.4,6.2,5.4,10.4,6.2c0.7,0.1,1.4,0.6,1.8,1.2c0.3,0.4,0.2,0.6-0.2,0.7c-2.6,0.7-5.7,0.9-8.1,2.2c-1.5,0.8-2.8,1.6-4.5,2.1
	c-3.8,1.1-7.6,2.2-11.6,3.2c-4.3,1.1-8.1,2.3-11.4,3.6c-4.5,1.8-8.9,3.6-13.3,5.4c-2.1,0.9-4.7,2.8-7.1,1.7
	c-0.3-0.1-0.5-0.4-0.5-0.7l0-0.6c3.7-6,9.2-7.7,14.6-11.3c2.1-1.4,2.8-3.4,2.3-6c-0.1-0.2-0.1-0.5-0.2-0.7c-1.1-2.1-2.6-2.4-4.5-1
	l-14.6,10.8c-1.6,1.4-3.1,2.7-4.6,4.1c-1.4,1.3-2.8,2.1-4.3,2.6c-4,1.3-7.9,2.7-11.8,4.1c-3,1.1-6,1-8.9,2.4
	c-0.5,0.3-1.1,0.3-1.7,0.2c-0.6-0.2-1.2-0.5-1.6-1.1c-0.2-0.3-0.5-0.4-0.9-0.3c-1.9,0.3-3.9,0.1-6.1-0.5c-0.4-0.1-0.7-0.1-1.1,0.1
	c-0.9,0.5-1.6,1.2-2.3,1.9c-0.1,0.2-0.3,0.3-0.5,0.4c-1.6,0.7-3.3,1.1-5,1.2c-1.7,0-3.2,0.3-4.6,0.9c-1.8,0.7-3.6,1.4-5.5,2.2
	c-1.8,0.7-2.5,2.2-4.3,2.6c-0.3,0-0.4,0.3-0.5,0.5c0,0.3-0.2,0.4-0.4,0.4c-1.2,0.2-2.3,0.6-3.4,1.2c-2,1.1-3.9,1.4-6,2.1
	c-0.9,0.3-1.8,0.5-2.7,0.6c-1.9,0.2-3.9,0.5-5.9,0.8c-0.8,0.1-1.6-0.2-2.1-0.8c-2-2.5-3.9-5-5.8-7.7c-0.7-1.1-1.8-1.4-2.5-2.5
	c-0.2-0.3-0.6-0.4-0.9-0.2c-0.1,0.1-0.3,0.2-0.3,0.4c-0.1,0.3-0.1,0.7,0.1,1c1.1,2.6,2.6,4.8,4.6,6.7c1.1,1,1.6,2.3,2.6,3.3
	c0.9,1,0.7,1.7,0.7,2.9c0,0.6-0.3,0.8-0.8,0.4l-2.5-1.5c-0.4-0.2-0.8-0.1-1,0.3c-0.1,0.1-0.1,0.3-0.1,0.4c0,1,0.1,1.9,0.2,2.8
	c0.1,0.6,0.3,1.2,0.6,1.8c0.5,0.8,0.3,1.6-0.4,2.2c-0.2,0.2-0.2,0.4-0.1,0.6c0.1,0.2,0.1,0.4,0,0.6c-0.2,0.3-0.4,0.4-0.8,0.6
	c-1.5,0.6-3,1.2-4.3,2.1c-0.3,0.2-0.5,0.2-0.8,0.1c-1.4-0.4-2.7-0.9-4-1.6c-0.3-0.2-0.6-0.2-0.9-0.2c-2,0-4,0-6,0
	c-1.6,0-3.6,0.3-5.8,1.1c-3.6,1.2-7.3,2.3-11.1,3.1l-17.3-15c2.5-0.2,4.9-0.2,7.2-1.2c2.7-1.1,5.4-2,8.1-2.7
	c1.1-0.3,2.2-0.6,3.2-1.1c1.1-0.5,2.2-0.9,3.3-1.2c7.4-2.4,14.6-4.7,21.4-6.9c0.7-0.2,1.3-0.5,1.9-0.9c0.3-0.2,0.6-0.3,0.9-0.4
	c3.3-0.5,6.6-1.3,9.8-2.3c10.4-3.5,20.1-6.6,29-9.3c17.2-5.3,34.3-10.6,51.5-16.1c8.3-2.6,17.1-5.5,26.4-8.6
	C657.1,389.7,662.3,388.8,667.2,388.7z"/>
<path class="st4" d="M543.6,390.1l12.3,5.6l10,2c0.3,0.1,0.4,0.2,0.2,0.5l-0.3,0.3l-31.2,9.7c-0.8-0.1-1.6-0.2-2.3-0.3
	c-0.7-0.1-1.4-0.5-2-1c-3.7-3.2-7.1-6.9-10-10.9c1.2,0.9,3,1,5.5,0.2C533.7,393.6,539.6,391.6,543.6,390.1z"/>
<path class="st8" d="M513.2,391.6c2,1.7,4.4,3.2,7.2,4.4c2.9,4,6.2,7.7,10,10.9c0.6,0.5,1.3,0.8,2,1c0.7,0.1,1.5,0.2,2.3,0.3
	c-1.8,0.5-3.5,0.9-5.1,1.2c-1.1,0.2-2,0.7-2.8,1.5c-3-3.1-4.9-4.9-5.8-5.5c-2.8-1.7-5.5-3.4-8.2-5.3l-9.4-6c1.1,0.2,2.4,0,3.9-0.4
	c1.3-0.4,3.1-0.4,5.4,0c0.3,0.1,0.6-0.1,0.7-0.4C513.5,392.7,513.5,392.2,513.2,391.6z"/>
<path class="st2" d="M503.2,394.1l9.4,6c0,0.5-0.4,0.9-1.2,1.1c-11.4,3.4-20.9,6-33.6,10c-5.4,1.7-10.9,3.3-16.4,4.7
	c-2.2,0.6-5.8,2.3-11,5.2c-5.6-2.4-11.2-4.1-16.9-5.1c-0.2,0.2-0.3,0.1-0.3-0.3c0-0.1,0.1-0.3,0.2-0.3c20.5-7.4,41.1-14.1,62-20.3
	C498.3,394.4,500.9,394,503.2,394.1z"/>
<path class="st7" d="M569.2,397.9l-1.3,1.4c-0.7,0.7-0.7,1.8,0,2.4c0,0,0.1,0.1,0.1,0.1c2.1,1.7,4.3,2.7,6.8,2.9
	c-11.9,3.6-25.1,8.4-35.4,11.6c-19.5,6.1-39.1,12.2-58.7,18l-6.5,1.5c-1.6-2.8-4.2-5.3-7.7-7.5c2.7-0.1,4.8-0.3,6.3-0.8
	c13.8-4.5,27.6-8.8,41.5-12.8c3.9-1.1,8-2.4,12.4-3.9c0.8-0.8,1.8-1.3,2.8-1.5c1.6-0.3,3.4-0.7,5.1-1.2l31.2-9.7L569.2,397.9z"/>
<path class="st9" d="M748.5,400c0.8-0.1,1.5,0.4,1.9,1.5c0.2,0.5,0.9,1.4,2,2.7c0.2,0.3,0.4,0.6,0.4,0.9l0.5,3
	c0.1,0.4,0.2,0.6,0.6,0.8c2.4,1.4,3.8,3.3,4.2,5.5c-4.4,1.2-8.9,2.2-13.1,3.5c-22.5,7-45.2,14.3-68.3,21.8
	c-4.2,1.4-8.6,2.7-13.4,4.1c-4.8,1.4-8.8,3.1-13.3,4.3c-4.7,1.3-9.4,3-14.1,4.5c-13.1,4-30.2,9.5-51.4,16.4c-0.7,0.2-1.1,1-1.1,2.2
	c-0.1,0.7,0,1.5,0.4,2.3c0.8,1.6,0.5,2.7-0.9,3.3c-1.3,0.6-2.7,1-4.2,1.4c-0.3,0.1-0.5,0.3-0.5,0.6c0,0.1,0,0.3,0.1,0.4
	c0.3,0.4,0.2,0.6-0.3,0.7c-0.6,0.1-0.8,0.4-0.7,0.9c-0.2-2.2-0.5-3.1-1.1-2.6c-1.2-2.3-3.1-3.4-5.8-3.4c-9.2,0.1-18.3,4.4-27,7.1
	c-6,1.8-10,3.1-12,3.9c-1.2,0.5-1.4,1.2-0.6,2.2l0.5,1.2c-0.4,0.2-0.8,0.2-1.1,0c-0.3-0.1-0.5-0.4-0.5-0.8c-0.2-2,0.7-3.6,2.5-4.6
	c0.3-0.2,0.5-0.5,0.4-0.9c-0.1-1-0.7-1.8-1.8-2.3c-0.2-0.1-0.3-0.3-0.3-0.5c0-0.2,0.1-0.2,0.1-0.2c0.2,0,0.2-0.1,0-0.2
	c-1.3-0.7-2.5-0.9-3.8-0.5c-0.3,0.1-0.7,0.1-1,0c-2.1-0.6-3.8-1.9-5.1-4.1c-0.2-0.3-0.3-0.5-0.5-0.7c-0.9-0.9-1.7-1.9-2.3-3
	c-0.4-0.7-0.9-1.4-1.5-1.9c-0.7-0.6-1.2-1.2-1.8-1.9c-0.2-0.2-0.4-0.3-0.6,0c-0.1,0.1-0.2,0.1-0.2-0.1c-0.1-0.2-0.2-0.4-0.1-0.6
	c0-0.2,0-0.4-0.1-0.6c-0.1-0.2-0.3-0.3-0.5-0.1c-0.1,0.1-0.2,0.1-0.3,0.1c-0.1,0-0.2-0.1-0.1-0.2c0-0.4,0-0.7-0.2-0.9
	c-0.3-0.4-0.4-0.3-0.3,0.1c0,0.3,0,0.7,0,1c-0.1,0.7-0.2,0.7-0.5,0.1c0,0,0-0.1,0-0.1c0.2-0.3,0.1-0.4-0.2-0.3
	c-0.8,0.3-1.5,0.7-2.1,1.3c-0.3,0.3-0.4,0.6-0.3,1c0.2,0.8,0.1,1.5-0.5,2.2c-0.2,0.3-0.2,0.7,0.1,0.9c0,0,0,0,0,0
	c0.6,0.5,0.7,1.1,0.1,1.7c-0.2,0.2-0.1,0.3,0.1,0.4c0.2,0.1,0.3,0.2,0.3,0.4c0,0.2-0.1,0.4-0.2,0.6c-0.3,0.3-0.3,0.6-0.1,0.9
	c0.9,2,1.5,4.1,1.6,6.3c0,0.3,0.2,0.5,0.5,0.5c0.1,0,0.2,0,0.3,0.1c0.1,0.1,0.2,0.1,0.2,0.2c0.1,0.2,0,0.4-0.1,0.5
	c-0.1,0.2-0.1,0.3,0.1,0.4c0.5,0.1,0.8,0.5,0.7,1c0,0.3,0.1,0.6,0.4,0.7l1.3,0.5c0.4,0.1,0.7,0.4,0.9,0.7c0.6,0.8,1.2,1.6,1.8,2.2
	c0.7,0.7,1.2,1.6,1.5,2.7c0.4,1.3,0.5,2.7,0.5,4.1l-7.1-8.8c-0.4-0.1-0.9,0-1.4,0.2c-0.3,0.1-0.5,0.1-0.7-0.2c-0.4-0.5-1-0.9-1.7-1
	c-0.3,0-0.6-0.2-0.8-0.5c-1-1.7-1.8-3.5-2.4-5.3c-0.2-0.5-0.2-0.9-0.1-1.3c0.1-0.5,0.3-0.9,0.5-1.4c0.1-0.3,0.2-0.6,0.1-0.9
	c-0.3-1.5-1.1-2.5-2.6-2.8c-2.7-3.5-5.3-6.4-7.8-8.6c-5.7-5.3-11.4-10.5-17.2-15.6c-3.8-3.3,2-8.6,4.8-9c2.1-0.3,4.4,0.4,7,2
	l17.3,15l13.9,15.7c0.7,1.1,1.6,2,2.6,2.8c0.3,0.2,0.6,0.2,0.9,0.2c5.7-1.1,11.4-2.8,16.9-4.9c0.3-0.1,0.6-0.3,0.8-0.5
	c0.3-0.2,0.7-0.3,1.1-0.3c1.8,0.2,4.6-1.1,6.2-1.7c0.4-0.2,0.7-0.5,0.8-1l0.7-4.6c0.1-0.4,0-0.8-0.2-1.1c-0.8-1.2-1.3-2.4-1.4-3.5
	c-0.2-1.6,0.2-1.7,1.2-0.5c2,2.3,3.5,4.8,4.7,7.2c0.1,0.3,0.4,0.5,0.7,0.6c1.3,0.5,2.8,0.5,4.6,0.1c1.5-0.3,2.8-0.7,3.7-1.1
	c0.7-0.3,1.5-0.6,2.3-0.8c2.3-0.7,4.7-1.4,7.1-2.1c2-0.6,3.8-1.3,5.6-2.1c2-0.9,4.1-1.6,6.3-2.1c5-1,9.6-2.7,14.4-4.4
	c0.7-0.3,1.5-0.4,2.2-0.5c1.8-0.2,3.4-1.1,5.1-1.6c6.4-1.8,12.8-3.8,19.1-5.9c0.3-0.1,0.6-0.3,0.8-0.6l2-2.9
	c0.2-0.3,0.3-0.7,0.3-1.1c-0.1-1.5,0.5-2.3,1.9-2.5c0.3,0,0.7,0.1,0.8,0.4c0.8,1.1,1.8,2.1,3,2.8c0.3,0.2,0.6,0.2,1,0.1l73.2-22.7
	c0.3-0.1,0.6-0.1,0.9-0.1c0.7,0.1,1.4,0,1.9-0.3c1.3-0.7,2.2-1,3.5-1.5c0.3-0.2,0.7-0.2,1.1-0.2c0.3,0,0.5-0.1,0.7-0.3
	c0.1-0.2,0.3-0.4,0.6-0.4c1.9-0.4,3.8-1,5.8-1.7c1-0.4,1.9-0.2,2.9-0.7c1.4-0.7,3-1.3,4.5-1.6c2.4-0.5,4.8-1.3,7.1-2.3
	c3.2-1.4,7.4-2.8,12.6-4.1c0.4-0.1,0.6-0.3,0.7-0.7c0.4-1.4,0-2.4-1.1-2.8L748.5,400z"/>
<path class="st4" d="M512.7,400.1c2.7,1.8,5.4,3.6,8.2,5.3c0.9,0.6,2.9,2.4,5.8,5.5c-4.4,1.5-8.5,2.8-12.4,3.9
	c-13.9,4-27.8,8.2-41.5,12.8c-1.5,0.5-3.6,0.8-6.3,0.8c-3.1-2.1-5.7-3.5-7.7-4.1c-2.9-0.9-5.6-1.9-8.2-3.1c5.1-2.9,8.8-4.7,11-5.2
	c5.5-1.5,11-3,16.4-4.7c12.7-3.9,22.3-6.6,33.6-10C512.2,401,512.6,400.7,512.7,400.1z"/>
<path class="st5" d="M749.6,401.8c1.1,0.4,1.4,1.4,1.1,2.8c-0.1,0.4-0.3,0.6-0.7,0.7c-5.2,1.4-9.3,2.8-12.6,4.1
	c-2.3,1-4.7,1.7-7.1,2.3c-1.6,0.3-3.1,0.9-4.5,1.6c-1,0.5-1.9,0.3-2.9,0.7c-2,0.8-3.9,1.4-5.8,1.7c-0.3,0.1-0.5,0.2-0.6,0.4
	c-0.2,0.2-0.4,0.3-0.7,0.3c-0.4-0.1-0.7,0-1.1,0.2c-1.2,0.6-2.1,0.8-3.5,1.5c-0.6,0.3-1.2,0.4-1.9,0.3c-0.3,0-0.6,0-0.9,0.1
	l-73.2,22.7c-0.3,0.1-0.7,0.1-1-0.1c-1.2-0.7-2.1-1.7-3-2.8c-0.2-0.3-0.5-0.4-0.8-0.4c-1.4,0.2-2,1-1.9,2.5c0,0.4-0.1,0.8-0.3,1.1
	l-2,2.9c-0.2,0.3-0.5,0.5-0.8,0.6c-6.3,2.1-12.7,4.1-19.1,5.9c-1.7,0.5-3.3,1.4-5.1,1.6c-0.7,0.1-1.5,0.3-2.2,0.5
	c-4.8,1.7-9.4,3.4-14.4,4.4c-2.2,0.5-4.3,1.2-6.3,2.1c-1.8,0.8-3.6,1.5-5.6,2.1c-2.4,0.7-4.8,1.4-7.1,2.1c-0.8,0.2-1.5,0.5-2.3,0.8
	c-0.9,0.4-2.2,0.8-3.7,1.1c-1.7,0.4-3.3,0.3-4.6-0.1c-0.3-0.1-0.6-0.3-0.7-0.6c-1.2-2.5-2.7-4.9-4.7-7.2c-1-1.2-1.4-1-1.2,0.5
	c0.1,1.1,0.6,2.3,1.4,3.5c0.2,0.3,0.3,0.7,0.2,1.1l-0.7,4.6c-0.1,0.5-0.3,0.8-0.8,1c-1.6,0.7-4.4,1.9-6.2,1.7
	c-0.4,0-0.8,0.1-1.1,0.3c-0.3,0.2-0.5,0.4-0.8,0.5c-5.5,2.2-11.2,3.8-16.9,4.9c-0.3,0.1-0.6,0-0.9-0.2c-1-0.7-1.9-1.6-2.6-2.8
	l1.8,0.4c0.3,0.1,0.6,0,0.9-0.1c0.7-0.4,1.3-0.8,2-1.2c0.6-0.4,1.3-0.7,2-0.9c1.1-0.3,2.2-0.7,3.3-1.2c1.2-0.5,2.3-0.9,3.4-1
	c1.7-0.2,3.4-0.7,4.9-1.4c3.4-1.6,6.5-2.7,9.5-3.2c1.1-0.2,1.8-1.2,1.6-2.3c0-0.2-0.1-0.3-0.1-0.4c-0.7-1.7-1.6-3.5-2.7-5.4
	c-1.6-3.1-1.1-3.5,1.6-1.3c2,1.7,3.7,3.9,5.3,6c0.2,0.3,0.5,0.5,0.9,0.5c1,0.1,2,0.1,3.1-0.2c4.8-1.1,9.3-2.4,13.4-3.9
	c1.4-0.5,2.8-0.9,4.3-1.2c3.5-0.8,6.9-2.3,10.4-3.2c7.3-2,14.7-4.1,22.2-6.2c5.8-1.6,11.2-3.9,16.9-5.6c1-0.3,1.6-1.3,1.4-2.2
	c-0.7-3.9-1-8-1-12.4c0-1.9,0.6-3.9,0.9-5.9c0.1-0.3,0.2-0.6,0.4-0.9c1.3-1.3,2.3-2.8,3.1-4.5l14.6-10.8c1.9-1.4,3.4-1.1,4.5,1
	c0.1,0.2,0.2,0.4,0.2,0.7c0.5,2.6-0.2,4.6-2.3,6c-5.4,3.6-10.9,5.3-14.6,11.3c-0.2,0.3-0.3,0.6-0.5,0.9c-1.3,3.3-1.4,6.7-0.4,10.2
	c0.6,2.2,2.1,3,4.4,2.2c7-2.3,14.1-4.5,21.2-6.5c2.4-0.6,5.5-2,8.4-2.8c9.7-2.8,17.9-5.3,24.7-7.5c7.5-2.4,14-4.4,19.6-5.9
	c6.3-1.8,12.7-3.7,19.1-5.8C735.5,406.1,742.5,403.9,749.6,401.8z"/>
<path class="st1" d="M758.1,414.5c0.7,0.3,1.3,1,2,2c0.1,0.9-0.5,1.1-1.6,0.6c-0.3-0.1-0.6-0.2-0.9-0.1c-8.6,1.8-16.7,3.8-24.2,6.2
	c-12.4,3.9-25.4,8.2-39,12.8c-9.7,3.3-19.1,6.3-28.2,9.1c-6.6,2-12.9,4.1-19,6.2c-9.6,3.3-19,6.4-28.1,9.4c-1.4,0.4-2.7,0.8-4.1,1.1
	c-1.4,0.3-2.8,0.7-4.1,1.2c-1.2,0.4-2.3,0.8-3.4,1c-1,0.3-2.1,0.6-3.1,1.1c-1.4,0.6-2.8,1.1-4.4,1.4c-0.4,0.1-0.7,0.3-1,0.5
	c-0.3,0.3-0.7,0.4-1.1,0.4c-1.2,0-2.8,0.7-3.9,1.1c-0.7,0.2-1.5,0.4-2.6,0.6c-2.5,0.5-4.9,1.4-7.2,2.7c0.1-0.3-0.1-0.5-0.5-0.5
	c0-1.2,0.4-1.9,1.1-2.2c21.2-6.9,38.3-12.3,51.4-16.4c4.7-1.5,9.3-3.2,14.1-4.5c4.5-1.2,8.5-2.9,13.3-4.3c4.7-1.4,9.2-2.8,13.4-4.1
	c23-7.5,45.8-14.7,68.3-21.8C749.2,416.7,753.7,415.7,758.1,414.5z"/>
<path class="st8" d="M629.6,415.1c-0.8,1.8-1.8,3.3-3.1,4.5c-0.2,0.2-0.4,0.5-0.4,0.9c-0.4,2-0.9,3.9-0.9,5.9c0,4.4,0.3,8.5,1,12.4
	c0.2,1-0.4,2-1.4,2.2c-5.7,1.7-11.2,4-16.9,5.6c-7.4,2.1-14.8,4.1-22.2,6.2c-3.5,1-6.9,2.5-10.4,3.2c-1.5,0.3-2.9,0.7-4.3,1.2
	c-4.1,1.5-8.5,2.8-13.4,3.9c-1.1,0.3-2.1,0.3-3.1,0.2c-0.4,0-0.6-0.2-0.9-0.5c-1.6-2.1-3.3-4.3-5.3-6c-2.7-2.2-3.2-1.8-1.6,1.3
	c1,1.9,1.9,3.7,2.7,5.4c0.4,1,0,2.2-1,2.6c-0.1,0.1-0.3,0.1-0.4,0.1c-3,0.5-6.1,1.6-9.5,3.2c-1.5,0.7-3.2,1.2-4.9,1.4
	c-1.1,0.1-2.2,0.5-3.4,1c-1.1,0.5-2.2,0.9-3.3,1.2c-0.7,0.2-1.3,0.5-2,0.9c-0.6,0.4-1.3,0.8-2,1.2c-0.3,0.2-0.6,0.2-0.9,0.1
	l-1.8-0.4l-13.9-15.7c3.8-0.8,7.4-1.9,11.1-3.1c2.2-0.8,4.2-1.1,5.8-1.1c2,0,4,0.1,6,0c0.3,0,0.6,0.1,0.9,0.2c1.3,0.7,2.6,1.2,4,1.6
	c0.3,0.1,0.6,0,0.8-0.1c1.3-0.8,2.8-1.5,4.3-2.1c0.3-0.1,0.6-0.3,0.8-0.6c0.1-0.2,0.1-0.4,0-0.6c-0.1-0.2,0-0.4,0.1-0.6
	c0.7-0.7,0.8-1.4,0.4-2.2c-0.3-0.6-0.5-1.2-0.6-1.8c-0.1-0.9-0.2-1.8-0.2-2.8c0-0.4,0.3-0.8,0.7-0.8c0.1,0,0.3,0,0.4,0.1l2.5,1.5
	c0.5,0.3,0.8,0.2,0.8-0.4c0-1.2,0.2-1.9-0.7-2.9c-1-1.1-1.5-2.3-2.6-3.3c-2-1.9-3.5-4.1-4.6-6.7c-0.1-0.3-0.2-0.7-0.1-1
	c0.1-0.4,0.5-0.6,0.9-0.5c0.2,0,0.3,0.2,0.4,0.3c0.6,1.1,1.7,1.4,2.5,2.5c1.9,2.7,3.8,5.2,5.8,7.7c0.5,0.6,1.3,1,2.1,0.8
	c2-0.3,3.9-0.6,5.9-0.8c0.9-0.1,1.8-0.3,2.7-0.6c2-0.7,4-1,6-2.1c1.1-0.6,2.2-1,3.4-1.2c0.3,0,0.4-0.2,0.4-0.4
	c0-0.3,0.2-0.5,0.5-0.5c1.9-0.4,2.6-1.9,4.3-2.6c1.8-0.8,3.7-1.5,5.5-2.2c1.4-0.5,2.9-0.8,4.6-0.9c1.7,0,3.4-0.4,5-1.2
	c0.2-0.1,0.4-0.2,0.5-0.4c0.6-0.8,1.4-1.4,2.3-1.9c0.3-0.2,0.7-0.2,1.1-0.1c2.2,0.6,4.2,0.8,6.1,0.5c0.3-0.1,0.6,0.1,0.9,0.3
	c0.4,0.5,1,0.9,1.6,1.1c0.6,0.2,1.1,0.1,1.7-0.2c2.9-1.4,5.9-1.3,8.9-2.4c3.9-1.4,7.8-2.7,11.8-4.1c1.5-0.5,2.9-1.4,4.3-2.6
	C626.4,417.8,628,416.5,629.6,415.1z M588.1,439.3c-0.9,0.9-0.6,1.9,0.9,3.1c2.2,1.7,5.7,1.6,8.4,1.5c1.8-0.1,2.9-1.3,3.9-2.6
	c1.9-2.4,2.2-4.2,0.8-5.5c-0.4-0.8-0.9-1.8-1.3-2.9c-0.5-1.2-1-2.1-1.7-2.8c-1.3-1.4-2.9-2.1-4.9-2.1c-1.7,0-3.3,0.7-4.8,2.1
	C586.7,432.5,586.3,435.7,588.1,439.3z"/>
<path class="st9" d="M433.6,416.1c5.7,1,11.3,2.7,16.9,5.1c2.6,1.1,5.3,2.2,8.2,3.1c2,0.6,4.6,2,7.7,4.1c3.5,2.2,6,4.7,7.7,7.5
	c-4.8,1.1-9.1,2.7-12.8,4.8c-0.5,0.3-1.2,0.2-1.6-0.2c-2.1-1.8-4.5-3.2-7.2-4.3c-13.6-6.1-28-9-43.3-8.8c1.9-0.1,3.1-0.5,3.6-1.2
	c0.2-0.3,0.2-0.6,0-0.9c-0.1-0.2-0.1-0.3,0.1-0.4c0.1-0.1,0.2-0.2,0.4-0.2c5.4-1,10.7-1.2,15.9-0.7c0.2,0,0.4,0.1,0.6,0.3l0.2,0.2
	c0.2,0.2,0.4,0.3,0.7,0.2c1.3-0.4,2.7-0.6,4.1-0.6c1.3,0,2.2-0.7,2.9-2.1c0.2-0.4,0.4-0.6,0.8-0.7c0.5-0.1,0.6-0.3,0.2-0.7
	c-0.8-0.7-1-1.2-2-1.7c-1-0.5-1.9-1.1-2.8-1.8C433.4,416.7,433.3,416.4,433.6,416.1z"/>
<path class="st10" d="M760,416.5l4,5.9c-1.3,0.4-2.6,0.8-3.8,1.1c-1.4,0.3-2.7,0.7-3.9,1.1c-6.1,1.9-12.2,3.8-18.4,5.7
	c-14.7,4.5-29.8,10-44.2,14.6c-28.2,9-58.7,18.9-91.6,29.6c-6.2,2-14.1,3.6-18.2-2.7c2.3-1.4,4.7-2.3,7.2-2.7c1-0.2,1.9-0.4,2.6-0.6
	c1.1-0.4,2.8-1.1,3.9-1.1c0.4,0,0.8-0.1,1.1-0.4c0.3-0.3,0.6-0.5,1-0.5c1.6-0.3,3-0.8,4.4-1.4c1-0.5,2.1-0.8,3.1-1.1
	c1.1-0.3,2.2-0.6,3.4-1c1.3-0.5,2.7-0.9,4.1-1.2c1.4-0.3,2.8-0.7,4.1-1.1c9.1-3,18.4-6.1,28.1-9.4c6.1-2.1,12.4-4.1,19-6.2
	c9.1-2.8,18.5-5.8,28.2-9.1c13.6-4.6,26.6-8.8,39-12.8c7.5-2.4,15.6-4.5,24.2-6.2c0.3-0.1,0.6,0,0.9,0.1
	C759.6,417.6,760.1,417.4,760,416.5z"/>
<path class="st8" d="M764,422.5l5.7,10.2l0.6,1.2c0.3,0.6,0,1.3-0.6,1.6c0,0-0.1,0-0.1,0c-13.5,4.5-27.4,8.8-41.7,13
	c-8.4,2.4-16.5,6.4-19.6,15.1c-0.5,1.3-0.9,2.7-1.4,4c-0.9,2.4-0.4,5.6,1.3,9.3c-1.3-1.9-2.1-3.8-2.5-5.6c-0.1-0.4-0.2-0.4-0.4,0
	c-0.7,1.3-0.7,2.7,0,4.1c0.5,1.1,1.1,2.2,1.6,3.3c1.7,3.5,4.9,5.5,9.6,5.8c-7.6,0.9-12.8,1.9-15.6,2.9c-4.4,1.6-8.7,3.4-13.1,4.6
	c-4,1.1-8.1,2.2-12.2,3.3c1.1-2.7,2.2-5.1,3-7.3c0.1-0.2,0.1-0.6-0.1-1.2c-0.1-0.2-0.2-0.3-0.3-0.1c-0.2,0.1-0.3,0.2-0.4,0.1
	c0.8-4.8-0.6-11.4-6.1-12.5c-9-1.9-13.7,6.5-12,14.4l-0.5,0c-0.3,0-0.5,0.2-0.5,0.5c0,0.1,0,0.2,0.1,0.2c1.6,2.9,4,4.7,7.1,5.6
	c1.9,0.5,4,0.9,6.2,1.1c-8,2.8-16,5.3-24.1,7.5c-3.4,0.9-6.5,2.7-10,3.6c-5.4,1.4-10.6,3.4-16,5c-7.3,2.2-14.3,4.3-22.1,5.6
	c-0.6,0.1-1.2-0.3-1.4-1c-0.4-2.1-0.3-4.3-1.2-6.3c-2-4.6-5-7.8-8.9-9.8c-0.7-0.4-1.4-0.8-2-1.4c-1.5-1.4-4.4-1.4-6.4-1.6
	c-2.5-0.3-4.8,0.2-7,1.2l-30.5,9.8c-1.8-4.8-4.1-9.3-7.1-13.5c8.9-1.8,17.7-5,26.4-7.6c0.1,0,2.4-0.6,6.9-1.9
	c2.3-0.6,4.6-1.4,6.8-2.2c1.3-0.5,1.7-1.3,1.9-2.6c-0.1-0.5,0.1-0.8,0.7-0.9c0.5-0.1,0.6-0.3,0.3-0.7c-0.1-0.1-0.1-0.2-0.1-0.4
	c0-0.3,0.2-0.6,0.5-0.6c1.4-0.3,2.8-0.8,4.2-1.4c1.4-0.6,1.8-1.7,0.9-3.3c-0.4-0.8-0.5-1.5-0.4-2.3c0.4,0,0.5,0.2,0.5,0.5
	c4.1,6.2,12,4.7,18.2,2.7c32.8-10.7,63.4-20.6,91.6-29.6c14.5-4.6,29.6-10.1,44.2-14.6c6.1-1.9,12.3-3.8,18.4-5.7
	c1.2-0.4,2.5-0.7,3.9-1.1C761.5,423.2,762.8,422.9,764,422.5z M612.6,489.1c-1.6-0.3-3.1-0.3-4.4,0c-0.3,0.1-0.6,0.3-0.8,0.5
	c-0.9,1.2-1.4,2.6-1.3,4.1c0,0.4,0.1,0.7,0.4,0.9c1.2,1.2,2.4,1.9,3.6,2.2c4.3,0.9,8.3,2.5,12.5,3.5c3,0.7,6.1,1.6,9.5,2.6
	c3.4,1,7.3,1.3,9.8-1.6c0.2-0.2,0.3-0.6,0.3-0.9c-0.2-2.5-1.3-3.9-3.4-4c-1.1-0.1-2.3-0.3-3.6-0.7c-2.5-0.8-5.1-1.4-7.7-1.9
	c-4-0.7-8.3-2.2-12.9-4.6c-0.3-0.2-0.7-0.2-1.1-0.2C613.2,489.1,612.9,489.1,612.6,489.1z"/>
<path class="st11" d="M409.1,427.4c15.3-0.2,29.8,2.8,43.3,8.8l0.6,1c0.3,0.4,0.2,0.7-0.4,0.6c-1,0-1.8,0.2-2.6-0.3
	c-0.6-0.4-1.3-0.8-2-1.1c-0.7-0.3-1.4-0.5-2.2-0.7c-2.3-0.4-4.7-0.9-7.2-1.5c-3.5-1.1-6.8-1.8-9.8-2.2c-9.8-1.4-20.9-2.1-30.5-0.8
	c-7.9,1-15.8,3-23.6,6.1c-9.5,3.7-18.3,8.2-26.4,13.6c-4.7,3.2-9.8,7.4-15.2,12.6c-0.2,0.2-0.5,0.3-0.7,0.2c-0.5-0.1-0.8-0.4-0.9-1
	c12.4-13.2,27.6-22.9,45.4-29.1C387.9,429.8,398.6,427.8,409.1,427.4z"/>
<path class="st9" d="M602.1,435.7c-2.3,6.1-9.1,7.5-14,3.6c-1.8-3.7-1.4-6.8,1.3-9.3c1.5-1.4,3.1-2.1,4.8-2.1c2,0,3.6,0.7,4.9,2.1
	c0.6,0.7,1.2,1.7,1.7,2.8C601.2,433.9,601.7,434.9,602.1,435.7z"/>
<path class="st10" d="M438.6,434.2c3.6,1.7,7.2,3.3,10.8,4.8c0.7,0.3,1.3,0.6,1.9,1c0.7,0.4,1.3,0.8,2,1c1.1,0.4,2.1,0.9,2.9,1.6
	c0.7,0.5,1.4,1,2.2,1.4c0.3,0.1,0.5,0.4,0.7,0.6c0.6,0.9,1.7,1.2,2.6,1.9c1.9,1.5,3.9,2,5.9,1.5c1.5-0.4,2.7-0.9,4.1,0.1
	c4.6,3.3,9,6.8,13,10.4c2.4,2.1,5,4.3,7.8,6.6c3,2.4,5.7,5.2,8.1,8.4c0.2,0.3,0.3,0.6,0.3,0.9c0,1.8,0.4,2.5,1.3,2.2
	c-1,2.7-2.8,5.2-5.5,7.5c-4.5-4.1-9-8.3-13.4-12.6c-5.2-5-10.1-9.2-16-13.4c-4.2-3-1.4-4.9,0-7.9c0.3-0.6,0.1-0.7-0.4-0.3
	c-3.1,2.2-5.3,6.3-9.7,3.6c-8.3-5-18.5-8.6-30.4-10.8c-13.7-2.5-27.4-1.9-41.3,2c-21,5.9-38.6,16.9-52.7,33c-4.1-1.3-6-4.6-5.7-10.1
	l4.3-4.8c0,0.6,0.3,0.9,0.9,1c0.3,0,0.5-0.1,0.7-0.2c5.4-5.3,10.5-9.5,15.2-12.6c8.1-5.4,16.9-9.9,26.4-13.6
	c7.9-3,15.7-5.1,23.6-6.1c9.5-1.2,20.7-0.5,30.5,0.8C431.8,432.4,435.1,433.1,438.6,434.2z"/>
<path class="st9" d="M775.3,446.6c-0.4-0.1-0.8-0.2-1.1-0.1c-13.9,4.6-27.8,9.1-41.8,13.5c-1.2,0.4-2.5,1.2-3.7,2.4
	c-0.8,0.8-1.5,2-2.2,3.6c-1.2,2.9-2.7,5.6-4.5,8.2c-4.3,5.4-8.9,6.3-13.9,2.7c-1.7-3.8-2.2-6.9-1.3-9.3c0.5-1.3,0.9-2.6,1.4-4
	c3.1-8.7,11.2-12.7,19.6-15.1c14.3-4.1,28.2-8.5,41.7-13c0.6-0.2,0.9-0.9,0.7-1.5c0,0,0-0.1,0-0.1l-0.6-1.2c1,1.1,1.6,2.2,1.8,3.4
	C771.9,440.2,773.2,443.7,775.3,446.6z"/>
<path class="st10" d="M588.1,439.3c4.9,3.9,11.7,2.5,14-3.6c1.4,1.3,1.1,3.1-0.8,5.5c-1.1,1.3-2.2,2.5-3.9,2.6
	c-2.6,0.1-6.2,0.2-8.4-1.5C587.5,441.2,587.2,440.2,588.1,439.3z"/>
<path class="st8" d="M496.8,484.1c-2.1,2-3.4,3.4-3.8,3.9c-1.1,1.4-1.8,3.1-2.2,5.3c-0.2,1.2,0,2.3,0.6,3.4c0.8,1.4,1.6,2.6,2.4,3.7
	c0.4,0.5,0.8,0.9,1.3,1.3c0.3,0.2,0.7,0.3,1.1,0.2c0.4-0.1,0.6-0.3,0.8-0.6c0.4-1,1.1-1.6,2.2-1.8c0.3-0.1,0.6-0.2,0.8-0.5l1.1-1.1
	c0.2-0.2,0.5-0.4,0.8-0.4c1.5-0.2,2.4-1.2,2.6-2.9c3,5.4,7.2,10.9,9.8,15.6c5.6,10,9.7,19.8,12.4,29.3c1,3.7,2.6,10.9,4.8,21.7
	c0.4,6.5,0.8,12.9,1.1,19.3c0.1,2.2-0.2,4.6-0.2,7l-0.7-5c0-0.3-0.2-0.5-0.6-0.5c-1.6,0-2.9,0.5-3.9,1.6c-0.2,0.3-0.5,0.4-0.8,0.6
	c-1.9,0.7-2.6,2.2-3.7,3.6c-0.1,0.2-0.2,0.1-0.3,0c0,0,0-0.1-0.1-0.1c-0.3,0-0.4,0.1-0.5,0.4c-1.2,3.2-1.6,6.5-1.3,9.8
	c0,0.3,0,0.6-0.2,0.9l-0.9,2c1.2-12.2,1.9-21.8,0.5-33.4c-2.4-21.6-9.1-41.9-21.5-59.8c-10.2-13.6-17.5-22.4-27.4-30.7
	c-12.2-10.1-25.6-16.7-40.2-19.9c-11.6-2.5-22.6-3-32.8-1.5c-22.9,3.4-41.6,14.3-56.2,32.6c-0.6-1.6-1.4-3.5-2.3-5.7
	c-0.4-1-1.3-2.3-2.2-2.7c-1.8-1-3.3-1.7-4.5-2c14.1-16.1,31.7-27.1,52.7-33c13.8-3.9,27.6-4.5,41.3-2c12,2.2,22.1,5.8,30.4,10.8
	c4.5,2.7,6.7-1.4,9.7-3.6c0.5-0.4,0.7-0.3,0.4,0.3c-1.4,3-4.2,4.9,0,7.9c5.9,4.2,10.8,8.4,16,13.4
	C487.8,475.7,492.2,479.9,496.8,484.1z"/>
<path class="st12" d="M775.3,446.6c-0.1,0.2,0.1,0.4,0.4,0.9c-0.5,1.2-1.7,2-3.6,2.5c-1.2,0.3-2.3,0.7-3.2,1.1
	c-1.1,0.4-2.2,0.7-3.3,0.9c-0.7,0.1-1.5,0.7-2.3,0.9c-3.4,1-6.9,2.1-10.7,3.3c-1.4,0.4-2.9,0.8-4.4,1.1c-1.5,0.3-3.1,0.7-4.6,1.2
	c-0.3,0.1-0.5,0.3-0.7,0.6c-0.1,0.3-0.3,0.4-0.6,0.3c-0.3-0.1-0.5,0-0.7,0.1c-2,1.1-4.1,1.8-6.2,1.9c-0.4,0-0.7,0.2-0.9,0.4
	c-0.7,0.9-1.9,1-2.9,1.8c-1.3,1.1-2.6,2.2-3.4,3.8c-1.4,2.9-3.1,5.5-5.1,7.8c-0.2,0.3-0.7,0.3-0.9,0c-0.2-0.2-0.2-0.4-0.2-0.6
	l0.1-0.5c1.8-2.5,3.3-5.3,4.5-8.2c0.7-1.6,1.4-2.8,2.2-3.6c1.2-1.2,2.4-2,3.7-2.4c13.9-4.4,27.8-8.9,41.8-13.5
	C774.5,446.5,774.9,446.5,775.3,446.6z"/>
<path class="st3" d="M775.8,447.5l2,3.6c0.1,1.7-0.6,2.7-2.1,3.2c-12.6,4.1-25.2,8.1-37.8,12c-2,0.6-3.3,1.4-4,2.4
	c-2.8,4-5.9,7.7-9.2,11.1l-7.9,4.5c-4.7-0.3-7.9-2.3-9.6-5.8c-0.6-1.1-1.1-2.2-1.6-3.3c-0.7-1.4-0.7-2.8,0-4.1
	c0.2-0.4,0.3-0.3,0.4,0c0.4,1.8,1.3,3.7,2.5,5.6c5,3.6,9.6,2.7,13.9-2.7l-0.1,0.5c-0.1,0.4,0.2,0.7,0.5,0.8c0.2,0,0.4,0,0.6-0.2
	c2-2.3,3.7-4.9,5.1-7.8c0.8-1.6,2.1-2.6,3.4-3.8c0.9-0.8,2.1-0.9,2.9-1.8c0.2-0.3,0.5-0.4,0.9-0.4c2.1-0.1,4.2-0.7,6.2-1.9
	c0.2-0.1,0.5-0.2,0.7-0.1c0.3,0.1,0.5-0.1,0.6-0.3c0.1-0.3,0.3-0.5,0.7-0.6c1.6-0.5,3.1-0.9,4.6-1.2c1.5-0.3,3-0.6,4.4-1.1
	c3.7-1.2,7.3-2.3,10.7-3.3c0.8-0.2,1.5-0.8,2.3-0.9c1.1-0.2,2.2-0.5,3.3-0.9c1-0.4,2.1-0.8,3.2-1.1
	C774.1,449.5,775.3,448.7,775.8,447.5z"/>
<path class="st8" d="M777.8,451.1l3,9.4l-0.3,2.7c0,0,0,0.1-0.1,0.1c-0.1,0.1-0.2,0.1-0.3-0.1c-0.1-0.2-0.3-0.2-0.5-0.1
	c-3.5,1.9-6.9,3.3-10.3,4.2c-5.5,1.5-8.8,2.5-9.7,2.8c-3.4,1.3-7,2.6-10.8,3.8c-0.8,0.3-3.9,1.4-9.4,3.4c-4.3,1.5-7.5,2.4-9.6,2.6
	c-0.9,0.1-2.6,0-5.2-0.2c3.4-3.5,6.4-7.2,9.2-11.1c0.7-1,2-1.8,4-2.4c12.6-3.9,25.2-7.9,37.8-12
	C777.1,453.9,777.8,452.8,777.8,451.1z"/>
<path class="st13" d="M498.4,507.5l2.8,6.2c0.1,0.3,0.1,0.6,0,0.9l-1.7,4.4c-0.1,0.2-0.2,0.4-0.4,0.5c-1,0.7-2.1,1.1-3.4,1.3
	c-0.9,0.1-1.8,0.1-2.7,0.1c-1.1,0-2-0.3-2.8-1c-0.2-0.2-0.5-0.3-0.8-0.4c-1.3-0.3-2.5-0.9-3.7-1.7c-0.3-0.2-0.5-0.4-0.9-0.5
	c-0.4-0.2-0.7-0.6-0.7-1.2c0-0.3-0.2-0.6-0.4-0.8c-0.5-0.5-1.1-0.8-1.8-1c-9.3-12.8-20.9-22.8-34.8-29.9
	c-16.4-8.4-33.8-10.6-52.2-6.4c-9.4,2.1-17.4,5.5-24.2,10c-11.7,7.8-21,18.2-28,31.3l-2.8,4.2c-0.2,0.4-0.6,0.6-0.9,0.9l-1.7,1
	c-0.1,0.1-0.3,0.1-0.4-0.1c-0.1-0.1-0.1-0.2,0-0.3c0.3-0.3,0.3-0.4-0.1-0.2c-0.3,0.2-0.6,0.2-0.9,0.1c-0.1,0-0.1-0.1-0.1-0.2
	c0,0,0-0.1,0.1-0.1c0.1-0.1,0.1-0.2,0-0.3c-0.1-0.1-0.2-0.1-0.4-0.1c-0.6,0-1.2,0-1.7,0.1c-0.3,0.1-0.6,0-0.8-0.3
	c-0.7-0.9-1.2-2-1.5-3.3c-0.1-0.3-0.2-0.4-0.4-0.5c-1.4-0.3-2.6-0.9-3.6-1.8c-0.2-0.1-0.2-0.3-0.2-0.5c0-0.2,0.1-0.3,0.3-0.3
	c0.2-0.1,0.3-0.2,0.3-0.5l-0.6-3.5c0,0,0-0.1-0.1-0.1c0,0,0,0-0.1,0c-0.1,0.1-0.2,0.2-0.3,0.1c-0.4-0.3-0.3-0.5,0.1-0.8l0.5-0.3
	c0.3-0.2,0.5-0.4,0.6-0.7c0.4-1.6,0.6-3.2,0.5-4.7l3.6-7l4.1-5.9c3.5-1.6,5.4-3.8,5.8-6.5c14.6-18.3,33.3-29.2,56.2-32.6
	c10.2-1.5,21.1-1,32.8,1.5c14.6,3.2,28,9.8,40.2,19.9C480.9,485.1,488.2,493.9,498.4,507.5z"/>
<path class="st5" d="M780.7,460.5c1.5,4.5,2.7,9,3.4,13.7c0.1,0.8,0.1,1.7-0.1,2.6c-0.1,0.3-0.3,0.6-0.6,0.7
	c-1.6,0.8-2.8,1.2-3.6,1.4c-4.2,0.7-8.3,1.7-12.4,3.2c-2.3,0-4.7-0.2-7-0.5c-3-0.3-5.3-0.4-7-0.2c-4.8,0.6-14.1,2.9-17.2,7
	c-1.9,2.6-3.2,5.6-3.9,9c-2.9,3-6,6.5-9.4,8.6c-4.3,2.6-9.1,3.9-14.2,4c-3.8,0-7.6-1.1-11.4-1.7c-3.7-0.6-7.3-0.3-11,0.9
	c-8,2.6-15.9,5.2-23.9,7.8c-2.6,0.9-5.2,1.7-7.7,2.4c-6.5,1.9-12.1,3.9-19.2,5.9c-7.4,2.1-13.6,4.2-18.6,6.5c-1,0.5-2.2,0.9-3.5,1.2
	c-9.6,2.7-19.5,5.9-29.7,9.5c-6.9,2.5-15,5-24.2,7.6c-2.2,0.6-3.9-0.7-5-4.1c0-2.2-0.2-3.6-0.5-4.1c-0.7-1.3-1.1-2.8-1.2-4.3
	c7-2.9,13.2-5.1,18.4-6.5c3.4-1,6.8-1.9,10.2-2.9c1.9-0.6,3.4-1.4,4.5-2.6c1.4-1.6,2.4-3.1,2.9-4.5c0.5-1.4,0.6-3.2,0.3-5.5
	c-0.2-0.3-0.3-0.7-0.2-1.1c0.3,0.3,0.7,0.4,1,0.4c0.3,0,0.6-0.3,0.7-0.6c0.1-0.5,0-1.1-0.4-1.6c-0.2-0.3-0.2-0.6-0.2-0.9l0.6-2.7
	c0-0.2,0.1-0.4,0.2-0.5c0.4-1-0.3-1.4-0.1-2.3c0.1-0.4,0.3-0.6,0.7-0.6c0.4-0.1,0.6-0.4,0.6-0.8c0-0.1-0.1-0.3-0.2-0.3
	c-0.9-0.9-1.8-1.8-2.8-2.7c-0.9-0.8-2-1.4-3.2-1.8c-1.2-0.4-2.3-0.8-3.4-1.2c-0.9-0.3-1.8-0.5-2.8-0.5c-2.2,0-4.3,0.2-6.6,0.6
	c2.2-1.1,4.6-1.5,7-1.2c2,0.2,4.9,0.2,6.4,1.6c0.6,0.6,1.3,1,2,1.4c3.9,2,6.9,5.2,8.9,9.8c0.8,1.9,0.8,4.2,1.2,6.3
	c0.1,0.6,0.7,1.1,1.4,1c7.8-1.3,14.9-3.5,22.1-5.6c5.4-1.6,10.5-3.6,16-5c3.5-0.9,6.5-2.7,10-3.6c8.1-2.2,16.2-4.7,24.1-7.5
	c1.6-0.6,2.8-0.9,3.6-0.7c4.2-1.1,8.3-2.2,12.2-3.3c4.4-1.2,8.7-3,13.1-4.6c2.9-1,8.1-2,15.6-2.9l7.9-4.5c2.6,0.2,4.4,0.3,5.2,0.2
	c2.1-0.2,5.3-1.1,9.6-2.6c5.4-2,8.6-3.1,9.4-3.4c3.8-1.2,7.4-2.5,10.8-3.8c1-0.4,4.2-1.3,9.7-2.8c3.4-0.9,6.8-2.4,10.3-4.2
	c0.2-0.1,0.4-0.1,0.5,0.1c0.1,0.1,0.2,0.1,0.3,0.1c0,0,0.1-0.1,0.1-0.1L780.7,460.5z"/>
<path class="st7" d="M327.2,467.5c-0.3,5.5,1.6,8.8,5.7,10.1c1.2,0.3,2.7,1,4.5,2c0.8,0.5,1.7,1.7,2.2,2.7c0.9,2.2,1.7,4.1,2.3,5.7
	c-0.4,2.7-2.3,4.9-5.8,6.5c-3.1,0.6-5.7-1-7.6-4.9c-2.5-3.8-5.5-6.8-9-8.9c-0.3-0.2-0.6-0.2-0.9-0.1c-0.9,0.2-1.6,0.9-2,2
	c-0.2,0.4-0.4,0.5-0.5,0.4c0.4-1.4,1-2.5,1.9-3.4c1-0.9,1.7-1.9,2-3c0-0.2,0.1-0.3,0.3-0.4c0.1-0.1,0.1-0.1,0.2-0.1
	c0.2-0.1,0.3-0.2,0.4-0.3C322.4,472.8,324.6,470,327.2,467.5z"/>
<path class="st7" d="M502.2,473.4c1.5,0.4,2.4,1.3,2.6,2.8c0.1,0.3,0,0.6-0.1,0.9c-0.2,0.4-0.4,0.9-0.5,1.4
	c-0.1,0.4-0.1,0.9,0.1,1.3c0.7,1.8,1.5,3.6,2.4,5.3c0.2,0.3,0.4,0.5,0.8,0.5c0.7,0.1,1.3,0.4,1.7,1c0.2,0.2,0.4,0.3,0.7,0.2
	c0.5-0.2,1-0.3,1.4-0.2l-6.8,7.9c-0.2,1.7-1.1,2.7-2.6,2.9c-0.3,0-0.6,0.2-0.8,0.4l-1.1,1.1c-0.2,0.2-0.5,0.4-0.8,0.5
	c-1,0.2-1.8,0.8-2.2,1.8c-0.1,0.3-0.4,0.5-0.8,0.6c-0.4,0.1-0.8,0-1.1-0.2c-0.5-0.4-0.9-0.8-1.3-1.3c-0.8-1.1-1.6-2.3-2.4-3.7
	c-0.6-1.1-0.8-2.2-0.6-3.4c0.4-2.2,1.1-3.9,2.2-5.3c0.5-0.6,1.7-1.9,3.8-3.9c2.7-2.3,4.5-4.8,5.5-7.5
	C502.6,475.5,502.6,474.5,502.2,473.4z"/>
<path class="st9" d="M677.8,486.8c-2.9,8.2-13.4,7.7-18.1,1.8c-1.7-7.8,3-16.2,12-14.4C677.3,475.4,678.6,482,677.8,486.8z"/>
<path class="st1" d="M576.3,478.2c-2.6-1.4-4.4-2-5.3-1.9c-5.5,0.7-10.7,2.1-15.7,4c-1.9,0.8-3.9,0.9-5.9,1.8
	c-1.2,0.6-2.6,1.1-4.3,1.5c-4.8,1.3-9.5,2.7-14.2,4.3c-0.8-1-0.6-1.7,0.6-2.2c2-0.7,6-2,12-3.9c8.7-2.7,17.8-7,27-7.1
	C573.2,474.8,575.1,476,576.3,478.2z"/>
<path class="st2" d="M481.9,514.5c6.3,9.2,11.1,18.1,14.6,26.9c3.6,8.9,5.8,18.6,6.7,29.2c1.7,17.7-1,34.6-8,50.5
	c-0.8,1.8-1.7,3.6-2.7,5.4c0.1-0.8-0.3-1.3-1.1-1.5c-0.6-0.1-1.8-0.2-3.5-0.1c-0.1,0-0.1,0-0.1-0.1c0-0.1-0.1-0.2-0.1-0.2
	c0,0,0,0-0.1,0c-2.3,0.3-4.2-0.3-5.5-2c2.6-4.9,4.4-9.1,5.4-12.5c0.8-2.8,1.7-5.7,2.6-8.5c1.4-4.4,2.1-10.2,2.3-17.5
	c0.2-7.4,0.1-13.3-0.5-17.5c-0.3-2.6-1.3-6.6-2.8-12c-2-5.6-4.3-11-6.8-16.4c-11.2-24.2-31.9-42.6-58-48.7c-4.2-1-8.3-1.5-12.4-1.4
	c-16.3,0.1-30.9,5.2-43.1,16.3c-4.4,3.9-7.8,7.7-10.4,11.1c-3.9,5.3-7.3,11.8-10.3,19.4c-1,2.7-2.4,7.8-4.2,15.5
	c-0.9,4.5-1.4,7.5-1.5,9c-0.1,7.1,0.4,14.2,1.6,21.3c-1-0.5-1.6-1.2-1.8-2c-0.1-0.4-0.4-0.7-0.8-0.7c-0.9,0-1.7,0.3-2.4,1
	c-0.3,0.2-0.5,0.3-0.8,0c-0.7-0.5-1.3-0.6-1.9-0.2c-0.7,0.5-1.4,0.9-2.1,1.4c-0.3,0.2-0.4,0.4-0.4,0.8c0.1,0.9,0,1.8-0.3,2.6
	c-1.8-9.4-1.9-19-1.3-29c0.2-3.6,1-7.1,1.7-10.7c1.5-8.6,4.6-16.5,8.7-24.2c7-13,16.3-23.5,28-31.3c6.8-4.5,14.9-7.9,24.2-10
	c18.4-4.2,35.7-2,52.2,6.4C461,491.7,472.6,501.7,481.9,514.5z"/>
<path class="st10" d="M576.3,478.2c0.6-0.5,0.9,0.3,1.1,2.6c-0.2,1.2-0.6,2.1-1.9,2.6c-2.2,0.9-4.5,1.6-6.8,2.2
	c-4.5,1.2-6.8,1.9-6.9,1.9c-8.7,2.6-17.5,5.9-26.4,7.6l-4-5.9l-0.5-1.2c4.7-1.6,9.5-3.1,14.2-4.3c1.7-0.4,3.1-1,4.3-1.5
	c1.9-0.9,3.9-1,5.9-1.8c5-1.9,10.2-3.3,15.7-4C572,476.3,573.7,476.9,576.3,478.2z"/>
<path class="st2" d="M328.4,489.7c-2.2-0.4-4.7-1.6-7.6-3.8c-0.5-0.4-1.7-0.9-3.8-1.7c-0.6-0.2-0.8-0.7-0.6-1.5c0.5-1.1,1.2-1.8,2-2
	c0.3-0.1,0.7,0,0.9,0.1C322.9,482.9,325.9,485.9,328.4,489.7z"/>
<path class="st6" d="M767.4,482.1c-0.3,0-0.6,0.1-1,0.3c-1.7,0.5-3.4,1.2-5,1.8c-1.6,0.6-3.3,1.2-5.1,1.6
	c-6.6,1.5-12.9,4.1-18.7,7.6c-1.2,0.7-3,2.1-5.3,4.2c0.7-3.4,2-6.4,3.9-9c3.1-4.1,12.4-6.5,17.2-7c1.7-0.2,4-0.1,7,0.2
	C762.7,481.9,765.1,482.1,767.4,482.1z"/>
<path class="st9" d="M766.4,482.4c0.3,0.5,0.1,1-0.6,1.3c-0.5,0.3-0.6,0.6-0.2,1.1c0.2,0.2,0.1,0.3-0.1,0.5c-0.7,0.5-0.8,1-0.2,1.5
	c0.5,0.4,0.9,1.1,1,1.9c0.1,0.6,0.3,0.6,0.4,0c0.1-0.5,0.1-1,0-1.5c-0.1-0.2,0.1-0.5,0.3-0.5c0,0,0.1,0,0.1,0h0.3
	c0.3,0,0.4,0.1,0.4,0.4v1.5c0,0.4,0.2,0.6,0.5,0.6c0.7,0.1,1.4,0.2,2.1,0.6c0.5,0.3,1,0.3,1.6,0.2c0.3-0.1,0.5-0.1,0.8,0
	c1,0.2,1.8,0.3,2.2,0.2c1.3-0.3,2.6-0.7,3.9-1c0.3-0.1,0.6-0.1,1,0.1c0.4,0.2,0.8,0.2,1.2,0c0.3-0.2,0.6-0.2,1-0.2
	c0.6,0,1.3,0,1.9,0c0.6-0.1,1.1,0.1,1.6,0.5c1.2,0.8,1.7,2,1.5,3.7c0,0,0,0,0,0c0-0.4-0.2-0.9-0.6-1.4c-0.6-2-1.6-2.7-3-2.3
	c-5.9,1.8-17.6,5.6-35.1,11.6c-1.8,0.6-3.1,1.4-4.1,2.4c-1.1,1.1-2.1,2.4-2.9,3.9l-2.2,3.9c-1,1-1.3,2-0.9,3
	c0.1,0.3,0.4,0.5,0.7,0.6c4,0.7,7,1.5,8.8,2.6c1.9,1.1,3.8,2.8,5.5,5c0.4,0.5,0.9,1,1.4,1.5c5.4,4.6,9,9.3,17.1,7.1
	c3.5-1,7.1-1.9,10.8-2.9c1.4-0.4,2.8-0.5,4.3-0.6c-0.4,2.6-1.2,6.3-2.6,11c-0.1,0.3-0.1,1.1-0.1,2.3c-5.1,0.4-10.3,0.8-15.4,1.4
	c-2.6,0.3-5.3,0.1-7.9-0.7c-5.8-2.3-10.8-5.9-14.9-10.9c-4-5.3-8.7-6.6-14.2-3.9c-10,5-18.2,7.9-28.8,3.5c-1.9-0.8-4.8-2.3-8.5-4.6
	c-2.8-1.5-6-4.2-9.2-3.5c-4.7,1.1-9,2.4-13,3.9c-4.8,1.8-11.1,2.2-14.8,6.2c-0.8,0.8-1.4,1.8-1.7,2.9c-0.4,0.9-0.9,1.1-1.3,0.7
	c-0.6-0.6-0.9-1.2-0.7-1.8c0-0.2,0-0.2-0.2-0.2l-1.4,0c-0.1,0-0.2,0.1-0.2,0.2c0.1,0.8,0,1.5,0.2,2.3c0.3,1,0.1,1.9-0.6,2.7
	c-0.3,0.3-0.6,0.4-0.9,0.4c-1.6,0-3.1-0.3-4.8-1l-1.1-1.2c-0.5-0.9-1.4-1.2-2.6-1c-2.8,0.5-5.6,1.2-8.3,2.1
	c-22,7.2-43.9,14.5-65.9,21.8c-3,1-6.3,2.2-9.7,3.5c-0.9,0.4-1.2,1-0.8,1.8l-0.2,1.2c-0.7-1.4-0.8-3.1,0.4-4.3
	c1.1-1,2.3-1.6,3.5-1.8c1.8-0.3,6.4-1.8,7.6-3.6c0.2-0.3,0.5-0.6,0.9-0.7c1.4-0.6,1.5-1.2,0.2-2.1c-0.6-0.4-1.1-0.9-1.3-1.5
	c-0.2-0.5-0.6-0.7-1.1-0.6c-0.5,0.1-1,0-1.5-0.4c-0.3-0.2-0.6-0.3-0.9-0.2c-0.1,0-0.2,0.1-0.3,0.1c-0.1,0.1-0.2,0.1-0.3,0
	c-0.4-0.8-1-0.9-1.7-0.5c-0.3,0.2-0.6,0.3-0.9,0.3c-1.3,0-2.2-0.2-3.5,0.4c-1.1,0.5-2.1,0.4-3.1-0.4c-0.6-0.5-0.9-1.3-1-2.5
	c-0.1-0.8-0.1-1.7-0.2-2.7c1.1,3.3,2.8,4.7,5,4.1c9.2-2.6,17.3-5.1,24.2-7.6c10.3-3.7,20.2-6.9,29.7-9.5c1.3-0.4,2.5-0.8,3.5-1.2
	c5-2.2,11.2-4.4,18.6-6.5c7.2-2,12.8-4,19.2-5.9c2.5-0.7,5.1-1.5,7.7-2.4c7.9-2.6,15.9-5.2,23.9-7.8c3.6-1.2,7.3-1.5,11-0.9
	c3.8,0.6,7.7,1.7,11.4,1.7c5.1,0,9.9-1.4,14.2-4c3.4-2.1,6.5-5.5,9.4-8.6c2.3-2,4.1-3.4,5.3-4.2c5.9-3.5,12.1-6,18.7-7.6
	c1.8-0.4,3.5-1,5.1-1.6C763.1,483.5,764.7,482.9,766.4,482.4z"/>
<path class="st10" d="M316.4,482.7c-0.2,0.8,0,1.3,0.6,1.5c2.1,0.8,3.4,1.3,3.8,1.7c2.8,2.2,5.3,3.4,7.6,3.8
	c1.9,3.8,4.4,5.5,7.6,4.9l-4.1,5.9c-1.1-3.4-3.2-6.1-6.3-8.2c-1-0.7-1.9-0.6-2.6,0.3c-4.7,5.2-7.9,13-10.3,19.6
	c-3.1,0.6-6.2-0.8-9.3-4.1c3-8.7,7.2-17,12.6-24.8C316,483.3,316.2,483.1,316.4,482.7z"/>
<path class="st3" d="M675.6,495.2c-0.8-0.2-2,0-3.6,0.7c-2.2-0.2-4.3-0.5-6.2-1.1c-3.1-0.8-5.5-2.7-7.1-5.6c-0.1-0.2,0-0.5,0.2-0.7
	c0.1,0,0.2-0.1,0.2-0.1l0.5,0c4.7,5.9,15.1,6.4,18.1-1.8c0.1,0,0.2,0,0.4-0.1c0.2-0.2,0.3-0.1,0.3,0.1c0.1,0.6,0.1,0.9,0.1,1.2
	C677.8,490.1,676.8,492.5,675.6,495.2z"/>
<path class="st10" d="M511.4,486.7l7.1,8.8c8.1,13.2,14.4,27.3,18.9,42.2c-0.3,2.1-0.3,4.2,0.2,6.4c0.1,0.6,0,1.1-0.3,1.5
	c-0.3,0.4-0.2,0.6,0.3,0.5c0.1,0,0.2,0,0.1,0.1c-0.8,1-1.1,2.4-0.9,4.1c0.2,1.5-0.1,2.7-0.5,4.1c-0.1,0.3-0.3,0.6-0.6,0.7
	c-0.6,0.2-0.7,0.6-0.4,1.1c0.2,0.4,0.2,0.8-0.1,1.1c-1,1.3-1.7,2.7-2.1,4.3c-0.1,0.3-0.2,0.4-0.5,0.4c-0.3,0-0.6-0.3-0.9-0.7
	c-2.2-10.8-3.8-18-4.8-21.7c-2.7-9.5-6.8-19.3-12.4-29.3c-2.6-4.7-6.8-10.2-9.8-15.6L511.4,486.7z"/>
<path class="st13" d="M489.2,554.5c-0.1,0.8-0.1,1.7,0,2.4c0,0,0,0.1,0.1,0.1c0,0,0.1,0,0.1,0c0.1,0,0.2,0.1,0.2,0.2
	c0.4,1.4,0.1,2.7-0.8,3.9c-0.4,0.5-0.6,0.4-0.6-0.2c0-0.2-0.1-0.3-0.3-0.5c-0.3-0.2-0.6-0.1-0.7,0.2c-0.2,0.5-0.2,1,0.1,1.4
	c0.2,0.4,0.1,0.6-0.4,0.5l-1.3-0.3c-3-6.5-8-11.1-14.8-13.8c-1.4-0.9-2.8-2.9-4.2-5.8c-0.9-2-3.8-5.8-8.6-11.6
	c-4.9-5.9-12-11.3-21.4-16.2c-9.6-5-21.9-4.9-32.7-3c-11.1,1.9-21.9,9.1-29.5,17.1c-1.2,1.2-3.2,3.9-6.2,7.9
	c-0.2,0.3-0.5,0.4-0.8,0.5c-2,0.3-3.7,0.9-5.2,1.9c-7.7,3.7-12.7,9.6-14.9,17.7l-1.6,2.2c-0.3,0.4-0.5,0.4-0.7-0.1
	c-0.1-0.3-0.3-0.4-0.6-0.3c-0.3,0.1-0.6-0.1-0.7-0.4c0-0.1,0-0.1,0-0.2l0.4-7.8c1.8-7.6,3.1-12.8,4.2-15.5c3-7.6,6.4-14.1,10.3-19.4
	c2.6-3.5,6-7.2,10.4-11.1c12.2-11.1,26.8-16.1,43.1-16.3c4,0,8.2,0.4,12.4,1.4c26.2,6.1,46.9,24.6,58,48.7
	C484.9,543.4,487.2,548.9,489.2,554.5z"/>
<path class="st5" d="M612.6,489.1c0.3,0.1,0.6,0.1,0.9,0c0.4,0,0.7,0,1.1,0.2c4.6,2.4,8.9,4,12.9,4.6c2.6,0.4,5.2,1.1,7.7,1.9
	c1.3,0.4,2.4,0.6,3.6,0.7c2,0.1,3.2,1.5,3.4,4c0,0.3-0.1,0.6-0.3,0.9c-2.5,2.9-6.4,2.6-9.8,1.6c-3.3-1-6.5-1.9-9.5-2.6
	c-4.2-1-8.3-2.6-12.5-3.5c-1.2-0.3-2.4-1-3.6-2.2c-0.3-0.3-0.4-0.6-0.4-0.9c0-1.5,0.4-2.9,1.3-4.1c0.2-0.3,0.5-0.4,0.8-0.5
	C609.5,488.8,611,488.7,612.6,489.1z"/>
<path class="st10" d="M786.5,491.6c0.2,0.1,0.2,0.2,0,0.4c-0.1,0.2-0.3,0.3-0.6,0.3c-0.8,0.1-1.6,0.1-2.4,0.2
	c-0.8,0.1-1.6,0.2-2.4,0.4c-7.3,2.1-14.5,4.3-21.8,6.8c-2,0.7-4.2,1.3-6.4,1.9c-2.1,0.6-4.3,1.2-6.5,2c-1.2,0.5-2.1,1.3-2.6,2.5
	c-0.1,0.4-0.4,0.6-0.8,0.7c-0.5,0.2-0.8,0.5-0.9,1c-0.1,0.3-0.2,0.5-0.5,0.7c-0.5,0.3-0.7,0.2-0.6-0.4l0.2-1.2
	c0.8-1.4,1.7-2.7,2.9-3.9c1-1,2.3-1.8,4.1-2.4c17.5-5.9,29.2-9.8,35.1-11.6C784.9,488.8,785.9,489.6,786.5,491.6z"/>
<path class="st4" d="M786.5,491.6c0.4,0.5,0.6,1,0.6,1.4c0.2,1.1,0.1,2.1-0.2,2.8c-0.2,0.3-0.4,0.5-0.7,0.6
	c-11.9,3.5-23.5,6.9-34.8,10.5c-1.8,0.6-4.1,1.5-5.2,3.1c-1,1.5-1.8,2.8-3.7,3.3c-1.3,0.3-2.3,0.4-2.9,0.1c-0.9-0.3-0.9-1.1-0.2-2.5
	l2.2-3.9l-0.2,1.2c-0.1,0.6,0.1,0.7,0.6,0.4c0.2-0.2,0.4-0.4,0.5-0.7c0.1-0.5,0.4-0.8,0.9-1c0.4-0.1,0.6-0.4,0.8-0.7
	c0.5-1.2,1.3-2.1,2.6-2.5c2.2-0.8,4.3-1.5,6.5-2c2.2-0.6,4.3-1.2,6.4-1.9c7.3-2.5,14.5-4.8,21.8-6.8c0.8-0.2,1.6-0.4,2.4-0.4
	c0.8-0.1,1.6-0.1,2.4-0.2c0.2,0,0.4-0.1,0.6-0.3C786.6,491.8,786.6,491.7,786.5,491.6z"/>
<path class="st8" d="M331.9,500.5l-3.6,7c-7.4,14.6-11.5,29.1-12.3,43.5c-0.6,10.5-0.5,21.6,1.5,32l2.3,11.2l-0.8-0.6
	c-0.7-0.5-1.6-0.5-2.3-0.1c-2.3,1.4-4.7,2.5-7.1,3.4c-0.3,0.1-0.4,0-0.3-0.3c0-0.1,0-0.2,0-0.3c-0.2-0.3-0.4-0.3-0.6-0.1l-0.8,0.7
	l-2.7-13.9c-2.5-19.6-1.4-39,3.4-58.2c1-4.2,2.6-8.4,4.1-12.6c2.3-6.6,5.5-14.4,10.3-19.6c0.8-0.9,1.7-1,2.6-0.3
	C328.7,494.3,330.8,497.1,331.9,500.5z"/>
<path class="st5" d="M787.1,493C787.1,493,787.1,493,787.1,493c0.3,1.3,0.5,2.7,0.5,4c0.3,5.7,0.5,11.3,0.5,17
	c0.1,4.4-0.3,8.9-1,13.2c-1.5,0-3,0.2-4.3,0.6c-3.7,1-7.3,1.9-10.8,2.9c-8.1,2.2-11.7-2.5-17.1-7.1c-0.5-0.5-1-0.9-1.4-1.5
	c-1.8-2.2-3.6-3.9-5.5-5c-1.8-1.1-4.8-2-8.8-2.6c-0.3-0.1-0.6-0.3-0.7-0.6c-0.4-1-0.1-2,0.9-3c-0.7,1.3-0.7,2.2,0.2,2.5
	c0.7,0.2,1.7,0.2,2.9-0.1c1.9-0.5,2.7-1.8,3.7-3.3c1.1-1.6,3.3-2.5,5.2-3.1c11.3-3.5,23-7,34.8-10.5c0.3-0.1,0.6-0.3,0.7-0.6
	C787.2,495.1,787.3,494.1,787.1,493z"/>
<path class="st9" d="M588.8,514.4l-0.5-0.7c-1.8-3.2-4.2-4.8-7.3-4.7c-1.5,0-4,0.7-7.6,1.9c-4.8,1.7-9.5,3.4-14.4,4.9
	c-3.4,1-6.7,2.2-10,3.6c-0.9,0.4-1.3,0.9-1.3,1.6l0.4,1.8c-0.7-0.3-1.1-0.8-1.1-1.3c-0.2-4.6-1.8-8.9-4.6-12.8l30.5-9.8
	c2.2-0.4,4.4-0.6,6.6-0.6c1,0,1.9,0.2,2.8,0.5c1.1,0.4,2.2,0.8,3.4,1.2c1.2,0.4,2.2,1,3.2,1.8c1,0.9,1.9,1.8,2.8,2.7
	c0.3,0.3,0.2,0.7,0,1c-0.1,0.1-0.2,0.2-0.3,0.2c-0.4,0.1-0.6,0.3-0.7,0.6c-0.3,0.9,0.5,1.3,0.1,2.3c-0.1,0.2-0.1,0.3-0.2,0.5
	l-0.6,2.7c-0.1,0.3,0,0.7,0.2,0.9c0.3,0.5,0.5,1.1,0.4,1.6c-0.1,0.3-0.3,0.6-0.7,0.6C589.5,514.9,589.1,514.7,588.8,514.4z"/>
<path class="st11" d="M328.3,507.5c0.1,1.5-0.1,3.1-0.5,4.7c-0.1,0.3-0.3,0.6-0.6,0.7l-0.5,0.3c-0.4,0.2-0.4,0.5-0.1,0.8
	c0.1,0.1,0.2,0.1,0.3-0.1c0,0,0.1-0.1,0.1,0c0,0,0,0,0,0.1l0.6,3.5c0,0.2-0.1,0.4-0.3,0.5c-0.2,0-0.3,0.1-0.3,0.3
	c-0.1,0.2,0,0.4,0.2,0.5c1.1,0.9,2.3,1.5,3.6,1.8c0.2,0.1,0.4,0.2,0.4,0.5c0.3,1.2,0.8,2.3,1.5,3.3c0.2,0.3,0.5,0.3,0.8,0.3
	c0.6-0.1,1.1-0.2,1.7-0.1c0.1,0,0.3,0,0.4,0.1c0.1,0.1,0.1,0.2,0,0.3c-0.1,0.1-0.1,0.2,0,0.2c0,0,0.1,0.1,0.1,0.1
	c0.3,0.1,0.6,0.1,0.9-0.1c0.4-0.2,0.4-0.2,0.1,0.2c-0.1,0.1-0.1,0.2,0,0.3c0.1,0.1,0.2,0.1,0.4,0.1l1.7-1c0.4-0.2,0.7-0.5,0.9-0.9
	l2.8-4.2c-4.1,7.7-7.2,15.7-8.7,24.2c-0.6,3.6-1.5,7.2-1.7,10.7c-0.6,10-0.5,19.6,1.3,29c0,0.5,0,0.9,0.2,1.2
	c-0.1,0.1-0.1,0.2-0.1,0.2c-0.2,0.2-0.3,0.2-0.5,0c-0.1-0.2-0.3-0.2-0.5-0.1c-1.1,0.5-2.1,0.5-2.9-0.2c-1.2-0.9-2.5-1.4-3.9-1.4
	c-1.2,0-2.3-0.1-3.5-0.3c-1.4-0.3-2.7-0.2-4,0.3c-0.2,0.1-0.3,0-0.2-0.2c0-0.1,0-0.2-0.1-0.3c-0.2-0.1-0.4-0.1-0.5,0l-0.2,0.2
	c-2-10.4-2-21.5-1.5-32C316.8,536.5,320.9,522,328.3,507.5z"/>
<path class="st11" d="M498.4,507.5c12.4,17.9,19.1,38.2,21.5,59.8l-1.4,5.2c-0.1,0.4-0.4,0.7-0.8,0.8c-1.5,0.4-3,0.1-4.5-0.8
	c-0.2-0.1-0.2-0.3-0.1-0.5c0,0,0,0,0.1-0.1c0.1-0.1,0.2-0.2,0.1-0.3c-0.2-0.2-0.4-0.3-0.6-0.3c-0.4,0-0.8,0.1-1.2,0.3
	c-0.2,0.1-0.5,0.2-0.7,0.1c-0.4-0.1-0.7,0-0.8,0.3c-0.1,0.3-0.3,0.4-0.5,0.5l-4.7,1.1c-0.1,0-0.1,0.1-0.2,0.1c0,0.1,0,0.2-0.1,0.3
	c-0.1,0.7-0.2,0.7-0.3,0c0-0.1,0-0.2-0.1-0.3c-0.1-0.1-0.1-0.3-0.1-0.4c0.2-0.9,0-1.9-0.6-2.8c-0.9-10.5-3.2-20.3-6.7-29.2
	c-3.5-8.8-8.4-17.7-14.6-26.9c0.7,0.2,1.3,0.5,1.8,1c0.2,0.2,0.4,0.5,0.4,0.8c0,0.6,0.3,0.9,0.7,1.2c0.3,0.2,0.6,0.3,0.9,0.5
	c1.2,0.8,2.4,1.4,3.7,1.7c0.3,0.1,0.6,0.2,0.8,0.4c0.8,0.6,1.7,0.9,2.8,1c0.9,0,1.8,0,2.7-0.1c1.3-0.1,2.4-0.6,3.4-1.3
	c0.2-0.1,0.3-0.3,0.4-0.5l1.7-4.4c0.1-0.3,0.1-0.6,0-0.9L498.4,507.5z"/>
<path class="st3" d="M303.3,508c3.1,3.3,6.2,4.6,9.3,4.1c-1.4,4.2-3,8.5-4.1,12.6c-4.8,19.2-5.9,38.6-3.4,58.2l-0.3,2.7
	c0,0.3-0.2,0.4-0.5,0.3l-4.8-1.2c-0.4-0.1-0.5,0-0.5,0.4c0,0.3-0.1,0.4-0.4,0.4c-0.3,0-0.5-0.2-0.4-0.5c0-0.2,0.1-0.3,0.2-0.3
	c0.2-0.1,0.2-0.2,0.1-0.3c-0.4-0.6-0.9-1-1.6-1.1c-0.3-0.1-0.6-0.2-0.8-0.5l-1-1.1c-2-17.4-1.7-33.7,1-49
	C297.5,525.9,299.8,517.7,303.3,508z"/>
<path class="st1" d="M588.3,513.7c0,0.2-0.1,0.3-0.2,0.4c-0.2,0.4-0.4,0.4-0.6,0c-2.4-4.5-9.4-2.7-13.3-1.3
	c-3.4,1.3-6.9,2.4-10.2,3.5c-5,1.6-9.8,3.6-14.9,5c-0.3,0.1-0.7,0-1.3-0.4c-0.1-0.7,0.4-1.2,1.3-1.6c3.3-1.4,6.6-2.6,10-3.6
	c4.9-1.5,9.6-3.2,14.4-4.9c3.5-1.2,6-1.9,7.6-1.9C584.1,508.9,586.5,510.5,588.3,513.7z"/>
<path class="st2" d="M470.8,548.4c-4.1-1.5-8.3-1.8-12.6-0.8c-1.9-1.4-3.5-2.3-4.9-4.2c-4.5-5.9-9.7-10.7-15.6-14.5
	c-11.8-7.5-24.4-8.9-37.7-3.9c-7.6,2.8-14,7.7-19.3,14.7c-5.6-2.6-11.7-2.7-18.5-0.5c1.5-1,3.2-1.6,5.2-1.9c0.3,0,0.6-0.2,0.8-0.5
	c2.9-4,5-6.6,6.2-7.9c7.5-8,18.4-15.2,29.5-17.1c10.8-1.8,23.1-2,32.7,3c9.4,4.9,16.5,10.3,21.4,16.2c4.8,5.8,7.7,9.7,8.6,11.6
	C468,545.6,469.4,547.5,470.8,548.4z"/>
<path class="st10" d="M588.3,513.7l0.5,0.7c0,0.4,0,0.8,0.2,1.1c0,0.4-0.1,0.6-0.3,0.8c-0.2,0.1-0.4,0.1-0.6,0c0,0,0,0,0,0
	c-0.5-0.6-1.1-0.9-1.9-0.8c-4.3,0.4-8.4,1.6-12.3,3.5c-3.5,1.7-11.6,4.3-24.3,7.9l-1.5-3.9l-0.4-1.8c0.6,0.3,1,0.5,1.3,0.4
	c5.1-1.4,9.9-3.5,14.9-5c3.4-1.1,6.8-2.2,10.2-3.5c3.9-1.4,10.9-3.2,13.3,1.3c0.2,0.4,0.4,0.4,0.6,0
	C588.2,514,588.3,513.9,588.3,513.7z"/>
<path class="st8" d="M589.1,515.5c0.3,2.2,0.2,4-0.3,5.5c-0.5,1.4-1.5,3-2.9,4.5c-1.1,1.2-2.6,2.1-4.5,2.6c-3.4,1-6.8,2-10.2,2.9
	c-5.2,1.5-11.4,3.6-18.4,6.5l-3-10.9c12.7-3.5,20.8-6.2,24.3-7.9c3.8-1.9,7.9-3,12.3-3.5c0.8-0.1,1.4,0.2,1.9,0.8
	c0.1,0.2,0.4,0.2,0.5,0.1c0,0,0,0,0,0C588.9,516.2,589,515.9,589.1,515.5z"/>
<path class="st10" d="M694.7,525.3c-0.9,0.9-2.3,0.9-4.3-0.2c-1.9-1-4-1.3-6.1-0.9c-2.3,0.5-4.6,1.2-6.8,2c-2.4,1-5,1.9-7.6,2.5
	c-3.2,0.7-6.3,1.6-9.3,2.6c-0.4,0.1-0.7,0.3-0.9,0.6c-0.9,0.9-1.6,0.9-2,0c3.6-4,9.9-4.4,14.8-6.2c3.9-1.5,8.3-2.8,13-3.9
	C688.8,521.1,692,523.8,694.7,525.3z"/>
<path class="st11" d="M458.2,547.6c-5.6,1.8-9.9,3.5-13.8,8.5c-4.4-4.4-8.4-7.4-12-9c-7.5-3.4-15.9-3.9-25.3-1.7
	c-2.2,0.5-4.5,1.8-7.1,3.8c-1,0.7-1.9,1.7-2.8,2.8c-0.8,1-1.7,2-2.7,3c-2.7-6.8-7.3-11.9-13.8-15.3c5.2-7,11.7-11.9,19.3-14.7
	c13.3-4.9,25.9-3.6,37.7,3.9c5.9,3.8,11.1,8.6,15.6,14.5C454.7,545.3,456.4,546.2,458.2,547.6z"/>
<path class="st3" d="M694.7,525.3c3.7,2.3,6.6,3.8,8.5,4.6c10.5,4.4,18.8,1.5,28.8-3.5c5.4-2.7,10.2-1.4,14.2,3.9
	c-0.1,1.1-0.8,1.1-2.3,0.1c-0.6-0.4-1.3-0.8-1.9-1.1c-1.8-0.8-3.9-1.2-6.1-1c-1.7,0.2-3.5,0.7-5.3,1.6c-2.3,1.2-4.7,2.3-7.1,3.2
	c-2.1,0.8-4.3,1.4-6.7,1.8c-3.8,0.5-6.2,0.7-7.2,0.5c-2.7-0.5-5.3-1-8-1.5c-1.7-0.9-3.1-1.4-4.8-2.6c-1.9-1.3-3.9-2.1-6.2-2.3
	c-1.6-0.1-3.6,0.2-6.2,1.1c-8.9,3.1-17.9,6.1-27.1,9c-0.8-1.6-1.2-3-1.1-4.3c0.3-1.2,0.8-2.2,1.7-2.9c0.4,0.9,1,0.9,2,0
	c0.3-0.3,0.6-0.5,0.9-0.6c3-1,6.1-1.8,9.3-2.6c2.5-0.6,5.2-1.5,7.6-2.5c2.2-0.9,4.4-1.6,6.8-2c2.1-0.4,4.2-0.1,6.1,0.9
	C692.5,526.2,693.9,526.3,694.7,525.3z"/>
<path class="st8" d="M746.2,530.3c4.1,5,9.1,8.6,14.9,10.9c0.5,0.9,0.7,1.5,0.6,1.6c-0.8,1.1-2.5,1.5-4,0.8
	c-0.5-0.2-0.9-0.3-1.4-0.4c-3.2-0.3-6.9-2.7-8.9-4.9c-1.6-2.4-2.9-4.2-4-5.3c-1.4-1.5-3.3-2.3-5.5-2.5c-1.8-0.1-4,1.1-5.8,1.6
	c-1.4,0.4-2.8,1-4.3,1.6c-5,2.1-10,3-15,2.5c-3.4-0.3-7.1-1.1-11-2.4c2.7,0.5,5.3,1,8,1.5c1,0.2,3.4,0,7.2-0.5
	c2.4-0.3,4.7-0.9,6.7-1.8c2.4-1,4.8-2.1,7.1-3.2c1.8-0.9,3.5-1.4,5.3-1.6c2.2-0.2,4.3,0.1,6.1,1c0.7,0.3,1.3,0.7,1.9,1.1
	C745.3,531.4,746.1,531.4,746.2,530.3z"/>
<path class="st5" d="M701.5,533.9c3.9,1.3,7.6,2.1,11,2.4c5.1,0.5,10.1-0.4,15-2.5c1.5-0.6,2.9-1.2,4.3-1.6c1.8-0.6,4-1.8,5.8-1.6
	c2.2,0.1,4.1,1,5.5,2.5c1.1,1.1,2.4,2.9,4,5.3c-1.7-0.1-3.3-0.2-5-0.2c-1.9-0.1-3.3,0.6-5,1.3c-0.5,0.2-1.8,0.6-3.7,1.2
	c-1.9,0.6-3.5,1.3-4.7,2.3c-0.3,0.2-0.6,0.3-1,0.3c-1.2,0-2.2,0.2-3.1,0.7c-4.8,2.5-9.8,4.5-15.2,6c-6.2,1.7-12.1,3.7-17.6,5.9
	c-2.7,1.1-5.4,1.4-8.1,2.7c-3.3,1.5-6.6,2.3-9.9,3.3c-0.9,0.3-1.9,0.7-2.9,1.1c-2.3,1.1-4.1,0.6-5.2-1.5c-0.5-0.9-1-1.8-1.7-2.7
	c-1.3-1.8-2.2-4.2-2.5-7.2c0-0.4-0.1-0.7-0.2-1l-4.3-11.2c9.1-2.9,18.2-5.9,27.1-9c2.6-0.9,4.7-1.3,6.2-1.1c2.2,0.2,4.3,1,6.2,2.3
	C698.4,532.5,699.8,533,701.5,533.9z"/>
<path class="st6" d="M656.2,534.9c-0.1,1.2,0.2,2.6,1.1,4.3l4.3,11.2c0.1,0.3,0.2,0.7,0.2,1c0.3,3,1.1,5.3,2.5,7.2
	c0.7,0.9,1.2,1.8,1.7,2.7c1.1,2.1,2.8,2.7,5.2,1.5c1-0.5,2-0.9,2.9-1.1c3.3-1,6.7-1.8,9.9-3.3c2.7-1.2,5.4-1.6,8.1-2.7
	c5.5-2.2,11.3-4.2,17.6-5.9c5.4-1.5,10.5-3.5,15.2-6c0.9-0.5,1.9-0.7,3.1-0.7c0.4,0,0.7-0.1,1-0.3c1.2-1,2.8-1.8,4.7-2.3
	c2-0.6,3.2-1,3.7-1.2c1.7-0.7,3.1-1.3,5-1.3c1.6,0,3.3,0.1,5,0.2c2.1,2.2,5.8,4.6,8.9,4.9c0.5,0.1,1,0.2,1.4,0.4
	c1.5,0.7,3.2,0.4,4-0.8c0.1-0.1-0.1-0.7-0.6-1.6c2.7,0.7,5.3,1,7.9,0.7c5.1-0.6,10.3-1,15.4-1.4c0.2,0.6,0.5,1.1,0.3,1.7
	c-0.7,2.3-1.3,4.8-1.7,7.3c-0.6,2.9-2,5.4-3.1,8.2c-0.2,0.6-0.7,1.1-1.3,1.3c-5,1.7-10,3.3-15.1,5c-12.8,4.3-25.6,8.6-38.5,12.8
	c-2.3,0.8-4.8,2.3-6.8,2.9c-6.9,2-13.9,4.4-21.1,7.1c-4.8,1.8-9.4,3-14.1,4.7c-10.2,3.7-20.5,6.9-30.7,10.6c-4.7,1.7-9.3,2.8-14,4.5
	c-9.4,3.4-18.7,6.6-28,9.6c-3.2,1-7.6,3-11.5,4.2c-7.6,2.5-15.3,5-22.9,7.6c-8.2,2.8-15.6,5.8-22.1,9c-0.5,0.2-1,0-1.2-0.4
	c-0.1-0.2-0.1-0.4-0.1-0.6c0.8-3.7,2.4-7.4,3-11c1.6-9.4,2.7-18.9,3.3-28.4l0.2,2.4c0.1,0.9,0.8,1.5,1.7,1.5c0.1,0,0.1,0,0.2,0
	c2.4-0.5,4.5-1,6.3-1.6c11.7-3.9,23.4-7.8,35-11.9c4.8-1.7,9.4-3.1,13.9-4.4c3.8-1.1,8.2-2.6,13.2-4.5c4.6-1.7,8.9-3.1,13.1-4.2
	c2.3-0.6,6.2-2,11.8-4.2c2.5-1,3.8-2.4,4.8-4.8c0.3-0.8,1.2-1.3,2.1-1.1c1.2,0.2,2.3-0.1,3.2-0.9c0.2-0.2,0.3-0.5,0.2-0.8
	c-0.9-2.3-2.6-4.3-3.4-6.6c-0.3-0.9-0.6-1.9-0.9-2.9c-0.2-0.8-0.6-1.5-1-2.2c-0.5-0.8-0.7-1.7-0.7-2.6c0-0.3-0.1-0.6-0.2-0.9
	c-0.9-1.4-1.9-3.1-2.9-5.1c-0.2-0.3-0.4-0.5-0.7-0.7c-0.3-0.2-0.7-0.2-1-0.1c-0.3,0.1-0.5,0.4-0.4,0.7c0.1,1.1,0.2,2.3,0.8,3.2
	c0.7,1.1,0.9,2.4,0.7,3.9c-0.1,0.5-0.3,0.6-0.6,0.3c-0.9-0.7-1.7-1.7-2.5-3c-1.1-2.3-2.6-4.2-4.5-5.8l-1.1-2.1c1.6,0.6,3.2,1,4.8,1
	c0.4,0,0.7-0.1,0.9-0.4c0.7-0.7,0.9-1.6,0.6-2.7c-0.2-0.8-0.1-1.5-0.2-2.3c0-0.2,0.1-0.2,0.2-0.2l1.4,0c0.2,0,0.2,0.1,0.2,0.2
	c-0.1,0.6,0.1,1.2,0.7,1.8C655.3,536,655.7,535.8,656.2,534.9z M724.1,555.4c0.3,2.3,1.8,3.9,4.4,4.6c0.7,0.2,1.8,0.3,3.2,0.2
	c1.1,0,2-0.4,2.8-0.9c1.2-0.9,3-2.2,3.5-3.7c0.5-1.4,0.3-2-0.7-1.8c0.4-2.4,0.3-4.7-0.4-7.1c-0.2-0.5-0.6-1-1.3-1.3
	c-4.1-1.9-7.4-1.3-9.9,1.9C724.3,549.2,723.8,551.8,724.1,555.4z"/>
<path class="st12" d="M645.1,537c0.1,0.6,0,1-0.3,1c-1.7,0.1-3.1,0.3-4.2,0.6c-3.6,1.1-7.3,2.2-11.3,3.3c-3.8,1.1-7.6,2.2-11.3,3.4
	c-16,5.2-32.1,10.7-48.3,15.8c-4,1.2-7.9,2.6-11.7,4.2c-0.4-0.9-0.1-1.5,0.8-1.8c3.4-1.3,6.6-2.4,9.7-3.5
	c21.9-7.4,43.9-14.7,65.9-21.8c2.7-0.9,5.5-1.6,8.3-2.1C643.7,535.8,644.6,536.1,645.1,537z"/>
<path class="st3" d="M645.1,537l1.1,1.2l1.1,2.1c0.4,0.9,0.1,1.5-0.8,1.8c-4.7,1.4-9.1,2.8-13,4.2c-3,1-6,1.7-8.9,2.7
	c-7,2.4-13.5,4.5-19.3,6.3c-4.9,1.5-9.8,3.1-14.5,4.7c-4.8,1.6-9.7,3.2-14.5,4.7c-6,1.8-12.1,3.8-18.2,5.7l-0.4-3.9l0.2-1.2
	c3.8-1.6,7.8-3,11.7-4.2c16.2-5,32.3-10.6,48.3-15.8c3.7-1.2,7.5-2.3,11.3-3.4c4-1.1,7.8-2.2,11.3-3.3c1.2-0.4,2.6-0.6,4.2-0.6
	C645.1,538,645.2,537.6,645.1,537z"/>
<path class="st0" d="M380.8,539.7c6.5,3.4,11.1,8.5,13.8,15.3l1.8,8.1c0.1,11.2-4.5,19.6-13.8,25.2l-6.1,2.2
	c-3.6,0.6-7.3,0.6-11.2-0.1c-14.6-6-20.6-17.1-17.9-33.5c2.2-8.1,7.1-14,14.9-17.7C369,537,375.2,537.1,380.8,539.7z"/>
<path class="st3" d="M537.4,537.7c3.1,12.3,5.1,24.7,6.2,37.3c0.2,2.3,0.2,7.5,0.1,15.5c-0.2,0.2-0.3,0.3-0.2,0.6
	c-1.9,2.3-5.6,1.1-8,0.3c-2-0.6-3-1.9-3-3.9c-0.1-2.4,0.3-4.8,0.2-7c-0.3-6.4-0.7-12.9-1.1-19.3c0.3,0.5,0.6,0.7,0.9,0.7
	c0.3,0,0.5-0.1,0.5-0.4c0.4-1.6,1.1-3.1,2.1-4.3c0.3-0.3,0.3-0.7,0.1-1.1c-0.3-0.5-0.2-0.9,0.4-1.1c0.3-0.1,0.5-0.4,0.6-0.7
	c0.4-1.4,0.7-2.6,0.5-4.1c-0.2-1.7,0.1-3,0.9-4.1c0.1-0.1,0.1-0.2-0.1-0.1c-0.5,0.1-0.6,0-0.3-0.5c0.3-0.5,0.4-1,0.3-1.5
	C537.1,541.9,537.1,539.8,537.4,537.7z"/>
<path class="st8" d="M647.3,540.3c1.9,1.6,3.4,3.5,4.5,5.8c0.4,2.4-0.3,3.8-2.3,4.3c-1.6,0.4-2.4,0.6-2.5,0.7
	c-2.1,0.8-4.2,1.7-6.3,2.5c-0.9,0.4-1.7,0.6-2.6,0.8c-2.3,0.5-4.1,1.7-6.5,2.2c-1.9,0.4-3.9,0.9-5.9,1.5c-4.7,1.4-9.4,3-14,4.7
	c-1.2,0.4-2.3,0.8-3.3,1.2c-2.2,0.8-4.6,1.4-7.3,1.9c-1.1,0.2-2.1,0.7-3.1,1.4c-2.3,1.5-4.6,2.9-7.4,3.3c-1.4,0.2-2.8,0.5-4.3,0.7
	c-1.2,0.2-2.5,0.5-3.7,1c-3,1.2-6,2.1-9.2,2.8c-3.2,0.7-6.2,2.1-9.4,2.8c-2.7,0.6-4.5,0.2-5.4-1.2l-0.5-6.3c6.1-2,12.2-3.9,18.2-5.7
	c4.8-1.5,9.7-3,14.5-4.7c4.7-1.6,9.6-3.1,14.5-4.7c5.9-1.8,12.3-3.9,19.3-6.3c2.9-1,5.9-1.7,8.9-2.7c4-1.4,8.3-2.8,13-4.2
	C647.4,541.8,647.7,541.2,647.3,540.3z"/>
<path class="st5" d="M558.8,596.5l-0.2-19.8c0.9,1.4,2.7,1.8,5.4,1.2c3.2-0.8,6.2-2.2,9.4-2.8c3.2-0.7,6.3-1.6,9.2-2.8
	c1.2-0.5,2.4-0.8,3.7-1c1.5-0.2,2.9-0.4,4.3-0.7c2.8-0.5,5.1-1.8,7.4-3.3c1-0.7,2.1-1.1,3.1-1.4c2.7-0.5,5.1-1.2,7.3-1.9
	c1.1-0.4,2.2-0.8,3.3-1.2c4.6-1.7,9.2-3.2,14-4.7c2-0.6,4-1.1,5.9-1.5c2.4-0.5,4.2-1.7,6.5-2.2c0.9-0.2,1.8-0.5,2.6-0.8
	c2-0.8,4.1-1.7,6.3-2.5c0.1,0,0.9-0.2,2.5-0.7c2-0.5,2.7-1.9,2.3-4.3c0.8,1.3,1.6,2.3,2.5,3c0.4,0.3,0.6,0.2,0.6-0.3
	c0.2-1.5-0.1-2.8-0.7-3.9c-0.6-1-0.7-2.2-0.8-3.2c0-0.4,0.1-0.6,0.4-0.7c0.3-0.1,0.7-0.1,1,0.1c0.3,0.2,0.5,0.4,0.7,0.7
	c1.1,2,2,3.7,2.9,5.1c0.2,0.3,0.2,0.6,0.2,0.9c-0.1,1,0.2,1.9,0.7,2.6c0.4,0.7,0.8,1.4,1,2.2c0.3,1,0.6,1.9,0.9,2.9
	c0.7,2.3,2.4,4.3,3.4,6.6c0.1,0.3,0,0.6-0.2,0.8c-1,0.8-2.1,1.1-3.2,0.9c-0.9-0.2-1.8,0.3-2.1,1.1c-1,2.4-2.3,3.8-4.8,4.8
	c-5.6,2.2-9.6,3.6-11.8,4.2c-4.2,1.1-8.5,2.5-13.1,4.2c-5,1.9-9.4,3.4-13.2,4.5c-4.5,1.3-9.1,2.7-13.9,4.4c-11.6,4-23.2,8-35,11.9
	c-1.8,0.6-3.9,1.1-6.3,1.6c-0.9,0.2-1.7-0.4-1.9-1.3c0-0.1,0-0.1,0-0.2L558.8,596.5z"/>
<path class="st2" d="M444.4,556c-2.6,3.1-4.6,7.1-6,12c-0.3-1.6-1.2-3-2.8-4.2c-5.6-4.1-9.9-7.4-16.1-8.3c-7.2-1-14.7,2.8-20.2,7.3
	c-0.4,0.3-0.8,0.4-1.3,0.5c-0.3,0.1-0.6,0.3-0.6,0.7l-0.6,2.2c-0.2,0.8-0.4,0.8-0.4,0l-0.2-3.2l-1.8-8.1c1-0.9,1.9-1.9,2.7-3
	c0.9-1.2,1.9-2.1,2.8-2.8c2.6-2,5-3.2,7.1-3.8c9.4-2.3,17.8-1.7,25.3,1.7C436,548.7,440,551.6,444.4,556z"/>
<path class="st9" d="M737.3,553.8c-1,2.7-3.2,4.1-6.5,4.2c-2.7,0.1-4.9-0.8-6.6-2.7c-0.4-3.6,0.2-6.2,1.5-8c2.5-3.2,5.8-3.9,9.9-1.9
	c0.7,0.4,1.2,0.8,1.3,1.3C737.6,549.1,737.7,551.5,737.3,553.8z"/>
<path class="st0" d="M470.8,548.4c6.8,2.7,11.8,7.3,14.8,13.8c2.7,6.9,3,13.7,1.1,20.5c-2.2,7.9-7.3,13.3-15.4,16.3
	c-3.9,1.2-8,1.5-12.5,1l-3.7-1c-10.3-4.3-16.1-12.2-17.5-23.6c-0.2-1.8,0-4.3,0.7-7.4c1.4-4.9,3.4-8.9,6-12
	c3.9-4.9,8.2-6.7,13.8-8.5C462.5,546.7,466.7,546.9,470.8,548.4z"/>
<path class="st1" d="M344.1,550.2l-0.4,7.8c0,0.3,0.2,0.6,0.6,0.6c0.1,0,0.1,0,0.2,0c0.3-0.1,0.5,0,0.6,0.3c0.1,0.5,0.4,0.5,0.7,0.1
	l1.6-2.2c-2.7,16.4,3.3,27.5,17.9,33.5c0.7,2.9,1.4,5.3,2.3,7.1c3.7,7.6,8.8,14.5,15.2,20.9c4.8,4.7,10,8.3,15.8,11
	c6.6,3.1,14.4,4.8,23.3,5.3c6,0.3,11.7-0.5,16.9-2.5c6.7-2.5,12.3-5.9,16.8-10.1c2-1.8,3.9-4,5.9-6.4c2.5-3.2,4.2-5.5,4.8-6.8
	c1.6-3.2,3.3-6.4,5-9.7c8.1-3,13.2-8.5,15.4-16.3c1.9-6.8,1.5-13.7-1.1-20.5l1.3,0.3c0.5,0.1,0.6,0,0.4-0.5
	c-0.2-0.4-0.2-0.9-0.1-1.4c0.1-0.4,0.3-0.5,0.7-0.2c0.2,0.1,0.3,0.3,0.3,0.5c0,0.6,0.2,0.7,0.6,0.2c0.9-1.1,1.2-2.4,0.8-3.9
	c0-0.1-0.1-0.2-0.2-0.2c0,0-0.1,0-0.1,0c-0.1,0-0.1,0-0.1-0.1c-0.1-0.8-0.1-1.6,0-2.4c1.5,5.4,2.5,9.4,2.8,12
	c0.5,4.2,0.7,10,0.5,17.5c-0.2,7.3-1,13.1-2.3,17.5c-0.9,2.9-1.7,5.7-2.6,8.5c-1,3.5-2.8,7.6-5.4,12.5c-5.5,9-12.4,16.5-20.6,22.5
	c-3.7,2.7-7.5,4.7-11.3,6c-4.2,1.4-7.8,2.3-10.8,2.8c-4.4,0.6-9.2,0.9-14.4,0.9c-5-0.1-9.8-0.7-14.4-1.8c-6.2-1.5-12.2-3.7-18.2-6.6
	c-10.5-5.1-19.3-12.2-26.4-21.2c-10.8-13.2-18.1-28-21.9-44.6c-1.1-7.1-1.7-14.2-1.6-21.3C342.7,557.7,343.2,554.7,344.1,550.2z"/>
<path class="st14" d="M724.1,555.4c1.8,1.9,4,2.7,6.6,2.7c3.3-0.1,5.5-1.5,6.5-4.2c0.9-0.3,1.1,0.3,0.7,1.8
	c-0.5,1.5-2.3,2.7-3.5,3.7c-0.8,0.6-1.7,0.9-2.8,0.9c-1.4,0.1-2.4,0-3.2-0.2C725.9,559.2,724.5,557.7,724.1,555.4z"/>
<path class="st11" d="M438.4,568.1c-0.7,3.1-0.9,5.6-0.7,7.4c1.4,11.4,7.2,19.3,17.5,23.6c0.1,0.5,0.4,0.8,1,0.8
	c0.3,0,0.5,0.2,0.6,0.5c0,0.1,0.1,0.2,0.1,0.3c0,0.4-0.2,0.7-0.6,0.7c-1.4,0.1-2.7,0.4-3.9,1c-0.1,0.1-0.2,0.2-0.2,0.3
	c0,0.3-0.2,0.5-0.5,0.4c-1.5-0.1-2.9-0.6-4-1.5c-1-0.7-2-1.4-3.2-1.8c-1.3-0.5-2.5-1.4-3.6-2.6c-0.1-0.1-0.1-0.1-0.2,0
	c0,0-0.1,0-0.1,0.1c-0.2,0.1-0.3,0.1-0.4,0c-1.8-1.2-3.7-2-5.7-2.2c-1.3-0.2-2.4-0.6-3.3-1.4c0,0-0.1,0-0.1,0c0,0,0,0,0,0
	c0,0.1,0,0.3-0.1,0.4c-0.2,0.3-0.3,0.2-0.4-0.1l-0.3-1.5c1.7-3,4.2-11.1,0.4-13.4c-2.3-1.4-6.5-1.3-7.6,1.8
	c-0.6,1.6-1.2,3.2-1.8,4.8c-1.5,4.2-6.5,3.5-8.8,0.6c-2.5-3.2-1-7.8-5.2-10c-2.3-1.2-4.3-0.8-6,1.2c-2.6,3.2-1.8,6.9-0.3,10.6
	c-0.5,0.8-0.2,1.5,0.8,2.2c0.3,0.2,0.3,0.4,0.1,0.6c-0.1,0.1-0.2,0.2-0.3,0.2c-0.1,0-0.4,0-0.7-0.2c-0.4-0.2-0.8-0.3-1.3-0.1
	c-0.3,0.1-0.6,0.1-1,0c-1.6-0.4-3.2-0.4-4.8,0c-0.3,0.1-0.6,0.1-0.9-0.1c-0.5-0.2-0.9-0.2-1.4-0.1c-0.3,0.1-0.7,0.1-1,0
	c-1.3-0.5-2.7-0.3-4.1,0.4c-0.1,0.1-0.3,0.1-0.4,0c0,0-0.1-0.1,0-0.1c0-0.4-0.2-0.5-0.6-0.4c-1.3,0.2-2.3-0.5-2.9-2.2
	c9.2-5.6,13.8-14,13.8-25.2l0.2,3.2c0,0.9,0.2,0.9,0.4,0l0.6-2.2c0.1-0.3,0.3-0.6,0.6-0.7c0.5-0.2,0.9-0.2,1.3-0.5
	c5.4-4.5,13-8.3,20.2-7.3c6.3,0.8,10.5,4.2,16.1,8.3C437.2,565,438.2,566.4,438.4,568.1z"/>
<path class="st1" d="M519.9,567.3c1.5,11.6,0.8,21.2-0.5,33.4c-1.5,12.2-4.3,23.4-8.6,33.6c-1.9,4.5-4.6,9.4-8.2,14.8
	c-1.1,0.3-1.9,0.3-2.4-0.1c-0.2-0.2-0.5-0.2-0.8-0.1c-0.8,0.3-1.6,0.4-2.5,0.3c-0.3,0-0.7,0.1-0.9,0.2c-1.1,0.6-2.3,1-3.5,1.1
	c-1.1,0.1-2.3,0.2-3.5,0.4c-2.3,0.3-4.7-0.2-7.2-1.5c-0.9-0.5-1.5-0.2-1.8,0.7c-0.1,0.4-0.5,0.5-0.8,0.4c-0.1,0-0.1-0.1-0.2-0.1
	c-0.4-0.3-0.8-0.4-1.2-0.2c-0.5,0.1-0.9,0.4-1.3,0.8c-1,1.2-2.2,2.1-3.5,2.7c-2.1,1.1-3.3,2.9-5.5,4.1c-4.5,2.4-7.7,3.9-9.5,4.7
	c-3.4,1.3-7.4,2.6-11.9,3.8c-4.5,1.2-8.5,1.9-12.1,2.3c-6,0.5-12.8,0.3-20.1-0.7c-2.5-0.3-5-0.9-7.3-1.7c-0.3-0.1-0.5-0.1-0.8-0.1
	c-1,0.2-1.9,0-2.7-0.5c-1-0.6-2.1-0.6-3.1-1.1c-2.9-1.4-5.7-2.6-8.5-3.7c-1.9-0.8-3.7-1.7-5.5-2.9c-0.9-0.6-1.9-1.2-2.8-1.6
	c-1-0.5-1.9-1.1-2.7-1.8c-1.2-1-2.5-1.9-3.9-2.7c-1.3-0.7-2.6-1.7-3.8-3c-0.3-0.3-0.2-0.4,0.2-0.4c0.5,0,1,0.2,1.6,0.5
	c5.8,4,12,7.5,18.4,10.6c4,1.9,8.7,3.4,13.1,4.5c17.8,4.7,35.1,3.4,51.8-3.7c5.7-2.4,11.2-5.9,16.5-10.4c7.5-6.5,13.5-14.3,18-23.3
	c1-1.8,1.9-3.6,2.7-5.4c7.1-16,9.7-32.8,8-50.5c0.6,0.9,0.8,1.9,0.6,2.8c0,0.2,0,0.3,0.1,0.4c0,0.1,0.1,0.2,0.1,0.3
	c0.1,0.7,0.2,0.7,0.3,0c0-0.1,0-0.2,0.1-0.3c0-0.1,0.1-0.1,0.2-0.1l4.7-1.1c0.3-0.1,0.5-0.2,0.5-0.5c0.1-0.3,0.4-0.5,0.8-0.3
	c0.3,0.1,0.5,0,0.7-0.1c0.4-0.2,0.8-0.3,1.2-0.3c0.2,0,0.5,0.1,0.6,0.3c0.1,0.1,0.1,0.2-0.1,0.3c-0.1,0.1-0.1,0.3,0,0.5
	c0,0,0,0,0.1,0.1c1.5,1,3.1,1.2,4.5,0.8c0.4-0.1,0.7-0.4,0.8-0.8L519.9,567.3z"/>
<path class="st6" d="M727.8,617.9l-0.5,0c-0.5,0-0.9-0.3-1-0.8c0-0.2,0-0.3,0.1-0.4c1-2.1,1.6-4.2,1.8-6.2c0.2-1.8,0.6-3.8,1.1-5.9
	c1.5-5.7,2-11.6,1.6-17.6c2.2-1,4.6-1.9,7.2-2.6c4-1.1,7.2-2.8,11-3.9c3.8-1.1,7.5-2.6,11.1-4.3c3.9-1.9,8-2.6,12-4.5
	c0.6-0.3,1.2-0.4,1.9-0.2c0.4,0.1,0.6,0.5,0.5,0.9c0,0,0,0.1,0,0.1c-2.9,5.7-5.9,11.1-9.1,16.2c-4.1,6.7-10.7,12.3-17.1,17.7
	C742.9,610.9,736,614.8,727.8,617.9z"/>
<path class="st0" d="M430.4,592.5c-2.5,3.3-5.6,5.3-9.3,6.2c-8.8,2-16.4-2.4-20-10.6c-1.4-3.7-2.3-7.4,0.3-10.6c1.7-2,3.6-2.4,6-1.2
	c4.2,2.2,2.7,6.8,5.2,10c2.3,2.9,7.3,3.5,8.8-0.6c0.6-1.6,1.2-3.2,1.8-4.8c1.1-3.1,5.3-3.2,7.6-1.8
	C434.6,581.4,432,589.4,430.4,592.5z"/>
<path class="st12" d="M344.2,580.5c3.8,16.6,11,31.5,21.9,44.6c-0.4-0.1-0.8-0.1-1.2,0c-0.1,0-0.2,0.1-0.2,0.2c0,0,0,0.1,0,0.1
	c0,0.2-0.1,0.4-0.3,0.3c-1.8-0.2-2.8,0.9-3,3.4c0,0.3-0.3,0.6-0.6,0.5c-0.1,0-0.3-0.1-0.4-0.2l-0.4-0.4c-0.3-0.3-0.6-0.3-0.9-0.2
	c-0.5,0.2-0.9,0.6-1.2,1.1c-0.3,0.5-0.3,1,0,1.5c0.5,1,1.2,1.8,2,2.3c0.3,0.2,0.4,0.4,0.3,0.8c-0.1,0.5,0.1,0.9,0.6,0.9
	c0.3,0.1,0.5,0.2,0.6,0.5c0.1,0.3,0.1,0.6,0.1,1c-2.4-2.4-4.3-4.6-5.6-6.4c-2.9-4-5.7-7.9-8.6-11.9c-1.6-2.2-4.4-8-8.4-17.5
	c-2.3-5.4-4-11-5-16.8c-0.1-0.3-0.2-0.7-0.2-1.2c0.3-0.8,0.4-1.7,0.3-2.6c0-0.3,0.1-0.6,0.4-0.8c0.7-0.5,1.4-0.9,2.1-1.4
	c0.6-0.4,1.2-0.3,1.9,0.2c0.3,0.2,0.6,0.2,0.8,0c0.7-0.7,1.6-1,2.4-1c0.4,0,0.7,0.2,0.8,0.7C342.6,579.4,343.2,580,344.2,580.5z"/>
<path class="st4" d="M295.3,581.8l1,1.1c0.2,0.2,0.5,0.4,0.8,0.5c0.6,0.2,1.2,0.5,1.6,1.1c0.1,0.1,0.1,0.2-0.1,0.3
	c-0.1,0.1-0.2,0.2-0.2,0.3c-0.1,0.3,0.1,0.5,0.4,0.5c0.3,0,0.4-0.1,0.4-0.4c0-0.4,0.1-0.5,0.5-0.4l4.8,1.2c0.3,0.1,0.5,0,0.5-0.3
	l0.3-2.7l2.7,13.9c0.2,1.6,0.5,3.2,1,4.7c3.1,11.3,7.4,22.2,12.7,32.8c2.3,4.6,6.6,10.6,12.7,17.8c0.2,0.6,0.3,1,0.2,1.3
	c-0.1,0.7-0.4,0.8-0.9,0.3c-1.5-1.4-3-2.8-4.5-4.2c-1-1-2-2.3-2.9-3.7c-0.8-1.3-1.7-2.6-2.6-3.8c-0.4-0.5-0.7-1.1-1-1.8
	c-0.1-0.2-0.1-0.4-0.1-0.6c0-0.2-0.1-0.4-0.2-0.5c-0.9-1-2-1.9-3.1-2.6c-0.2-0.1-0.3-0.3-0.4-0.6c0-0.1-0.1-0.2-0.1-0.3l-3.5-3.2
	c-0.3-0.3-0.7-0.6-1.2-0.7c-0.8-0.3-1.4-0.8-1.8-1.5c-0.2-0.3-0.4-0.6-0.8-0.7l-1.3-0.6c-0.3-0.2-0.5-0.4-0.6-0.8
	c-0.2-1-0.7-1.3-1.5-0.9C301.4,612.5,297.2,597.4,295.3,581.8z"/>
<path class="st5" d="M532.5,587.5c0,2,1,3.3,3,3.9c2.4,0.7,6.1,1.9,8-0.3c0,0.6-0.1,1.1-0.5,1.5c-0.2,0.2-0.5,0.4-0.8,0.4
	c-1.3,0-2.5,0.4-3.6,1.2c-0.3,0.2-0.5,0.2-0.9,0.2l-3-0.5c-0.4-0.1-0.7,0-1,0.2c-0.9,0.7-1.3,1.7-1.2,3c0,0.3,0,0.6-0.1,0.8
	c-0.5,1.1-0.7,2.2-0.5,3.5c0,0.3,0.3,0.6,0.7,0.5c0,0,0.1,0,0.1,0c2-0.7,4-0.8,6.1-0.4c-2.8-0.5-4.8,0.2-6.2,2.1
	c-0.6,0.8-1,2-1.2,3.5c-1.5,11.9-4.4,22.7-8.7,32.6c-3.6,7.7-7.9,14.9-12.9,21.7c-0.1-0.3-0.2-0.6-0.1-0.8c0.1-0.3,0-0.5-0.2-0.8
	c-0.1-0.1-0.3-0.2-0.5-0.3c-0.3-0.1-0.6,0-0.9,0.3c-1,1-2.2,1.7-3.6,2.1c-1,0.3-1.4,0.7-2.2,1.3c-0.3,0.2-0.6,0.4-1,0.5l-10.8,2.9
	c-0.3,0.1-0.5,0.1-0.5,0.1c-0.1,0.1-0.1,0.2-0.2,0.3c-0.1,0.3-0.3,0.4-0.6,0.4l-3.1,0c6.2-5.4,11.8-11.5,16.7-18.3
	c3.6-5.4,6.4-10.3,8.2-14.8c4.2-10.1,7.1-21.3,8.6-33.6l0.9-2c0.1-0.3,0.2-0.6,0.2-0.9c-0.3-3.3,0.1-6.5,1.3-9.8
	c0.1-0.3,0.3-0.4,0.5-0.4c0,0,0.1,0,0.1,0.1c0.1,0.2,0.2,0.2,0.3,0c1.2-1.5,1.8-3,3.7-3.6c0.3-0.1,0.6-0.3,0.8-0.6
	c1-1.1,2.3-1.6,3.9-1.6c0.4,0,0.6,0.2,0.6,0.5L532.5,587.5z"/>
<path class="st1" d="M333.9,584.8c1,5.8,2.7,11.4,5,16.8c4,9.4,6.8,15.3,8.4,17.5c2.9,4,5.7,7.9,8.6,11.9c1.3,1.8,3.2,3.9,5.6,6.4
	l6.1,6l2.9,3.2c0.4,0.4,0.3,0.5-0.2,0.2c-2.7-1.5-5.2-3.4-7.4-5.8c-1.9-2.1-3.9-4.1-5.8-5.9c-0.6-0.6-1.1-1.2-1.5-2
	c-0.4-0.8-1-1.4-1.8-1.9c-0.2-0.1-0.4-0.3-0.5-0.6c-0.7-1.4-2-3.1-3.3-4c-0.7-0.5-1.5-0.3-2.4,0.6c-0.1,0.1-0.1,0.1-0.1,0.2
	c0,0.1,0,0.1-0.1,0.1c-0.4,0-0.7,0.2-0.9,0.6c-0.2,0.3-0.4,0.5-0.7,0.6c-0.6,0.2-1.2,0.3-2,0.3c-0.2,0-0.5,0.2-0.5,0.4
	c-0.1,0.3-0.2,0.6-0.5,0.9c-0.2,0.2-0.5,0.3-0.8,0.3c-1.7,0-3.3,0.2-4.8,0.6c-0.4,0.1-0.6,0-0.8-0.4c-0.4-1.3-1.3-2-2.8-2
	c-6.3-10.7-10.9-22.2-13.8-34.5l-2.3-11.2l0.2-0.2c0.2-0.1,0.4-0.1,0.5,0c0.1,0.1,0.1,0.2,0.1,0.3c-0.1,0.2-0.1,0.3,0.2,0.2
	c1.3-0.4,2.6-0.5,4-0.3c1.1,0.2,2.3,0.3,3.5,0.3c1.4,0,2.7,0.5,3.9,1.4c0.8,0.6,1.8,0.7,2.9,0.2c0.2-0.1,0.3,0,0.5,0.1
	c0.1,0.2,0.3,0.2,0.5,0C333.7,584.9,333.8,584.9,333.9,584.8z"/>
<path class="st9" d="M730.9,586.9c0.4,6-0.1,11.9-1.6,17.6c-0.5,2.1-0.9,4-1.1,5.9c-0.2,2-0.8,4.1-1.8,6.2c-0.2,0.5,0,1,0.4,1.2
	c0.1,0.1,0.3,0.1,0.4,0.1l0.5,0l-5.8,2c1.4-9.9,2.8-19.7,4.1-29.3c0.1-0.5,0-0.8-0.2-1.1c-0.2-0.4-0.5-0.6-0.9-0.7
	C726.7,588.9,728.7,588.2,730.9,586.9z"/>
<path class="st1" d="M401.1,588c3.7,8.2,11.2,12.6,20,10.6c3.6-0.8,6.7-2.9,9.3-6.2l0.3,1.5c0.1,0.3,0.2,0.3,0.4,0.1
	c0.1-0.1,0.1-0.2,0.1-0.4c0,0,0,0,0.1,0c0,0,0,0,0,0c0.9,0.8,2,1.3,3.3,1.4c2,0.2,3.9,1,5.7,2.2c0.1,0.1,0.3,0.1,0.4,0
	c0,0,0.1,0,0.1-0.1c0.1-0.1,0.1-0.1,0.2,0c1.1,1.2,2.3,2,3.6,2.6c1.2,0.5,2.2,1.1,3.2,1.8c1.1,0.9,2.5,1.4,4,1.5
	c0.3,0,0.5-0.1,0.5-0.4c0-0.1,0.1-0.2,0.2-0.3c1.2-0.6,2.5-0.9,3.9-1c0.4,0,0.6-0.2,0.6-0.7c0-0.1,0-0.2-0.1-0.3
	c-0.1-0.3-0.3-0.4-0.6-0.5c-0.6,0-0.9-0.3-1-0.8l3.7,1l0.3,0.8c0.1,0.3,0,0.6-0.3,0.8c-0.5,0.3-0.8,0.6-1.1,1.1
	c-3.7,6.1-8.8,10.9-15.1,14.3c-1,0.5-2,1.1-2.9,1.7c-1.2,0.8-2.7,1.4-4.5,1.8c-16.4,4.1-30.7,1-42.9-9.3c-2.9-2.4-5.9-5.6-8.9-9.3
	c-1.3-1.6-2.5-3.5-3.6-5.7c-1.1-2-2.2-4-3.4-5.9l6.1-2.2c0.6,1.7,1.5,2.4,2.9,2.2c0.4-0.1,0.6,0.1,0.6,0.4c0,0.1,0,0.1,0,0.1
	c0.1,0.1,0.3,0.1,0.4,0c1.4-0.7,2.7-0.9,4.1-0.4c0.3,0.1,0.7,0.1,1,0c0.5-0.2,1-0.2,1.4,0.1c0.3,0.1,0.6,0.2,0.9,0.1
	c1.6-0.4,3.2-0.4,4.8,0c0.3,0.1,0.6,0.1,1,0c0.4-0.1,0.8-0.1,1.3,0.1c0.3,0.2,0.6,0.3,0.7,0.2c0.1,0,0.2-0.1,0.3-0.2
	c0.2-0.2,0.2-0.4-0.1-0.6C400.9,589.5,400.6,588.8,401.1,588z"/>
<path class="st6" d="M724.9,588.8c0.4,0.1,0.7,0.3,0.9,0.7c0.2,0.3,0.2,0.6,0.2,1.1c-1.3,9.6-2.7,19.4-4.1,29.3
	c-1.8,0.9-3.4,1.5-4.7,2c-13.1,4.4-25.7,8.8-37.7,13.4c-5.1,1.9-10.5,3.5-15.5,5.4c-11,4.3-22,7.3-33.1,11.5
	c-3.5,1.3-7.2,2.5-11.2,3.7c-5.5,1.6-10.7,3.9-16.1,5.8c-5.2,1.8-10.4,3.6-15.6,5.5c-0.3,0.1-0.5,0-0.7-0.3l-0.1-0.2
	c0,0,0-0.1,0-0.1c1.1-0.7,2.1-1.3,3.1-1.7c0.4-0.1,0.6-0.5,0.6-0.9c-0.2-3.2,1.1-6,1.4-9.2c0.3-3,0.6-5.9,1.2-8.7
	c0.4-2,0.6-3.9,0.7-5.6c0.1-1.9,0.1-3.7,0.1-5.6c0-0.6,0.3-1.1,0.9-1.2L724.9,588.8z"/>
<path class="st12" d="M365.3,590.3c3.9,0.7,7.6,0.7,11.2,0.1c1.2,1.9,2.3,3.9,3.4,5.9c1.2,2.2,2.4,4.1,3.6,5.7c3,3.8,6,6.9,8.9,9.3
	c12.3,10.3,26.6,13.4,42.9,9.3c1.8-0.5,3.3-1.1,4.5-1.8c0.9-0.6,1.9-1.2,2.9-1.7c6.3-3.5,11.4-8.2,15.1-14.3
	c0.3-0.5,0.6-0.8,1.1-1.1c0.3-0.2,0.4-0.5,0.3-0.8l-0.3-0.8c4.4,0.6,8.6,0.2,12.5-1c-1.7,3.2-3.4,6.5-5,9.7
	c-0.7,1.4-2.3,3.6-4.8,6.8c-2,2.5-3.9,4.6-5.9,6.4c-4.5,4.2-10.2,7.6-16.8,10.1c-5.3,2-10.9,2.8-16.9,2.5
	c-8.9-0.5-16.6-2.3-23.3-5.3c-5.8-2.7-11-6.3-15.8-11c-6.4-6.3-11.5-13.3-15.2-20.9C366.7,595.6,365.9,593.2,365.3,590.3z"/>
<path class="st9" d="M543.7,590.5c0.1,1.8-0.1,3.5-0.6,5.2c-0.3,1.2-0.5,2.1-0.5,3c0,0.8,0.1,1.6,0.3,2.6c0.1,0.5,0.3,0.9,0.7,1.2
	c0.3,0.2,0.4,0.5,0.5,0.8c0.2,1.6,0.1,3.1-0.4,4.6l-0.5-3.7c-0.7-1.6-2.2-2.5-4.6-2.7c-2.1-0.4-4.2-0.3-6.1,0.4
	c-0.3,0.1-0.6,0-0.7-0.3c0,0,0-0.1,0-0.1c-0.1-1.3,0-2.4,0.5-3.5c0.1-0.3,0.2-0.5,0.1-0.8c-0.1-1.3,0.3-2.3,1.2-3
	c0.3-0.2,0.7-0.3,1-0.2l3,0.5c0.3,0.1,0.6,0,0.9-0.2c1.1-0.8,2.3-1.2,3.6-1.2c0.3,0,0.6-0.1,0.8-0.4c0.4-0.4,0.5-0.9,0.5-1.5
	C543.5,590.8,543.5,590.6,543.7,590.5z"/>
<path class="st5" d="M319.8,594.2c2.9,12.3,7.5,23.8,13.8,34.5c3.1,5.6,5.8,10,8.2,13.2c1.9,2.5,5.2,6.4,10,11.6l-2.2-1.4
	c-0.3-0.2-0.6-0.2-0.8,0.2c-0.8,1.2-2,2.1-3.8,2.6c-0.3,0.1-0.6,0.1-0.8-0.1c-0.5-0.4-1-0.4-1.4,0c-0.3,0.3-0.6,0.4-1,0.3
	c-0.8-0.1-1.6,0-2.3,0.4c-0.3,0.2-0.4,0.4-0.2,0.8c0.5,1,1.2,1.8,2,2.5c0.6,0.5,1.1,1,1.5,1.6c0.6,0.8,1.1,1.4,1.6,1.8
	c0.6,0.5,0.9,1.1,0.7,1.7L334.3,652c-6.1-7.2-10.4-13.2-12.7-17.8c-5.3-10.5-9.5-21.4-12.7-32.8c-0.4-1.5-0.7-3.1-1-4.7l0.8-0.7
	c0.2-0.2,0.4-0.2,0.6,0.1c0.1,0.1,0.1,0.2,0,0.3c-0.2,0.3-0.1,0.4,0.3,0.3c2.4-0.9,4.8-2,7.1-3.4c0.7-0.4,1.6-0.4,2.3,0.1
	L319.8,594.2z"/>
<path class="st10" d="M538.6,601.4c2.4,0.2,3.9,1.1,4.6,2.7l-0.1,0.5c-0.1,0.4-0.3,0.5-0.6,0.4c-2.8-1.2-6.2-1.6-10-1.5
	C533.7,601.7,535.8,600.9,538.6,601.4z"/>
<path class="st4" d="M532.4,603.5c3.9-0.2,7.2,0.3,10,1.5c0.4,0.2,0.6,0,0.6-0.4l0.1-0.5l0.5,3.7c-0.4,1.8-1.2,5.6-2.1,11.4
	c-0.8,4.9-2.5,11.1-5,18.7l-2.4,1c-0.3,0.1-0.6,0.1-0.9,0c-1.5-0.5-3-0.5-4.3,0.3c-0.3,0.2-0.6,0.2-1-0.1c-0.3-0.2-0.5-0.2-0.7,0
	c-0.2,0.3-0.5,0.4-0.9,0.4l-3.9,0c4.3-9.9,7.2-20.7,8.7-32.6C531.4,605.5,531.8,604.4,532.4,603.5z"/>
<path class="st10" d="M482.2,622.6c1.3,1.6,3.2,2.3,5.5,2c0,0,0.1,0,0.1,0c0.1,0.1,0.1,0.2,0.1,0.2c0,0.1,0,0.1,0.1,0.1
	c1.7-0.1,2.9,0,3.5,0.1c0.8,0.2,1.2,0.7,1.1,1.5c-4.5,9.1-10.5,16.8-18,23.3c-5.2,4.5-10.7,8-16.5,10.4c-16.7,7.1-34,8.4-51.8,3.7
	c-4.4-1.2-9.1-2.6-13.1-4.5c-6.5-3.1-12.6-6.6-18.4-10.6c-1.9-2.3-4.3-4.2-7.2-5.6l-6.1-6c0-0.4,0-0.7-0.1-1
	c-0.1-0.3-0.3-0.4-0.6-0.5c-0.5-0.1-0.7-0.4-0.6-0.9c0.1-0.3,0-0.6-0.3-0.8c-0.8-0.5-1.5-1.3-2-2.3c-0.3-0.5-0.3-1,0-1.5
	c0.3-0.5,0.7-0.9,1.2-1.1c0.4-0.2,0.7-0.1,0.9,0.2l0.4,0.4c0.2,0.2,0.6,0.2,0.8,0c0.1-0.1,0.2-0.2,0.2-0.4c0.2-2.5,1.2-3.6,3-3.4
	c0.2,0,0.3-0.1,0.3-0.3c0,0,0-0.1,0-0.1c0-0.1,0.1-0.2,0.2-0.2c0.3-0.1,0.7-0.1,1.2,0c7.1,9,16,16,26.4,21.2
	c5.9,2.9,12,5.1,18.2,6.6c4.6,1.1,9.4,1.7,14.4,1.8c5.2,0.1,10-0.2,14.4-0.9c3-0.4,6.6-1.4,10.8-2.8c3.8-1.3,7.6-3.3,11.3-6
	C469.8,639,476.7,631.5,482.2,622.6z"/>
<path class="st12" d="M367.6,643.2c2.9,1.4,5.3,3.3,7.2,5.6c-0.6-0.3-1.1-0.5-1.6-0.5c-0.4,0-0.4,0.1-0.2,0.4c1.2,1.3,2.5,2.3,3.8,3
	c1.4,0.7,2.7,1.6,3.9,2.7c0.8,0.7,1.7,1.3,2.7,1.8c0.9,0.5,1.8,1,2.8,1.6c1.8,1.2,3.6,2.1,5.5,2.9c2.8,1.1,5.6,2.3,8.5,3.7
	c1.1,0.5,2.1,0.5,3.1,1.1c0.8,0.5,1.7,0.6,2.7,0.5c0.3,0,0.5,0,0.8,0.1c2.4,0.8,4.8,1.3,7.3,1.7c7.4,1,14.1,1.2,20.1,0.7
	c3.6-0.3,7.6-1.1,12.1-2.3c4.5-1.2,8.5-2.5,11.9-3.8c1.8-0.7,5-2.3,9.5-4.7c2.2-1.2,3.4-3,5.5-4.1c1.3-0.7,2.5-1.6,3.5-2.7
	c0.3-0.4,0.8-0.6,1.3-0.8c0.5-0.1,0.9,0,1.2,0.2c0.3,0.2,0.7,0.2,0.9-0.1c0-0.1,0.1-0.1,0.1-0.2c0.3-0.9,0.9-1.2,1.8-0.7
	c2.5,1.3,5,1.8,7.2,1.5c1.2-0.2,2.3-0.3,3.5-0.4c1.2-0.1,2.4-0.4,3.5-1.1c0.3-0.2,0.6-0.2,0.9-0.2c0.9,0,1.7-0.1,2.5-0.3
	c0.3-0.1,0.6,0,0.8,0.1c0.5,0.4,1.3,0.4,2.4,0.1c-4.9,6.8-10.5,12.9-16.7,18.3c-14.8,12.7-31.7,19.4-50.7,20.2
	c-18.6,0.7-35.7-2.7-51.3-10.2c-11.5-5.6-22.2-13.5-32.1-23.9c-4.7-5.2-8-9-10-11.6c-2.4-3.2-5.1-7.6-8.2-13.2
	c1.5,0.1,2.4,0.7,2.8,2c0.1,0.4,0.4,0.5,0.8,0.4c1.5-0.4,3.1-0.6,4.8-0.6c0.3,0,0.6-0.1,0.8-0.3c0.3-0.3,0.4-0.6,0.5-0.9
	c0-0.2,0.3-0.4,0.5-0.4c0.7,0,1.4-0.1,2-0.3c0.3-0.1,0.6-0.3,0.7-0.6c0.2-0.4,0.5-0.6,0.9-0.6c0.1,0,0.1-0.1,0.1-0.1
	c0-0.1,0-0.1,0.1-0.2c0.9-0.9,1.7-1.1,2.4-0.6c1.3,0.9,2.6,2.6,3.3,4c0.1,0.2,0.3,0.4,0.5,0.6c0.8,0.5,1.4,1.1,1.8,1.9
	c0.4,0.8,0.9,1.4,1.5,2c1.9,1.8,3.8,3.8,5.8,5.9c2.2,2.4,4.7,4.4,7.4,5.8c0.5,0.3,0.6,0.2,0.2-0.2L367.6,643.2z"/>
<path class="st8" d="M308,627.1c0.8-0.3,1.3,0,1.5,0.9c0.1,0.4,0.3,0.6,0.6,0.8l1.3,0.6c0.3,0.2,0.6,0.4,0.8,0.7
	c0.4,0.7,1,1.2,1.8,1.5c0.4,0.2,0.8,0.4,1.2,0.7l3.5,3.2c0.1,0.1,0.1,0.2,0.1,0.3c0,0.2,0.2,0.4,0.4,0.6c1.1,0.7,2.1,1.6,3.1,2.6
	c0.1,0.1,0.2,0.3,0.2,0.5c0,0.2,0.1,0.4,0.1,0.6c0.3,0.7,0.6,1.3,1,1.8c0.9,1.2,1.8,2.5,2.6,3.8c0.9,1.5,1.9,2.7,2.9,3.7
	c1.5,1.5,3,2.9,4.5,4.2c0.5,0.4,0.8,0.3,0.9-0.3c0.1-0.3,0-0.7-0.2-1.3l10.9,11.8c1.7,1.3,3.2,2.7,4.7,4.2c1,1,1.5,2.5,0.8,3.6
	c-0.9,1.4-1.8,2.9-2.8,4.5c-1.1,2.9-2.3,3.8-3.7,2.6c-3.9-3.6-6.2-5.9-7.1-6.9c-2.7-3.3-5.4-6.6-8.1-9.9c-4.1-5-7.6-10.8-11.5-16.2
	C315.6,643.2,312.5,637,308,627.1z"/>
<path class="st15" d="M748.8,627.8c0.1,0.6,0.8,0.9,2.1,0.9c1,0,1.7,0,2.2,0.1c7.9,1.3,15,2.7,21.2,4.3c12.5,3.1,23.7,5.8,33.6,8.1
	c7.4,1.7,15.6,6.5,16.7,14.5c1.5,11.2-8.2,16.7-17.4,19.9c-31.5,10.9-62.2,22.1-92.1,33.6c-6.2,2.4-12.3,4.7-18.3,6.8
	c-21.1,7.4-41.8,15-62.3,22.9c-3.6,1.4-7.3,2.5-11.1,3.9c-26.7,10.1-51.8,19.5-75.3,28.2c-7,2.6-13.6,4.2-19.7,4.7
	c-8.4,0.7-16.8,0.7-25-0.2c-4.8-0.5-11.3-1.7-19.5-3.5c-11.4-2.6-22.2-4.8-33.6-7.7c-20.7-5.2-41.6-10.2-62.6-15.1
	c-6.4-1.5-12.9-3-19.5-4.6c-16-3.9-32-7.7-48.1-11.3c-4.8-1.1-11.3-2.6-19.4-4.7c-10.8-2.7-22.5-5.3-35-7.9
	c-1.7-0.4-4.1-1.4-7.2-3.1c-5.7-3.2-8.8-8.8-7.9-15.4c1-7.2,7.9-11.1,14.3-13.2c14.9-4.9,29.8-10.1,44.8-15.6c1-0.4,2.1-0.7,3.2-1
	c1.1-0.3,2.1-0.6,3.1-0.9l16.6,18.1c-5,1.7-9.8,3.2-14.5,4.5c-1.9,0.5-4.2,1.9-6.7,4c-2.6,1.3-3.6,3-3.1,5.1c0.9,3.8,7,6.6,10.4,7.4
	c7.7,2,15.3,4.2,23,6c2.3,0.5,5,1.3,8,2.4c1.8,0.6,4.2,1.2,7.1,1.6c5.3,0.8,10.1,2.4,15.3,3.5c7.5,1.5,15.2,4.4,22.3,5.9
	c7.1,1.5,14.7,3.1,22.8,4.9c2.1,0.4,4.2,0.9,6.3,1.2c11.5,2.1,28.7,5.9,51.6,11.4c2.4,0.6,4.9,0.7,7.2,1.4
	c5.9,1.6,11.5,2.8,16.8,3.5c11.9,1.7,23.3,0.9,34.2-2.5c9-2.8,18.2-5.8,26.9-9.4c3.8-1.6,8-3.2,12.6-4.9c9.3-3.4,18.4-6.7,27.2-9.9
	c11.3-4.1,23.3-8.5,35.8-13.2c4.1-1.6,8.3-3.1,12.4-4.7c10.3-3.9,20.6-7.7,30.9-11.3c6.4-2.3,12.7-4.6,18.8-6.9
	c10.5-4,21-7.9,31.4-11.7c6.2-2.2,12.4-5.1,18.7-7.3c6.8-2.4,13.5-4.8,19.9-7.1c4.9-1.8,11.9-6,9.2-12.5c-0.3-0.8-1.7-1.8-4.2-3.2
	c-10.2-3.9-18.3-6.5-24.4-7.6c-6.2-1.1-12.5-2.4-18.9-3.8C736.5,634.1,742.9,631.2,748.8,627.8z M711,697.9
	c-0.2-2.1-3.1-3.6-6.4-3.3s-5.9,2.3-5.7,4.4c0,0,0,0,0,0c0.2,2.1,3.1,3.6,6.4,3.3l0,0C708.6,702,711.1,700,711,697.9L711,697.9z"/>
<path class="st6" d="M588.8,648.3c-0.1,2-0.5,3.9-1.2,5.7c-0.7,1.7-1.1,3.4-1.2,5.2c-0.3,2.9-0.6,5.6-1.1,8.3
	c-0.1,0.3-0.3,0.6-0.6,0.7c-7.9,2.7-15.7,5.3-23.6,8c-2,0.7-4.1,1.5-6.1,2.4c-2.7,1.2-5.6,1.7-8.3,2.8c-3.8,1.5-7.7,2.8-11.7,3.9
	c-2.7,0.7-5.1,2-7.7,2.8c-1.9,0.6-2.2,0.1-0.9-1.4c9.3-10.4,16.2-22.2,20.7-35.4c0.1-0.4,0.5-0.8,1-1.2c0.3-0.3,0.8-0.5,1.4-0.7
	c6.1-2.3,12.1-4.6,18.1-6.9c6.4-2.5,13.3-4.4,20-7c1.8-0.7,2.5-0.1,2.3,1.8c-0.2,2.1-0.5,4.2-0.7,6.3
	C589,645.2,588.8,646.8,588.8,648.3z"/>
<path class="st14" d="M729.6,636.4c6.5,1.4,12.8,2.7,18.9,3.8c6.1,1.1,14.3,3.7,24.4,7.6c0.9,3,1.5,6.5-1.4,8
	c-3.3,1.6-7.1,3.2-11.4,4.6c-7.4,2.5-17.8,6.4-31,11.5c-12.8,4.9-25.6,9.6-38.2,14.2c-2.6,0.9-5.1,2.3-7.7,3.2
	c-15,5.2-30.6,11.4-45.7,16.6c-6.7,2.3-12.8,4.6-18.4,7c-6.1,2.6-12.7,4.2-18.8,6.6c-11,4.2-21.2,8.1-30.7,11.6
	c-5.4,2-10.8,4.1-16.2,6.3c-5.9,2.4-11.3,4.4-16.3,6c-3.9,1.3-7.6,2.3-11.3,3.2c-5,1.1-10.3,1.5-16.1,1.3c-5.7-0.3-11.5-0.8-17.2-2
	c-6.5-1.3-12.8-2.7-19.2-4.5c-9.3-2.6-16-4.2-20.1-5c-9.4-1.8-16.5-3.5-21.6-5.2c6.3-0.7,12.7-1.3,19.1-1.8
	c4.2-0.3,8.6-1.1,12.7-2.2c10.3-2.8,20.3-5.9,30.1-9.2c7-2.4,14.4-4.5,21.3-7.1c8.3-3.2,16.8-6.2,25.4-9.1
	c25.3-8.6,46.5-15.9,63.6-21.9c21.4-7.6,37.6-13.3,48.6-17c22.4-7.8,44.2-15.3,65.3-22.5C720.2,639.4,724.1,638.1,729.6,636.4z"/>
<path class="st8" d="M536.5,637.9c-3.8,10.1-7,17.4-9.7,22.1c-1.5,2.6-4.2,6.6-8.1,12c-3.4,4.6-6.4,8.4-9.2,11.2
	c-5.1,5.2-10.6,9.9-16.7,14.1c-0.5,0.3-1.2,0.5-2,0.6c-3-3-5.7-6.7-8.1-11.1c1.9-1.9,4.9-4.4,9.1-7.5c5.8-4.2,11.7-10.3,17.7-18.1
	c5-6.8,9.3-14.1,12.9-21.7l3.9,0c0.4,0,0.6-0.1,0.9-0.4c0.2-0.2,0.5-0.3,0.7,0c0.3,0.2,0.6,0.3,1,0.1c1.3-0.7,2.7-0.8,4.3-0.3
	c0.3,0.1,0.6,0.1,0.9,0L536.5,637.9z"/>
<path class="st16" d="M772.9,647.9c2.5,1.4,3.9,2.5,4.2,3.2c2.7,6.4-4.4,10.7-9.2,12.5c-6.5,2.4-13.1,4.8-19.9,7.1
	c-6.3,2.2-12.5,5-18.7,7.3c-10.5,3.8-21,7.7-31.4,11.7c-6.1,2.3-12.3,4.6-18.8,6.9c-10.3,3.6-20.6,7.4-30.9,11.3
	c-4.1,1.6-8.3,3.1-12.4,4.7c-12.5,4.7-24.4,9.1-35.8,13.2c-8.8,3.2-17.9,6.5-27.2,9.9c-4.6,1.7-8.8,3.3-12.6,4.9
	c-8.6,3.6-17.8,6.6-26.9,9.4c-11,3.3-22.4,4.2-34.2,2.5c-5.3-0.8-10.9-1.9-16.8-3.5c-2.4-0.6-4.8-0.8-7.2-1.4
	c-22.9-5.5-40-9.3-51.6-11.4c-2.1-0.4-4.2-0.8-6.3-1.2c-8.1-1.7-15.7-3.3-22.8-4.9c-7-1.5-14.7-4.4-22.3-5.9c-5.2-1-10-2.7-15.3-3.5
	c-3-0.5-5.3-1-7.1-1.6c-3-1-5.6-1.8-8-2.4c-7.7-1.8-15.3-4-23-6c-3.4-0.9-9.5-3.6-10.4-7.4c-0.5-2.1,0.6-3.8,3.1-5.1
	c0.1,2.6,1.1,4.3,3.1,5.1c2.9,1.1,7.1,2.3,12.7,3.6c4.3,1,8.6,2,12.8,3.1c7.1,1.9,14.1,3.6,20.9,5.3c1.5,0.3,3,0.6,4.8,0.9
	c1.5,0.2,3.1,0.6,4.8,1c6.2,1.8,12.4,3.7,18.7,5.7c7.5,2.4,13.8,4,18.8,5c7.8,1.5,15.6,2.6,23.6,3.4c5,1.7,12.2,3.4,21.6,5.2
	c4.1,0.8,10.8,2.5,20.1,5c6.4,1.8,12.8,3.1,19.2,4.5c5.7,1.1,11.5,1.7,17.2,2c5.8,0.3,11.2-0.1,16.1-1.3c3.7-0.8,7.5-1.9,11.3-3.2
	c5-1.6,10.4-3.7,16.3-6c5.4-2.2,10.8-4.3,16.2-6.3c9.4-3.5,19.6-7.4,30.7-11.6c6.1-2.3,12.6-3.9,18.8-6.6c5.6-2.4,11.7-4.8,18.4-7
	c15.1-5.1,30.7-11.4,45.7-16.6c2.6-0.9,5.1-2.2,7.7-3.2c12.7-4.6,25.4-9.3,38.2-14.2c13.2-5.1,23.5-8.9,31-11.5
	c4.3-1.5,8.1-3,11.4-4.6C774.4,654.4,773.8,650.9,772.9,647.9z"/>
<path class="st7" d="M351.8,653.5c10,10.3,20.7,18.3,32.1,23.9c15.6,7.6,32.7,11,51.3,10.2c19.1-0.7,36-7.5,50.7-20.2l3.1,0
	c0.3,0,0.5-0.1,0.6-0.4c0-0.1,0.1-0.2,0.2-0.3c0,0,0.2-0.1,0.5-0.1l10.8-2.9c0.4-0.1,0.7-0.3,1-0.5c0.8-0.6,1.2-1,2.2-1.3
	c1.5-0.4,2.7-1.1,3.6-2.1c0.3-0.2,0.6-0.3,0.9-0.3c0.2,0,0.4,0.1,0.5,0.3c0.2,0.2,0.3,0.5,0.2,0.8c-0.1,0.2,0,0.5,0.1,0.8
	c-6,7.8-11.9,13.8-17.7,18.1c-4.2,3.1-7.3,5.6-9.1,7.5c-1.5-0.5-3.2-0.3-4.9,0.7c-2,1.1-3.7,2.5-5.2,4c-9.6,3.8-18,6.3-25.1,7.3
	c-16.9,2.5-34.8,1.1-53.7-4.1c-3.4-0.9-8.4-3-15-6.1c-2.8-1.3-5.5-2.9-8-4.6c-2.4-1.7-5-3.3-7.8-4.9c-1-0.6-2.2-0.3-2.8,0.6
	l-2.3,3.2c0.3-1.3,0.9-2.5,1.9-3.5c0.6-0.7,0.6-1.7,0.1-2.4c-1.7-2.1-3.6-3.9-5.7-5.5c-0.9-0.6-2.1-0.5-2.7,0.4l-3.4,4.3
	c0.9-1.6,1.8-3.1,2.8-4.5c0.7-1.1,0.1-2.6-0.8-3.6c-1.5-1.5-3-2.9-4.7-4.2c0.1-0.6-0.1-1.2-0.7-1.7c-0.5-0.4-1-1-1.6-1.8
	c-0.4-0.6-1-1.1-1.5-1.6c-0.9-0.7-1.5-1.5-2-2.5c-0.2-0.3-0.1-0.6,0.2-0.8c0.8-0.4,1.5-0.5,2.3-0.4c0.4,0.1,0.7-0.1,1-0.3
	c0.4-0.4,0.9-0.4,1.4,0c0.3,0.2,0.5,0.2,0.8,0.1c1.7-0.5,3-1.4,3.8-2.6c0.2-0.3,0.5-0.4,0.8-0.2L351.8,653.5z"/>
<path class="st9" d="M357.8,683c-4.1,5.1-0.2,6.5,3.3,9.1c-3.2-1.1-6-3-8.5-5.6c-0.9-0.9-1.6-1.9-2.3-3c-0.7-1.2-1.6-2.2-2.8-3.1
	c-0.3-0.2-0.6-0.3-1-0.3c-0.2,0-0.5,0-0.7,0.1c-0.3,0.1-0.6,0-0.9-0.2c-0.3-0.3-0.5-0.7-0.7-1.1c1.4,1.1,2.6,0.2,3.7-2.6l3.4-4.3
	c0.7-0.8,1.9-1,2.7-0.4c2.2,1.6,4.1,3.4,5.7,5.5c0.6,0.7,0.5,1.7-0.1,2.4C358.7,680.5,358.1,681.7,357.8,683z"/>
<path class="st5" d="M472.6,691.6c1,0.7,1.6,1.3,1.8,1.7c1.8,3.6,4,6.9,6.6,9.8c-3.8,1.8-8,3.4-12.8,4.8
	c-10.3,2.9-20.5,4.6-30.5,5.1c-8.6,0.4-19.1-0.3-31.5-2.3c-15.7-2.5-30.7-8.7-45.2-18.6c-3.5-2.6-7.4-4-3.3-9.1l2.3-3.2
	c0.7-0.9,1.9-1.2,2.8-0.6c2.8,1.6,5.4,3.2,7.8,4.9c2.5,1.7,5.2,3.3,8,4.6c6.6,3.1,11.6,5.2,15,6.1c18.9,5.2,36.8,6.6,53.7,4.1
	C454.6,697.9,463,695.5,472.6,691.6z"/>
<path class="st9" d="M482.8,686.9c2.4,4.4,5.1,8.1,8.1,11.1c-1-0.3-1.8-0.1-2.4,0.5c-2.4,2.7-4.9,4.2-7.5,4.7
	c-2.6-3-4.8-6.2-6.6-9.8c-0.2-0.4-0.8-1-1.8-1.7c1.5-1.6,3.2-2.9,5.2-4C479.6,686.6,481.2,686.4,482.8,686.9z"/>
<path class="st14" d="M332.7,689.7c6.8,6.3,12.3,10.8,16.6,13.5c7,4.4,14.1,9.1,21.2,13.9c-1.6-0.4-3.2-0.7-4.8-1
	c-1.7-0.3-3.3-0.6-4.8-0.9c-6.8-1.6-13.8-3.4-20.9-5.3c-4.2-1.1-8.5-2.2-12.8-3.1c-5.6-1.3-9.9-2.5-12.7-3.6c-2-0.8-3-2.5-3.1-5.1
	c2.5-2.2,4.8-3.5,6.7-4C322.9,692.9,327.7,691.4,332.7,689.7z"/>
<ellipse transform="matrix(0.996 -8.889429e-02 8.889429e-02 0.996 -59.2968 65.4249)" class="st14" cx="704.9" cy="698.4" rx="6.1" ry="3.9"/>
</svg>
