<?xml version="1.0" encoding="utf-8"?>
<!-- Generator: Adobe Illustrator 28.1.0, SVG Export Plug-In . SVG Version: 6.00 Build 0)  -->
<svg version="1.1" id="Calque_1" xmlns="http://www.w3.org/2000/svg" xmlns:xlink="http://www.w3.org/1999/xlink" x="0px" y="0px"
	 viewBox="0 0 1024 1024" style="enable-background:new 0 0 1024 1024;" xml:space="preserve">
<style type="text/css">
	.st0{fill:none;stroke:#CDD9D8;stroke-width:2;}
	.st1{fill:none;stroke:#857D77;stroke-width:2;}
	.st2{fill:none;stroke:#535C61;stroke-width:2;}
	.st3{fill:none;stroke:#203748;stroke-width:2;}
	.st4{fill:none;stroke:#6792A8;stroke-width:2;}
	.st5{fill:none;stroke:#4D697D;stroke-width:2;}
	.st6{fill:none;stroke:#395160;stroke-width:2;}
	.st7{fill:none;stroke:#4E87A8;stroke-width:2;}
	.st8{fill:none;stroke:#7BB9DD;stroke-width:2;}
	.st9{fill:none;stroke:#81ACC1;stroke-width:2;}
	.st10{fill:none;stroke:#94C4DD;stroke-width:2;}
	.st11{fill:none;stroke:#C7E6F4;stroke-width:2;}
	.st12{fill:#0B0000;}
	.st13{fill:#67A1C0;}
	.st14{fill:#8ED1F9;}
	.st15{fill:#FFFAEE;}
	.st16{fill:#346D8F;}
	.st17{fill:#9AB7C1;}
</style>
<g>
	<path vector-effect="non-scaling-stroke" class="st0" d="M383,803.6c-0.8,0.4-1.8,0.4-3.1,0c-1.2-0.3-2.2-0.5-2.9-0.5
		c-5.5,0.2-12.4,1.3-16.7,1.8c-16.7,1.7-33.6,4.2-50.8,7.3c-18,3.3-32.2,6.5-42.5,9.8c-10,3.2-20.5,6.4-28.9,12.6
		c-4.8,3.6-7.3,9.5-3.2,14.7c1.7,2.2,3.8,4,6.4,5.6c11.4,6.9,25.4,11,38.7,14c12.3,2.8,24.2,5.2,35.7,7.2c24.4,4.1,45.7,7,64,8.8
		c17,1.7,33.7,3.3,50.6,4.2c66.1,3.6,132.8,3.4,199.1-1.4c26.4-1.9,50.1-5.2,78-9.3c14.2-2.1,31.3-5.7,51.5-10.7
		c11.5-2.9,23-7.1,32.9-12.8c2.3-1.3,4.3-2.9,5.9-4.8c21.3-24.8-85.4-40.8-95.8-42.3c-9.3-1.3-20-2.8-32.2-4.4
		c-0.1,0-1.8-0.1-5.1-0.4c-2.6-0.2-5.2-0.8-7.6-1.7"/>
	<path vector-effect="non-scaling-stroke" class="st1" d="M656.8,801.4c11.1-6.9,21.7-14.4,31.8-22.3c5.5-4.3,10.8-9,16.1-14.3
		c13.1-13.2,23.9-25.8,32.4-37.8c7.7-10.8,14.9-23.1,21.8-37c8.7-17.5,15.5-37.7,19.9-55.6c7.7-31.9,9.2-65.1,4.5-99.7
		c-0.9-6.3-2.1-12.9-3.8-19.7c-4-16.1-8.5-30.6-13.5-43.5c-10.6-27.3-24.1-53.8-40.7-79.6c-17.2-26.8-34.8-51.8-52.8-74.9
		c-15.2-19.5-29.9-37.7-44.1-54.5c-10.8-12.7-21.6-26.1-32.6-38.9c-20.7-24-42.8-51.2-66-76.4c-4.2-4.5-9.3-6.7-15.4-6.4
		c-4.4,0.2-8,1.9-10.9,5.1c-17,18.8-34.3,38.1-51.1,58.6c-4,4.8-8.2,9.9-12.9,15.3c-11.9,14-23.7,28-35.4,42.2
		c-10.2,12.4-20.7,24.7-30.5,37.9c-7.1,9.6-14.9,18.5-21.9,28.2c-5,6.9-10.2,13.9-15.6,21c-2.9,3.9-11.1,15.9-24.6,36.1
		c-8.6,12.9-16,25.2-22.2,36.9c-6.4,12.1-11.6,22.6-15.6,31.7c-4.3,9.8-8.4,20.7-12.4,32.9c-3.7,11.1-6.2,22-8.7,33.4
		c-4.2,19.4-5.5,38.9-5.3,58.7c0.4,38.6,9.3,75.7,26.5,111.1c11.9,24.5,28,47.3,48.1,68.3c14,14.7,29.7,27.1,47.2,37.4
		c4.5,2.6,9,5.4,13.7,8.2"/>
	<path vector-effect="non-scaling-stroke" class="st2" d="M656.8,801.4c-11.1,6.2-20.4,10.8-28,13.7c-6.5,2.5-13.2,5-20,7.5"/>
	<path vector-effect="non-scaling-stroke" class="st3" d="M608.8,822.6c-26.4,9.4-52.9,14.7-79.5,15.9c-25.2,1.1-49.7-1.3-73.5-7.3
		c-8-2-17-4.7-27.1-8"/>
	<path vector-effect="non-scaling-stroke" class="st2" d="M428.6,823.2c-15.9-5.5-31.1-12-45.6-19.5"/>
	<path vector-effect="non-scaling-stroke" class="st4" d="M428.6,823.2c-1.4,0.3-2.9,0.3-4.4,0.1c-1.9-0.3-3.4-0.4-4.4-0.4
		c-11.1,0.6-23,1-33.7,2.4c-14.7,1.8-28.8,4.3-42.2,7.3c-4,0.9-14.1,5.3-11.4,11.3c1.6,3.7,7,5.6,10.7,6.8c7.3,2.3,14.7,4,22.3,5.1
		c30.3,4.4,61.5,7.2,93.6,8.2c43,1.4,81.9,1.5,116.6,0.3c26.8-0.9,52.2-2.8,76-5.6c8.8-1,18.4-2.5,28.6-4.3c7.3-1.3,13.8-3,19.4-5
		c4.8-1.7,9.8-5.8,5.7-11.2c-2.8-3.6-10.2-5.7-14.5-6.7c-6.5-1.6-13-2.8-19.6-3.8c-17.6-2.7-36.2-4.3-55.6-4.7
		c-0.6,0-1.7,0.1-3.5,0.3c-1.5,0.2-2.6,0-3.5-0.5"/>
	<path vector-effect="non-scaling-stroke" class="st5" d="M508.7,192.9c-8,9.2-15.7,18.8-23.4,27.6c-14.3,16.4-28,33.5-41.9,50.3
		c-3.9,4.8-8.1,9.3-11.9,14.2c-2.7,3.5-5.6,7.1-8.7,10.9c-23.2,28.4-45.2,57.2-66.1,86.6c-13.3,18.7-25.4,37.9-36.5,57.5
		c-4.3,7.7-8.7,16.2-13,25.6c-8.2,17.8-14.6,36.7-19,56.7c-2,8.9-3.5,17.9-4.5,27c-0.4,3.8-0.5,7.5-0.2,11.3"/>
	<path vector-effect="non-scaling-stroke" class="st1" d="M283.6,560.5l0,4.2"/>
	<path vector-effect="non-scaling-stroke" class="st5" d="M283.6,564.7l0,8.5"/>
	<path vector-effect="non-scaling-stroke" class="st6" d="M283.6,573.1c-0.3,2.1-0.5,4.1-0.4,6.1c0.2,13.1,1.6,26.1,4,39
		c1.3,6.7,3.6,15.7,6.9,27.1"/>
	<path vector-effect="non-scaling-stroke" class="st3" d="M294.1,645.4c3.8,11.7,8.1,20.5,13.9,32.4c3.5,7.2,7.4,14.2,11.7,20.5
		c7.2,10.6,15.5,20.5,24.1,30.2c6,6.8,12.9,13.3,20.6,19.5c14.9,11.8,29.7,22.1,46.5,29.9c26.2,12.3,53.6,20.1,82.4,23.4
		c24.4,2.8,48.3,1.7,71.5-3.4c15.9-3.5,30.7-8,44.2-13.6c16.5-6.8,33.1-16.2,49.6-28.2c5.8-4.2,11-8.4,15.5-12.6
		c17.8-16.7,32.3-33.7,43.3-51.2c13.4-21.3,22.7-44,27.8-68.2c2.6-12.2,4.2-23.6,4.9-34.2c1.1-17,0.5-36.5-2.6-54.2
		c-1.9-10.6-4.3-21-7.2-31.3c-1.5-5.1-3.5-11.2-6.3-18.1c-3.1-7.8-5.6-14-7.7-18.4c-2.6-5.5-7.8-15.6-15.6-30.3"/>
	<path vector-effect="non-scaling-stroke" class="st6" d="M710.7,437.7c-13.7-24.8-29.4-49.2-47.2-73.2
		c-18-24.3-34.7-45.9-50.2-64.6c-5.8-7-13.5-16.4-23-28.2c-8-9.9-16.1-19.6-24.3-29.2c-4.4-5.1-8.6-10.2-12.8-15.3
		c-11.9-14.5-24-28.6-36.3-42.1c-0.3-0.3-0.7-0.3-1,0c0,0,0,0,0,0l-7.1,7.8"/>
	<path vector-effect="non-scaling-stroke" class="st7" d="M710.7,437.7c-2.7-0.4-4.7,0.2-5.8,1.7c-3.1,4-2.6,7.2-0.9,12.1
		c3.1,9,7,18.9,9.6,26.8c9.5,29.9,13.9,60.2,13.1,91c-0.3,11-2,24.2-5.1,39.5c-1.1,5.7-2.5,11-4.1,15.9c-1.8,5.6-3.8,10.8-5.9,15.7
		c-1.9,4.3-3.5,8.4-5.6,12.4c-3,5.7-5.8,11.2-9.4,16.6c-5.7,8.5-10.2,15-13.5,19.4c-5,6.5-10.8,13.1-17.6,19.8
		c-10.5,10.3-22.9,19.5-35.2,27.6c-8.6,5.7-17.6,10.6-26.8,14.4c-13.4,5.6-23.2,9.4-35.7,12.9c-6.8,1.9-13.3,3.4-19.5,4.3
		c-31.9,5-64.2,4.4-95.3-2.8c-9-2.1-15-3.6-18.1-4.6c-8.7-2.8-17.1-6-25.1-9.4c-23.9-10.1-45.6-24.1-65.1-41.8
		c-12.6-11.5-23.5-24.6-33.1-38c-2.1-2.9-4.1-6-6.1-9.4c-1.8-3-3.6-6-5.3-9.1c0,0-0.5-1.1-1.4-3c-0.9-2-2.4-3.4-4.4-4.3"/>
	<path vector-effect="non-scaling-stroke" class="st8" d="M283.6,573.1c1,4,3.1,8.6,4.1,11.5c2.4,6.9,5.1,13.6,8.1,20.2
		c1,2.3,2.8,5,3.6,6.8c0.8,1.6,1.5,3.2,2.3,4.6c24.3,45.1,60,77.1,106.8,96c11.1,4.5,23.7,8.1,35.4,10.6c22.1,4.9,44.6,5.9,67.6,3.2
		c6.4-0.7,13-1.8,19.8-3.1c10.4-2,20.8-5,31.3-9c9.7-3.7,18.4-7.5,26.1-11.4c8.2-4.2,17-9.6,26.3-16.4c13.6-9.9,25.2-22,36.2-35
		c5.5-6.6,10.3-13.2,14.2-19.9"/>
	<path vector-effect="non-scaling-stroke" class="st9" d="M665.5,631.4c6.2-0.8,12-2.8,17.3-5.9c7.2-4.2,12.1-12.6,7.3-20.6
		c-1.9-3.2-4.2-5.6-6.8-7.2"/>
	<path vector-effect="non-scaling-stroke" class="st8" d="M683.3,597.7l-0.2-0.3c-0.2-0.2-0.2-0.5-0.1-0.7
		c6.5-19,10.1-38.1,10.7-57.3c0.5-16.2-0.7-31.7-3.6-46.3c-3.4-16.8-8.9-35.4-16.6-55.5c-2.2-5.7-4.8-11.8-7.9-18.4
		c-4.2-9-8.2-17-12-24c-5.4-10.1-11.3-20.5-17.7-31.1c-5.8-9.7-12.5-19.4-19.2-29.2c-13.5-19.9-28.8-40.3-45.7-61.3
		c-5.7-7.1-10.9-14.6-16.6-21.7c-3.6-4.4-7-8.8-10.4-13.2c-3.7-4.9-7.5-9.8-11.4-14.9c-1.5-2-5.4-6.9-11.7-14.7
		c-4.2-5.2-8.2-10.5-12.2-15.9"/>
	<path vector-effect="non-scaling-stroke" class="st10" d="M683.3,597.7c-0.5,0.2-0.8,0.1-1.1-0.3"/>
	<path vector-effect="non-scaling-stroke" class="st11" d="M682.2,597.4c-5.5-2-9-3.1-10.6-3.5c-11.4-2.3-22.2-1.3-32.6,3
		c-3.2,1.3-7.4,3.8-9.3,6.6c-11.1,16.5,9.8,26.8,23.1,27.5c2.4,0.1,6.1,0.1,11,0"/>
	<path vector-effect="non-scaling-stroke" class="st10" d="M663.7,631c0.1,0.4,0.7,0.5,1.8,0.3"/>
	<path vector-effect="non-scaling-stroke" class="st11" d="M283.6,564.7c0.2,2.8,1.2,4.8,2.9,5.8c1.1,0.6,2.4,0.3,3.1-0.8
		c0,0,0,0,0-0.1c1.3-2.3,1.1-4.6-0.4-6.9c-0.2-0.3-0.2-0.5,0-0.8l0.8-1.6c0.2-0.4,0.3-0.8,0.2-1.2c-0.1-1.1-0.7-1.9-1.9-2.6
		c-0.8-0.4-1.7-0.3-2.8,0.3c-1.3,0.8-2,2-2,3.7"/>
	<path vector-effect="non-scaling-stroke" class="st0" d="M682.2,597.4c-0.5,1.3-0.9,2.7-1.3,4.1c-0.4,1.4-1,2.7-1.6,4
		c-3.8,8.1-8.1,16.3-12.8,24.8c-0.2,0.4-0.6,0.7-1,0.8c-0.5,0.1-1.1,0.1-1.7,0"/>
	<path vector-effect="non-scaling-stroke" class="st11" d="M506.3,316.5c12.4-13.1,25.5-34.7,15.6-53c-8.8-16.4-29.8-18.7-43.8-7.8
		c-12.5,9.7-21.8,22-27.8,36.8c-4.4,10.8-3.4,23.3,5.3,31.8c9.5,9.2,25.8,8.7,37.1,2.8C497.3,324.8,501.9,321.2,506.3,316.5"/>
	<path vector-effect="non-scaling-stroke" class="st11" d="M435.2,347.8c-5-7.7-15.5-9.8-23.7-4.6c-8.1,5.2-10.7,15.7-5.7,23.4
		c5,7.7,15.5,9.8,23.7,4.6C437.6,366.1,440.2,355.6,435.2,347.8"/>
	<path vector-effect="non-scaling-stroke" class="st11" d="M343.7,512.7c5.8-18.5,13-35.8,22-52.3c10.7-19.7,23-38.6,37-56.6
		c4.9-6.3,4.8-13.1-0.6-18.9c-4.1-4.4-10.7-5.7-16.1-3.4c-2.2,1-4.4,2.7-6.5,5.2c-3.6,4.2-7.2,8.7-10.7,13.4
		c-10.5,14.3-19.8,28.5-28,42.5c-8.1,13.9-15.5,30.6-22.3,50c-1.8,5.1-3.2,10.4-4.1,16.1c-1.4,8,2,15.5,10.6,16.8
		C334.4,527,341,521.3,343.7,512.7"/>
	<path vector-effect="non-scaling-stroke" class="st5" d="M434.7,433.1c-0.9-5.6-6.3-9.5-12.1-8.5c-5.7,0.9-9.7,6.3-8.7,11.9v0
		c0.9,5.6,6.3,9.5,12.1,8.5h0C431.7,444.1,435.6,438.8,434.7,433.1L434.7,433.1"/>
	<path vector-effect="non-scaling-stroke" class="st5" d="M620.7,433.5c-0.7-5.6-5.9-9.6-11.6-8.9c0,0,0,0,0,0
		c-5.7,0.7-9.8,5.8-9.2,11.4s5.9,9.6,11.6,8.9c0,0,0,0,0,0C617.3,444.2,621.4,439.1,620.7,433.5"/>
	<path vector-effect="non-scaling-stroke" class="st5" d="M462.1,540.8c1.5-16.2-2.8-30-12.8-41.3c-7.7-8.7-18.5-14.6-29.9-15.9
		c-8.9-1-16.8-0.4-23.7,1.8c-12.8,4.1-22.4,11.6-28.9,22.5c-3.6,6.1-5.9,12.1-6.9,18c-2,12.8,0,24.6,6.1,35.3
		c8.8,15.5,24.6,24.9,41.7,26c18.4,1.2,35.5-7.4,45.6-22.8C458.4,556.4,461.4,548.6,462.1,540.8"/>
	<path vector-effect="non-scaling-stroke" class="st5" d="M602,582.6c14.5,6.4,30.5,6.8,44.3-1c16.1-9.1,27.7-26.2,27.5-45.2
		c-0.1-14.7-4.7-27.2-13.7-37.4c-7.8-8.8-17.7-14.1-29-15.5c-29.9-3.7-56.2,16.5-59.2,46.5c-1.6,16.1,3.4,30.1,14.9,42.2
		C590.9,576.5,596,580,602,582.6"/>
	<path vector-effect="non-scaling-stroke" class="st11" d="M337.2,551.8c-1.4-5.8-7.5-9.4-13.6-7.9l0,0c-6.1,1.4-10,7.4-8.6,13.2
		c0,0,0,0,0,0c1.4,5.8,7.5,9.4,13.6,7.9l0,0C334.7,563.5,338.6,557.6,337.2,551.8C337.2,551.8,337.2,551.8,337.2,551.8"/>
	<path vector-effect="non-scaling-stroke" class="st5" d="M494.4,644.6c11.3,4.6,23,5.7,35.2,3.2c22.6-4.7,40.2-23.1,41.6-46.5
		c0.3-5.1-1.2-9.3-4.7-12.7c-7-7-16.5-2.1-18.8,6.3c-2.1,7.5-7,13.5-14.6,17.8c-12.1,6.9-26.5,5.3-37.5-3.1c-5-3.9-8.6-9-10.7-15.5
		c-4.5-13.8-21-10.1-22.5,2.9c-0.5,4.3-0.5,9.2,0.6,13.3C467.3,625.5,479.9,638.6,494.4,644.6"/>
	<path vector-effect="non-scaling-stroke" class="st11" d="M405.9,611.9c0-10.7-14-19.3-31.2-19.3h0c-17.2,0-31.2,8.7-31.2,19.3l0,0
		c0,10.7,14,19.3,31.2,19.3S405.9,622.6,405.9,611.9"/>
	<path vector-effect="non-scaling-stroke" class="st1" d="M431.9,530.9c7.6-6.8,8-18.8,0.8-26.8s-19.1-8.9-26.7-2c0,0,0,0,0,0
		c-7.6,6.8-8,18.8-0.8,26.8C412.3,536.8,424.3,537.7,431.9,530.9C431.9,530.9,431.9,530.9,431.9,530.9"/>
	<path vector-effect="non-scaling-stroke" class="st1" d="M644.6,529.5c6.9-7.8,5.8-20-2.3-27.1c-8.1-7.1-20.3-6.5-27.1,1.3l0,0
		c-6.9,7.8-5.8,20,2.3,27.1S637.7,537.3,644.6,529.5C644.6,529.5,644.6,529.5,644.6,529.5"/>
	<path vector-effect="non-scaling-stroke" class="st4" d="M287.6,842.7c-0.1-3.9-4.1-6.9-8.9-6.8c-4.8,0.2-8.6,3.4-8.4,7.3
		c0.1,3.9,4.1,6.9,8.9,6.8S287.7,846.6,287.6,842.7"/>
	<path vector-effect="non-scaling-stroke" class="st4" d="M766.6,842.8c-0.2-3.9-4.2-6.8-9.1-6.6c-4.9,0.2-8.7,3.5-8.5,7.4
		c0.2,3.9,4.2,6.8,9.1,6.6C763,849.9,766.8,846.6,766.6,842.8L766.6,842.8"/>
</g>
<path class="st12" d="M656.8,801.4c-11.1,6.2-20.4,10.8-28,13.7c-6.5,2.5-13.2,5-20,7.5c-26.4,9.4-52.9,14.7-79.5,15.9
	c-25.2,1.1-49.7-1.3-73.5-7.3c-8-2-17-4.7-27.1-8c-15.9-5.5-31.1-12-45.6-19.5c-4.7-2.9-9.2-5.6-13.7-8.2
	c-17.4-10.3-33.2-22.7-47.2-37.4C302,736.9,286,714.2,274,689.7c-17.3-35.4-26.1-72.5-26.5-111.1c-0.2-19.8,1.1-39.3,5.3-58.7
	c2.5-11.4,5-22.3,8.7-33.4c4-12.1,8.2-23.1,12.4-32.9c3.9-9,9.1-19.6,15.6-31.7c6.2-11.7,13.6-24,22.2-36.9
	c13.4-20.2,21.6-32.3,24.6-36.1c5.4-7.1,10.6-14,15.6-21c7.1-9.7,14.8-18.6,21.9-28.2c9.9-13.2,20.4-25.4,30.5-37.9
	c11.6-14.2,23.4-28.3,35.4-42.2c4.6-5.4,8.9-10.5,12.9-15.3c16.8-20.5,34.1-39.8,51.1-58.6c2.9-3.2,6.5-4.9,10.9-5.1
	c6.1-0.3,11.2,1.9,15.4,6.4c23.2,25.2,45.3,52.4,66,76.4c11,12.8,21.9,26.2,32.6,38.9c14.2,16.8,28.9,34.9,44.1,54.5
	c18,23.1,35.6,48.1,52.8,74.9c16.5,25.8,30.1,52.4,40.7,79.6c5,12.9,9.5,27.4,13.5,43.5c1.7,6.9,3,13.4,3.8,19.7
	c4.7,34.5,3.2,67.8-4.5,99.7c-4.3,17.9-11.2,38.1-19.9,55.6c-6.9,13.9-14.2,26.2-21.8,37c-8.5,12-19.4,24.6-32.4,37.8
	c-5.3,5.3-10.6,10.1-16.1,14.3C678.5,787,667.9,794.4,656.8,801.4z M508.7,192.9c-8,9.2-15.7,18.8-23.4,27.6
	c-14.3,16.4-28,33.5-41.9,50.3c-3.9,4.8-8.1,9.3-11.9,14.2c-2.7,3.5-5.6,7.1-8.7,10.9c-23.2,28.4-45.2,57.2-66.1,86.6
	c-13.3,18.7-25.4,37.9-36.5,57.5c-4.3,7.7-8.7,16.2-13,25.6c-8.2,17.8-14.6,36.7-19,56.7c-2,8.9-3.5,17.9-4.5,27
	c-0.4,3.8-0.5,7.5-0.2,11.3l0,4.2l0,8.5c-0.3,2.1-0.5,4.1-0.4,6.1c0.2,13.1,1.6,26.1,4,39c1.3,6.7,3.6,15.7,6.9,27.1
	c3.8,11.7,8.1,20.5,13.9,32.4c3.5,7.2,7.4,14.2,11.7,20.5c7.2,10.6,15.5,20.5,24.1,30.2c6,6.8,12.9,13.3,20.6,19.5
	c14.9,11.8,29.7,22.1,46.5,29.9c26.2,12.3,53.6,20.1,82.4,23.4c24.4,2.8,48.3,1.7,71.5-3.4c15.9-3.5,30.7-8,44.2-13.6
	c16.5-6.8,33.1-16.2,49.6-28.2c5.8-4.2,11-8.4,15.5-12.6c17.8-16.7,32.3-33.7,43.3-51.2c13.4-21.3,22.7-44,27.8-68.2
	c2.6-12.2,4.2-23.6,4.9-34.2c1.1-17,0.5-36.5-2.6-54.2c-1.9-10.6-4.3-21-7.2-31.3c-1.5-5.1-3.5-11.2-6.3-18.1
	c-3.1-7.8-5.6-14-7.7-18.4c-2.6-5.5-7.8-15.6-15.6-30.3c-13.7-24.8-29.4-49.2-47.2-73.2c-18-24.3-34.7-45.9-50.2-64.6
	c-5.8-7-13.5-16.4-23-28.2c-8-9.9-16.1-19.6-24.3-29.2c-4.4-5.1-8.6-10.2-12.8-15.3c-11.9-14.5-24-28.6-36.3-42.1
	c-0.3-0.3-0.7-0.3-1,0c0,0,0,0,0,0L508.7,192.9z"/>
<path class="st13" d="M710.7,437.7c-2.7-0.4-4.7,0.2-5.8,1.7c-3.1,4-2.6,7.2-0.9,12.1c3.1,9,7,18.9,9.6,26.8
	c9.5,29.9,13.9,60.2,13.1,91c-0.3,11-2,24.2-5.1,39.5c-1.1,5.7-2.5,11-4.1,15.9c-1.8,5.6-3.8,10.8-5.9,15.7
	c-1.9,4.3-3.5,8.4-5.6,12.4c-3,5.7-5.8,11.2-9.4,16.6c-5.7,8.5-10.2,15-13.5,19.4c-5,6.5-10.8,13.1-17.6,19.8
	c-10.5,10.3-22.9,19.5-35.2,27.6c-8.6,5.7-17.6,10.6-26.8,14.4c-13.4,5.6-23.2,9.4-35.7,12.9c-6.8,1.9-13.3,3.4-19.5,4.3
	c-31.9,5-64.2,4.4-95.3-2.8c-9-2.1-15-3.6-18.1-4.6c-8.7-2.8-17.1-6-25.1-9.4c-23.9-10.1-45.6-24.1-65.1-41.8
	c-12.6-11.5-23.5-24.6-33.1-38c-2.1-2.9-4.1-6-6.1-9.4c-1.8-3-3.6-6-5.3-9.1c0,0-0.5-1.1-1.4-3c-0.9-2-2.4-3.4-4.4-4.3
	c-3.4-11.4-5.7-20.4-6.9-27.1c-2.5-12.9-3.8-25.9-4-39c0-2,0.1-4,0.4-6.1c1,4,3.1,8.6,4.1,11.5c2.4,6.9,5.1,13.6,8.1,20.2
	c1,2.3,2.8,5,3.6,6.8c0.8,1.6,1.5,3.2,2.3,4.6c24.3,45.1,60,77.1,106.8,96c11.1,4.5,23.7,8.1,35.4,10.6c22.1,4.9,44.6,5.9,67.6,3.2
	c6.4-0.7,13-1.8,19.8-3.1c10.4-2,20.8-5,31.3-9c9.7-3.7,18.4-7.5,26.1-11.4c8.2-4.2,17-9.6,26.3-16.4c13.6-9.9,25.2-22,36.2-35
	c5.5-6.6,10.3-13.2,14.2-19.9c6.2-0.8,12-2.8,17.3-5.9c7.2-4.2,12.1-12.6,7.3-20.6c-1.9-3.2-4.2-5.6-6.8-7.2l-0.2-0.3
	c-0.2-0.2-0.2-0.5-0.1-0.7c6.5-19,10.1-38.1,10.7-57.3c0.5-16.2-0.7-31.7-3.6-46.3c-3.4-16.8-8.9-35.4-16.6-55.5
	c-2.2-5.7-4.8-11.8-7.9-18.4c-4.2-9-8.2-17-12-24c-5.4-10.1-11.3-20.5-17.7-31.1c-5.8-9.7-12.5-19.4-19.2-29.2
	c-13.5-19.9-28.8-40.3-45.7-61.3c-5.7-7.1-10.9-14.6-16.6-21.7c-3.6-4.4-7-8.8-10.4-13.2c-3.7-4.9-7.5-9.8-11.4-14.9
	c-1.5-2-5.4-6.9-11.7-14.7c-4.2-5.2-8.2-10.5-12.2-15.9l7.1-7.8c0.3-0.3,0.7-0.3,1,0c0,0,0,0,0,0c12.3,13.5,24.4,27.6,36.3,42.1
	c4.2,5.1,8.5,10.2,12.8,15.3c8.2,9.5,16.2,19.3,24.3,29.2c9.5,11.8,17.2,21.2,23,28.2c15.5,18.7,32.2,40.2,50.2,64.6
	C681.3,388.5,697,412.9,710.7,437.7z"/>
<path class="st14" d="M508.7,192.9c4,5.4,8.1,10.7,12.2,15.9c6.3,7.8,10.2,12.7,11.7,14.7c3.9,5.1,7.7,10,11.4,14.9
	c3.4,4.4,6.9,8.9,10.4,13.2c5.8,7.1,11,14.7,16.6,21.7c16.9,21,32.1,41.4,45.7,61.3c6.7,9.8,13.5,19.6,19.2,29.2
	c6.4,10.6,12.2,21,17.7,31.1c3.7,7,7.7,15,12,24c3.1,6.6,5.7,12.7,7.9,18.4c7.7,20.2,13.2,38.7,16.6,55.5c2.9,14.6,4.1,30,3.6,46.3
	c-0.6,19.2-4.2,38.3-10.7,57.3c-0.1,0.3-0.1,0.5,0.1,0.7l0.2,0.3c-0.5,0.2-0.8,0.1-1.1-0.3c-5.5-2-9-3.1-10.6-3.5
	c-11.4-2.3-22.2-1.3-32.6,3c-3.2,1.3-7.4,3.8-9.3,6.6c-11.1,16.5,9.8,26.8,23.1,27.5c2.4,0.1,6.1,0.1,11,0c0.1,0.4,0.7,0.5,1.8,0.3
	c-4,6.7-8.7,13.4-14.2,19.9c-10.9,13-22.5,25.1-36.2,35c-9.3,6.8-18.1,12.2-26.3,16.4c-7.7,3.9-16.4,7.7-26.1,11.4
	c-10.4,4-20.9,7-31.3,9c-6.8,1.3-13.5,2.4-19.8,3.1c-23,2.7-45.5,1.6-67.6-3.2c-11.7-2.6-24.3-6.2-35.4-10.6
	c-46.9-18.9-82.5-50.9-106.8-96c-0.8-1.4-1.5-3-2.3-4.6c-0.8-1.7-2.6-4.5-3.6-6.8c-3-6.6-5.7-13.4-8.1-20.2c-1-2.9-3.1-7.5-4.1-11.5
	l0-8.5c0.2,2.8,1.2,4.8,2.9,5.8c1.1,0.6,2.4,0.3,3.1-0.8c0,0,0,0,0-0.1c1.3-2.3,1.1-4.6-0.4-6.9c-0.2-0.3-0.2-0.5,0-0.8l0.8-1.6
	c0.2-0.4,0.3-0.8,0.2-1.2c-0.1-1.1-0.7-1.9-1.9-2.6c-0.8-0.4-1.7-0.3-2.8,0.3c-1.3,0.8-2,2-2,3.7c-0.3-3.7-0.2-7.5,0.2-11.3
	c1-9.1,2.5-18,4.5-27c4.5-20,10.8-38.9,19-56.7c4.4-9.4,8.7-18,13-25.6c11-19.6,23.2-38.8,36.5-57.5c20.8-29.4,42.8-58.2,66.1-86.6
	c3-3.7,5.9-7.3,8.7-10.9c3.8-4.9,7.9-9.4,11.9-14.2c13.9-16.8,27.6-33.9,41.9-50.3C493,211.8,500.7,202.1,508.7,192.9z M506.3,316.5
	c12.4-13.1,25.5-34.7,15.6-53c-8.8-16.4-29.8-18.7-43.8-7.8c-12.5,9.7-21.8,22-27.8,36.8c-4.4,10.8-3.4,23.3,5.3,31.8
	c9.5,9.2,25.8,8.7,37.1,2.8C497.3,324.8,501.9,321.2,506.3,316.5z M435.2,347.8c-5-7.7-15.5-9.8-23.7-4.6
	c-8.1,5.2-10.7,15.7-5.7,23.4c5,7.7,15.5,9.8,23.7,4.6C437.6,366.1,440.2,355.6,435.2,347.8z M343.7,512.7c5.8-18.5,13-35.8,22-52.3
	c10.7-19.7,23-38.6,37-56.6c4.9-6.3,4.8-13.1-0.6-18.9c-4.1-4.4-10.7-5.7-16.1-3.4c-2.2,1-4.4,2.7-6.5,5.2
	c-3.6,4.2-7.2,8.7-10.7,13.4c-10.5,14.3-19.8,28.5-28,42.5c-8.1,13.9-15.5,30.6-22.3,50c-1.8,5.1-3.2,10.4-4.1,16.1
	c-1.4,8,2,15.5,10.6,16.8C334.4,527,341,521.3,343.7,512.7z M434.7,433.1c-0.9-5.6-6.3-9.5-12.1-8.5c-5.7,0.9-9.7,6.3-8.7,11.9v0
	c0.9,5.6,6.3,9.5,12.1,8.5h0C431.7,444.1,435.6,438.8,434.7,433.1L434.7,433.1z M620.7,433.5c-0.7-5.6-5.9-9.6-11.6-8.9c0,0,0,0,0,0
	c-5.7,0.7-9.8,5.8-9.2,11.4s5.9,9.6,11.6,8.9c0,0,0,0,0,0C617.3,444.2,621.4,439.1,620.7,433.5z M462.1,540.8
	c1.5-16.2-2.8-30-12.8-41.3c-7.7-8.7-18.5-14.6-29.9-15.9c-8.9-1-16.8-0.4-23.7,1.8c-12.8,4.1-22.4,11.6-28.9,22.5
	c-3.6,6.1-5.9,12.1-6.9,18c-2,12.8,0,24.6,6.1,35.3c8.8,15.5,24.6,24.9,41.7,26c18.4,1.2,35.5-7.4,45.6-22.8
	C458.4,556.4,461.4,548.6,462.1,540.8z M602,582.6c14.5,6.4,30.5,6.8,44.3-1c16.1-9.1,27.7-26.2,27.5-45.2
	c-0.1-14.7-4.7-27.2-13.7-37.4c-7.8-8.8-17.7-14.1-29-15.5c-29.9-3.7-56.2,16.5-59.2,46.5c-1.6,16.1,3.4,30.1,14.9,42.2
	C590.9,576.5,596,580,602,582.6z M337.2,551.8c-1.4-5.8-7.5-9.4-13.6-7.9l0,0c-6.1,1.4-10,7.4-8.6,13.2c0,0,0,0,0,0
	c1.4,5.8,7.5,9.4,13.6,7.9l0,0C334.7,563.5,338.6,557.6,337.2,551.8C337.2,551.8,337.2,551.8,337.2,551.8z M494.4,644.6
	c11.3,4.6,23,5.7,35.2,3.2c22.6-4.7,40.2-23.1,41.6-46.5c0.3-5.1-1.2-9.3-4.7-12.7c-7-7-16.5-2.1-18.8,6.3
	c-2.1,7.5-7,13.5-14.6,17.8c-12.1,6.9-26.5,5.3-37.5-3.1c-5-3.9-8.6-9-10.7-15.5c-4.5-13.8-21-10.1-22.5,2.9
	c-0.5,4.3-0.5,9.2,0.6,13.3C467.3,625.5,479.9,638.6,494.4,644.6z M405.9,611.9c0-10.7-14-19.3-31.2-19.3h0
	c-17.2,0-31.2,8.7-31.2,19.3l0,0c0,10.7,14,19.3,31.2,19.3S405.9,622.6,405.9,611.9z"/>
<path class="st15" d="M506.3,316.5c-4.5,4.7-9,8.2-13.6,10.6c-11.3,5.8-27.6,6.4-37.1-2.8c-8.7-8.4-9.7-21-5.3-31.8
	c6-14.8,15.3-27.1,27.8-36.8c14-10.9,35-8.6,43.8,7.8C531.8,281.9,518.8,303.4,506.3,316.5z"/>
<ellipse transform="matrix(0.8425 -0.5388 0.5388 0.8425 -126.2122 282.8677)" class="st15" cx="420.6" cy="357.2" rx="17.4" ry="16.6"/>
<path class="st15" d="M365.6,460.4c-9,16.5-16.1,33.8-22,52.3c-2.7,8.6-9.3,14.4-18.7,12.9c-8.6-1.4-12-8.8-10.6-16.8
	c1-5.6,2.3-11,4.1-16.1c6.8-19.4,14.2-36,22.3-50c8.1-14,17.5-28.2,28-42.5c3.5-4.7,7-9.2,10.7-13.4c2.2-2.5,4.3-4.2,6.5-5.2
	c5.4-2.4,11.9-1,16.1,3.4c5.4,5.8,5.5,12.6,0.6,18.9C388.7,421.8,376.4,440.6,365.6,460.4z"/>
<ellipse transform="matrix(0.9869 -0.1616 0.1616 0.9869 -64.6928 74.2873)" class="st12" cx="424.3" cy="434.8" rx="10.5" ry="10.4"/>
<ellipse transform="matrix(0.993 -0.1184 0.1184 0.993 -47.185 75.3262)" class="st12" cx="610.3" cy="434.8" rx="10.4" ry="10.2"/>
<path class="st16" d="M710.7,437.7c7.8,14.7,13,24.8,15.6,30.3c2.1,4.5,4.7,10.6,7.7,18.4c2.7,6.9,4.8,13,6.3,18.1
	c2.9,10.3,5.4,20.7,7.2,31.3c3.1,17.7,3.8,37.2,2.6,54.2c-0.7,10.6-2.3,22-4.9,34.2c-5.1,24.1-14.3,46.8-27.8,68.2
	c-11,17.5-25.4,34.5-43.3,51.2c-4.5,4.2-9.6,8.4-15.5,12.6c-16.6,12-33.1,21.4-49.6,28.2c-13.5,5.5-28.2,10.1-44.2,13.6
	c-23.3,5.1-47.1,6.3-71.5,3.4c-28.8-3.3-56.3-11.1-82.4-23.4c-16.8-7.9-31.6-18.1-46.5-29.9c-7.7-6.2-14.6-12.7-20.6-19.5
	c-8.5-9.7-16.8-19.6-24.1-30.2c-4.3-6.3-8.2-13.3-11.7-20.5c-5.8-12-10.1-20.7-13.9-32.4c2,0.9,3.4,2.4,4.4,4.3c0.9,2,1.4,3,1.4,3
	c1.7,3,3.5,6.1,5.3,9.1c2,3.4,4.1,6.5,6.1,9.4c9.7,13.4,20.5,26.5,33.1,38c19.5,17.7,41.2,31.6,65.1,41.8c8,3.4,16.4,6.5,25.1,9.4
	c3.1,1,9.1,2.5,18.1,4.6c31,7.2,63.4,7.8,95.3,2.8c6.3-1,12.8-2.4,19.5-4.3c12.5-3.5,22.3-7.3,35.7-12.9c9.2-3.9,18.2-8.7,26.8-14.4
	c12.3-8.2,24.7-17.4,35.2-27.6c6.8-6.6,12.6-13.2,17.6-19.8c3.3-4.4,7.8-10.8,13.5-19.4c3.6-5.5,6.3-10.9,9.4-16.6
	c2.2-4,3.7-8.1,5.6-12.4c2.1-4.9,4.1-10.1,5.9-15.7c1.6-4.9,2.9-10.3,4.1-15.9c3.1-15.3,4.8-28.5,5.1-39.5
	c0.8-30.8-3.6-61.1-13.1-91c-2.5-7.9-6.5-17.8-9.6-26.8c-1.7-4.9-2.1-8.1,0.9-12.1C706,437.9,707.9,437.3,710.7,437.7z"/>
<path class="st12" d="M462.1,540.8c-0.7,7.8-3.6,15.7-8.8,23.7c-10,15.5-27.1,24-45.6,22.8c-17.1-1.1-32.9-10.6-41.7-26
	c-6.1-10.7-8.1-22.5-6.1-35.3c0.9-5.9,3.2-11.9,6.9-18c6.5-10.9,16.1-18.4,28.9-22.5c6.9-2.2,14.8-2.8,23.7-1.8
	c11.4,1.3,22.2,7.2,29.9,15.9C459.3,510.8,463.5,524.6,462.1,540.8z M431.9,530.9c7.6-6.8,8-18.8,0.8-26.8s-19.1-8.9-26.7-2
	c0,0,0,0,0,0c-7.6,6.8-8,18.8-0.8,26.8C412.3,536.8,424.3,537.7,431.9,530.9C431.9,530.9,431.9,530.9,431.9,530.9z"/>
<path class="st12" d="M602,582.6c-6-2.6-11.1-6.1-15.2-10.4c-11.6-12.1-16.5-26.2-14.9-42.2c3-30,29.3-50.2,59.2-46.5
	c11.3,1.4,21.2,6.7,29,15.5c9,10.2,13.6,22.6,13.7,37.4c0.1,19-11.4,36.1-27.5,45.2C632.4,589.5,616.5,589,602,582.6z M644.6,529.5
	c6.9-7.8,5.8-20-2.3-27.1c-8.1-7.1-20.3-6.5-27.1,1.3l0,0c-6.9,7.8-5.8,20,2.3,27.1S637.7,537.3,644.6,529.5
	C644.6,529.5,644.6,529.5,644.6,529.5z"/>
<ellipse transform="matrix(0.7431 -0.6691 0.6691 0.7431 -237.9733 412.9584)" class="st15" cx="418.9" cy="516.5" rx="18.5" ry="19.4"/>
<ellipse transform="matrix(0.6587 -0.7524 0.7524 0.6587 -173.743 650.2657)" class="st15" cx="629.9" cy="516.6" rx="18.9" ry="19.5"/>
<ellipse transform="matrix(0.9732 -0.23 0.23 0.9732 -118.7881 89.8929)" class="st15" cx="326.1" cy="554.4" rx="11.4" ry="10.9"/>
<path class="st15" d="M283.6,564.7l0-4.2c0-1.7,0.7-3,2-3.7c1-0.6,2-0.7,2.8-0.3c1.2,0.6,1.9,1.5,1.9,2.6c0,0.4-0.1,0.8-0.2,1.2
	l-0.8,1.6c-0.1,0.3-0.1,0.5,0,0.8c1.5,2.3,1.6,4.7,0.4,6.9c-0.6,1.1-1.9,1.5-3,0.9c0,0,0,0-0.1,0
	C284.7,569.5,283.8,567.5,283.6,564.7z"/>
<path class="st12" d="M494.4,644.6c-14.6-6-27.1-19.1-31.3-34.3c-1.2-4.2-1.1-9-0.6-13.3c1.5-13,18.1-16.6,22.5-2.9
	c2.1,6.5,5.7,11.6,10.7,15.5c11,8.4,25.3,10.1,37.5,3.1c7.6-4.4,12.5-10.3,14.6-17.8c2.3-8.4,11.8-13.2,18.8-6.3
	c3.4,3.4,5,7.6,4.7,12.7c-1.5,23.4-19,41.8-41.6,46.5C517.4,650.3,505.7,649.3,494.4,644.6z"/>
<ellipse class="st15" cx="374.7" cy="611.9" rx="31.2" ry="19.3"/>
<path class="st15" d="M682.2,597.4c-0.5,1.3-0.9,2.7-1.3,4.1c-0.4,1.4-1,2.7-1.6,4c-3.8,8.1-8.1,16.3-12.8,24.8
	c-0.2,0.4-0.6,0.7-1,0.8c-0.5,0.1-1.1,0.1-1.7,0c-4.9,0.1-8.5,0.1-11,0c-13.3-0.7-34.2-11-23.1-27.5c1.9-2.8,6.1-5.2,9.3-6.6
	c10.3-4.3,21.2-5.3,32.6-3C673.1,594.2,676.7,595.4,682.2,597.4z"/>
<path class="st17" d="M682.2,597.4c0.3,0.5,0.6,0.6,1.1,0.3c2.6,1.6,4.9,4,6.8,7.2c4.9,8-0.1,16.3-7.3,20.6
	c-5.3,3.1-11.1,5.1-17.3,5.9c-1.1,0.2-1.7,0-1.8-0.3c0.6,0.2,1.2,0.2,1.7,0c0.5-0.1,0.8-0.4,1-0.8c4.7-8.5,9-16.7,12.8-24.8
	c0.6-1.3,1.1-2.6,1.6-4C681.3,600.1,681.7,598.7,682.2,597.4z"/>
<path class="st17" d="M656.8,801.4c2.5,0.9,5,1.5,7.6,1.7c3.3,0.3,5.1,0.4,5.1,0.4c12.2,1.6,22.9,3,32.2,4.4
	c10.4,1.5,117.1,17.5,95.8,42.3c-1.6,1.8-3.5,3.4-5.9,4.8c-9.9,5.7-21.5,9.9-32.9,12.8c-20.2,5.1-37.4,8.6-51.5,10.7
	c-27.8,4.1-51.5,7.4-78,9.3c-66.3,4.8-133,4.9-199.1,1.4c-16.9-0.9-33.5-2.5-50.6-4.2c-18.3-1.8-39.7-4.7-64-8.8
	c-11.5-1.9-23.4-4.3-35.7-7.2c-13.3-3.1-27.2-7.1-38.7-14c-2.5-1.5-4.7-3.4-6.4-5.6c-4.1-5.2-1.6-11.1,3.2-14.7
	c8.4-6.2,18.9-9.5,28.9-12.6c10.3-3.3,24.5-6.6,42.5-9.8c17.2-3.1,34.1-5.6,50.8-7.3c4.3-0.5,11.2-1.6,16.7-1.8
	c0.7,0,1.7,0.1,2.9,0.5c1.2,0.3,2.3,0.3,3.1,0c14.5,7.5,29.7,14,45.6,19.5c-1.4,0.3-2.9,0.3-4.4,0.1c-1.9-0.3-3.4-0.4-4.4-0.4
	c-11.1,0.6-23,1-33.7,2.4c-14.7,1.8-28.8,4.3-42.2,7.3c-4,0.9-14.1,5.3-11.4,11.3c1.6,3.7,7,5.6,10.7,6.8c7.3,2.3,14.7,4,22.3,5.1
	c30.3,4.4,61.5,7.2,93.6,8.2c43,1.4,81.9,1.5,116.6,0.3c26.8-0.9,52.2-2.8,76-5.6c8.8-1,18.4-2.5,28.6-4.3c7.3-1.3,13.8-3,19.4-5
	c4.8-1.7,9.8-5.8,5.7-11.2c-2.8-3.6-10.2-5.7-14.5-6.7c-6.5-1.6-13-2.8-19.6-3.8c-17.6-2.7-36.2-4.3-55.6-4.7
	c-0.6,0-1.7,0.1-3.5,0.3c-1.5,0.2-2.6,0-3.5-0.5c6.8-2.5,13.5-5,20-7.5C636.4,812.2,645.7,807.6,656.8,801.4z M287.6,842.7
	c-0.1-3.9-4.1-6.9-8.9-6.8c-4.8,0.2-8.6,3.4-8.4,7.3c0.1,3.9,4.1,6.9,8.9,6.8S287.7,846.6,287.6,842.7z M766.6,842.8
	c-0.2-3.9-4.2-6.8-9.1-6.6c-4.9,0.2-8.7,3.5-8.5,7.4c0.2,3.9,4.2,6.8,9.1,6.6C763,849.9,766.8,846.6,766.6,842.8L766.6,842.8z"/>
<path class="st16" d="M608.8,822.6c0.9,0.5,2,0.7,3.5,0.5c1.7-0.2,2.9-0.3,3.5-0.3c19.4,0.5,37.9,2.1,55.6,4.7
	c6.6,1,13.1,2.3,19.6,3.8c4.3,1,11.8,3.1,14.5,6.7c4.1,5.4-1,9.5-5.7,11.2c-5.6,2-12,3.7-19.4,5c-10.2,1.9-19.8,3.3-28.6,4.3
	c-23.9,2.8-49.2,4.6-76,5.6c-34.8,1.2-73.6,1.1-116.6-0.3c-32.1-1.1-63.3-3.8-93.6-8.2c-7.6-1.1-15-2.8-22.3-5.1
	c-3.7-1.2-9.1-3.1-10.7-6.8c-2.6-6,7.4-10.4,11.4-11.3c13.4-3,27.5-5.4,42.2-7.3c10.8-1.3,22.6-1.8,33.7-2.4c1,0,2.5,0.1,4.4,0.4
	c1.6,0.3,3.1,0.2,4.4-0.1c10.1,3.3,19.2,6,27.1,8c23.8,6,48.3,8.4,73.5,7.3C555.9,837.3,582.4,832,608.8,822.6z"/>
<ellipse transform="matrix(0.9995 -3.141076e-02 3.141076e-02 0.9995 -26.342 9.1764)" class="st16" cx="278.9" cy="843" rx="8.7" ry="7"/>
<ellipse transform="matrix(0.999 -4.361939e-02 4.361939e-02 0.999 -36.056 33.8573)" class="st16" cx="757.8" cy="843.1" rx="8.8" ry="7"/>
</svg>
